<svg width="32" height="32" viewBox="0 0 32 32" fill="none" xmlns="http://www.w3.org/2000/svg">
<path fill-rule="evenodd" clip-rule="evenodd" d="M6 6.6665C4.89543 6.6665 4 7.56194 4 8.66651V23.9998C4 25.1044 4.89543 25.9998 6 25.9998H8.54545C9.65002 25.9998 10.5455 25.1044 10.5455 23.9998V8.6665C10.5455 7.56193 9.65002 6.6665 8.54546 6.6665H6ZM6.33333 7.99984C5.78105 7.99984 5.33333 8.44755 5.33333 8.99984V23.6665C5.33333 24.2188 5.78105 24.6665 6.33333 24.6665H8.16667C8.71895 24.6665 9.16667 24.2188 9.16667 23.6665V8.99984C9.16667 8.44755 8.71895 7.99984 8.16667 7.99984H6.33333Z" fill="#C0C0C0"/>
<path fill-rule="evenodd" clip-rule="evenodd" d="M14.7277 6.6665C13.6231 6.6665 12.7277 7.56194 12.7277 8.66651V23.9998C12.7277 25.1044 13.6231 25.9998 14.7277 25.9998H26.0004C27.105 25.9998 28.0004 25.1044 28.0004 23.9998V8.6665C28.0004 7.56193 27.105 6.6665 26.0004 6.6665H14.7277ZM15 7.99984C14.4477 7.99984 14 8.44755 14 8.99984V23.6665C14 24.2188 14.4477 24.6665 15 24.6665H25.6667C26.2189 24.6665 26.6667 24.2188 26.6667 23.6665V8.99984C26.6667 8.44755 26.2189 7.99984 25.6667 7.99984H15Z" fill="#C0C0C0"/>
</svg>
