<svg width="32" height="32" viewBox="0 0 32 32" fill="none" xmlns="http://www.w3.org/2000/svg">
<path fill-rule="evenodd" clip-rule="evenodd" d="M6 6.6665C4.89543 6.6665 4 7.56194 4 8.66651V23.9998C4 25.1044 4.89543 25.9998 6 25.9998H12.9091C14.0137 25.9998 14.9091 25.1044 14.9091 23.9998V8.6665C14.9091 7.56193 14.0137 6.6665 12.9091 6.6665H6ZM6.33333 7.99984C5.78105 7.99984 5.33333 8.44755 5.33333 8.99984V23.6665C5.33333 24.2188 5.78105 24.6665 6.33333 24.6665H12.5C13.0523 24.6665 13.5 24.2188 13.5 23.6665V8.99984C13.5 8.44755 13.0523 7.99984 12.5 7.99984H6.33333Z" fill="#C0C0C0"/>
<path fill-rule="evenodd" clip-rule="evenodd" d="M18.6667 6.6665C17.5621 6.6665 16.6667 7.56194 16.6667 8.66651V23.9998C16.6667 25.1044 17.5621 25.9998 18.6667 25.9998H25.5757C26.6803 25.9998 27.5757 25.1044 27.5757 23.9998V8.6665C27.5757 7.56193 26.6803 6.6665 25.5757 6.6665H18.6667ZM26.1667 8.99984C26.1667 8.44755 25.7189 7.99984 25.1667 7.99984H19C18.4477 7.99984 18 8.44755 18 8.99984V23.6665C18 24.2188 18.4477 24.6665 19 24.6665H25.1667C25.7189 24.6665 26.1667 24.2188 26.1667 23.6665V8.99984Z" fill="#C0C0C0"/>
</svg>
