<svg width="32" height="32" viewBox="0 0 32 32" fill="none" xmlns="http://www.w3.org/2000/svg">
<path fill-rule="evenodd" clip-rule="evenodd" d="M6 6.6665C4.89543 6.6665 4 7.56194 4 8.66651V23.9998C4 25.1044 4.89543 25.9998 6 25.9998H26C27.1046 25.9998 28 25.1044 28 23.9998V8.6665C28 7.56193 27.1046 6.6665 26 6.6665H6ZM6.33333 7.99984C5.78105 7.99984 5.33333 8.44755 5.33333 8.99984V23.6665C5.33333 24.2188 5.78105 24.6665 6.33333 24.6665H25.6667C26.219 24.6665 26.6667 24.2188 26.6667 23.6665V8.99984C26.6667 8.44755 26.2189 7.99984 25.6667 7.99984H6.33333Z" fill="#C0C0C0"/>
</svg>
