<svg width="32" height="32" viewBox="0 0 32 32" fill="none" xmlns="http://www.w3.org/2000/svg">
<path fill-rule="evenodd" clip-rule="evenodd" d="M6 6.6665C4.89543 6.6665 4 7.56194 4 8.66651V23.9998C4 25.1044 4.89543 25.9998 6 25.9998H8.54545C9.65002 25.9998 10.5455 25.1044 10.5455 23.9998V8.6665C10.5455 7.56193 9.65002 6.6665 8.54546 6.6665H6ZM6.33333 7.99984C5.78105 7.99984 5.33333 8.44755 5.33333 8.99984V23.6665C5.33333 24.2188 5.78105 24.6665 6.33333 24.6665H8.33333C8.88562 24.6665 9.33333 24.2188 9.33333 23.6665V8.99984C9.33333 8.44755 8.88562 7.99984 8.33333 7.99984H6.33333Z" fill="#C0C0C0"/>
<path fill-rule="evenodd" clip-rule="evenodd" d="M14.7277 6.6665C13.6231 6.6665 12.7277 7.56194 12.7277 8.66651V23.9998C12.7277 25.1044 13.6231 25.9998 14.7277 25.9998H17.2731C18.3777 25.9998 19.2731 25.1044 19.2731 23.9998V8.6665C19.2731 7.56193 18.3777 6.6665 17.2731 6.6665H14.7277ZM15 7.99984C14.4477 7.99984 14 8.44755 14 8.99984V23.6665C14 24.2188 14.4477 24.6665 15 24.6665H17C17.5523 24.6665 18 24.2188 18 23.6665V8.99984C18 8.44755 17.5523 7.99984 17 7.99984H15Z" fill="#C0C0C0"/>
<path fill-rule="evenodd" clip-rule="evenodd" d="M23.4541 6.6665C22.3495 6.6665 21.4541 7.56194 21.4541 8.66651V23.9998C21.4541 25.1044 22.3495 25.9998 23.4541 25.9998H25.9996C27.1041 25.9998 27.9996 25.1044 27.9996 23.9998V8.6665C27.9996 7.56193 27.1041 6.6665 25.9996 6.6665H23.4541ZM23.6667 7.99984C23.1144 7.99984 22.6667 8.44755 22.6667 8.99984V23.6665C22.6667 24.2188 23.1144 24.6665 23.6667 24.6665H25.6667C26.219 24.6665 26.6667 24.2188 26.6667 23.6665V8.99984C26.6667 8.44755 26.219 7.99984 25.6667 7.99984H23.6667Z" fill="#C0C0C0"/>
</svg>
