<svg width="16" height="16" viewBox="0 0 16 16" fill="none" xmlns="http://www.w3.org/2000/svg">
<path d="M12.9591 8.57709V5.02509L9.05506 1.12109H3.03906V13.4411H8.81506C9.40706 14.4011 10.4631 15.0411 11.6791 15.0411C13.5351 15.0411 15.0391 13.5371 15.0391 11.6811C15.0391 10.2891 14.1751 9.07309 12.9591 8.57709ZM9.27906 2.24109L11.8391 4.80109H9.27906V2.24109ZM8.51106 12.8011H3.67906V1.76109H8.63906V5.44109H12.3191V8.38509C12.1111 8.33709 11.9031 8.32109 11.6791 8.32109C9.82306 8.32109 8.31906 9.82509 8.31906 11.6811C8.31906 12.0811 8.38306 12.4491 8.51106 12.8011ZM11.6791 14.4011C10.1751 14.4011 8.95906 13.1851 8.95906 11.6811C8.95906 10.1771 10.1751 8.96109 11.6791 8.96109C13.1831 8.96109 14.3991 10.1771 14.3991 11.6811C14.3991 13.1851 13.1831 14.4011 11.6791 14.4011Z" fill="#C0C0C0"/>
<path d="M11.9983 10.2422H11.3583V11.3622H10.2383V12.0022H11.3583V13.1222H11.9983V12.0022H13.1183V11.3622H11.9983V10.2422Z" fill="#C0C0C0"/>
</svg>
