<svg width="12" height="12" viewBox="0 0 12 12" fill="none" xmlns="http://www.w3.org/2000/svg">
<path d="M5.99984 0.839844C3.15584 0.839844 0.839844 3.15584 0.839844 5.99984C0.839844 8.84384 3.15584 11.1598 5.99984 11.1598C8.84384 11.1598 11.1598 8.84384 11.1598 5.99984C11.1598 3.15584 8.84384 0.839844 5.99984 0.839844ZM5.99984 10.4398C3.55184 10.4398 1.55984 8.44784 1.55984 5.99984C1.55984 3.55184 3.55184 1.55984 5.99984 1.55984C8.44784 1.55984 10.4398 3.55184 10.4398 5.99984C10.4398 8.44784 8.44784 10.4398 5.99984 10.4398Z" fill="#C0C0C0"/>
<path d="M6.00063 4.91797C5.79663 4.91797 5.64062 5.07397 5.64062 5.27797V8.03797C5.64062 8.24197 5.79663 8.39797 6.00063 8.39797C6.20463 8.39797 6.36063 8.24197 6.36063 8.03797V5.27797C6.36063 5.07397 6.20463 4.91797 6.00063 4.91797Z" fill="#C0C0C0"/>
<path d="M5.99953 3.60156C5.73553 3.60156 5.51953 3.81756 5.51953 4.08156C5.51953 4.34556 5.73553 4.56156 5.99953 4.56156C6.26353 4.56156 6.47953 4.34556 6.47953 4.08156C6.47953 3.81756 6.26353 3.60156 5.99953 3.60156Z" fill="#C0C0C0"/>
</svg>
