<svg width="24" height="24" viewBox="0 0 24 24" fill="none" xmlns="http://www.w3.org/2000/svg">
<path fill-rule="evenodd" clip-rule="evenodd" d="M19.4239 3.8691C19.2286 3.67384 18.912 3.67384 18.7168 3.8691L15.807 6.7789C14.6393 6.27757 13.3527 5.99992 12 5.99992C7.90909 5.99992 4.41547 8.54445 3 12.1363C3.66663 13.8279 4.7942 15.2872 6.22803 16.3578L3.86752 18.7183C3.67225 18.9136 3.67225 19.2302 3.86752 19.4255C4.06278 19.6207 4.37936 19.6207 4.57462 19.4255L19.4239 4.57621C19.6191 4.38095 19.6191 4.06437 19.4239 3.8691ZM8.43772 14.1481L9.67225 12.9136C9.59093 12.6698 9.54688 12.409 9.54688 12.1381C9.54688 10.784 10.6473 9.68352 12.0014 9.68352C12.2723 9.68352 12.5331 9.72757 12.777 9.8089L14.0119 8.57398C13.4177 8.23749 12.7312 8.04537 12 8.04537C9.74184 8.04537 7.90909 9.87807 7.90909 12.1363C7.90909 12.8674 8.10123 13.554 8.43772 14.1481ZM14.2532 11.1609L11.0243 14.3899C11.3238 14.5203 11.6543 14.5926 12.0014 14.5926C13.3555 14.5926 14.456 13.4922 14.456 12.1381C14.456 11.7909 14.3836 11.4604 14.2532 11.1609ZM12 16.2272C11.1979 16.2272 10.4494 15.9959 9.81767 15.5965L8.00462 17.4095C9.22219 17.9638 10.5749 18.2727 12 18.2727C16.095 18.2727 19.5846 15.7281 21 12.1363C20.3091 10.3829 19.1238 8.87906 17.6152 7.79898L15.4602 9.95392C15.8597 10.5856 16.0909 11.3341 16.0909 12.1363C16.0909 14.3945 14.2582 16.2272 12 16.2272Z" fill="black"/>
</svg>
