<svg width="14" height="14" viewBox="0 0 14 14" fill="none" xmlns="http://www.w3.org/2000/svg">
<path d="M12.0833 6.49622L7.22703 1.84126C7.10022 1.71958 6.89978 1.71958 6.77297 1.84126L1.9119 6.50102C1.80904 6.60388 1.75 6.74559 1.75 6.89043C1.75 7.19188 1.99545 7.43733 2.2969 7.43733H3.0625V11.5935C3.0625 11.9558 3.3565 12.2498 3.71875 12.2498H5.57815C5.75928 12.2498 5.90628 12.1028 5.90628 11.9217V9.07796C5.90628 9.01796 5.95522 8.96853 6.01562 8.96853H7.98438C8.0443 8.96853 8.09372 9.01796 8.09372 9.07796V11.9217C8.09372 12.1028 8.24072 12.2498 8.42185 12.2498H10.2812C10.6435 12.2498 10.9375 11.9558 10.9375 11.5935V7.43733H11.7031C12.0045 7.43733 12.25 7.19188 12.25 6.89043C12.25 6.74559 12.191 6.60388 12.0833 6.49622Z" fill="#C0C0C0"/>
</svg>
