<svg width="16" height="16" viewBox="0 0 16 16" fill="none" xmlns="http://www.w3.org/2000/svg">
<path d="M3.33702 7.99959C3.33702 6.61006 3.33521 5.22073 3.33762 3.8312C3.33943 2.80518 4.1406 2.00422 5.16622 2.0012C6.06022 1.99859 6.95402 2.0012 7.84802 2.0002C8.0134 2 8.14643 2.05365 8.26739 2.17522C9.63763 3.55089 11.0113 4.92314 12.3864 6.29398C12.4937 6.40108 12.5431 6.52145 12.5431 6.66974C12.5425 8.51803 12.5487 10.3661 12.5403 12.2144C12.5357 13.2179 11.7307 13.9988 10.7253 13.9994C8.86038 14.0004 6.99542 14.0002 5.13045 13.9994C4.20108 13.999 3.40253 13.2674 3.35149 12.3378C3.32095 11.7804 3.33843 11.2201 3.33742 10.6613C3.33602 9.77414 3.33702 8.88676 3.33702 7.99959ZM7.51747 2.82226C7.46723 2.82226 7.43126 2.82226 7.39509 2.82226C6.65843 2.82246 5.92197 2.82286 5.18531 2.82307C4.5875 2.82327 4.15929 3.24967 4.15929 3.84567C4.15929 6.61448 4.15929 9.3833 4.15929 12.1523C4.15929 12.7566 4.58448 13.1826 5.18772 13.1826C7.02917 13.1826 8.87063 13.182 10.7119 13.183C11.2856 13.1834 11.7238 12.7503 11.724 12.1754C11.7246 10.4979 11.7236 8.82065 11.7263 7.14317C11.7265 7.05234 11.7039 7.02461 11.6101 7.02501C10.8333 7.02883 10.0566 7.03044 9.27975 7.02622C8.32547 7.0212 7.51747 6.20436 7.51667 5.24947C7.51606 4.6603 7.51707 4.07093 7.51727 3.48176C7.51747 3.26735 7.51747 3.05335 7.51747 2.82226ZM8.33511 3.41806C8.33511 3.45664 8.33511 3.47915 8.33511 3.50145C8.33511 4.06691 8.33371 4.63237 8.33571 5.19783C8.33772 5.78117 8.76634 6.21059 9.35109 6.2132C9.91654 6.21581 10.482 6.2136 11.0475 6.213C11.0716 6.213 11.0957 6.20818 11.1226 6.20516C10.1938 5.2766 9.27171 4.35466 8.33511 3.41806Z" fill="#C0C0C0"/>
</svg>
