<svg width="14" height="14" viewBox="0 0 14 14" fill="none" xmlns="http://www.w3.org/2000/svg">
<path d="M12.1938 7.76605C12.2304 7.516 12.25 7.26025 12.25 7C12.25 6.73975 12.2304 6.484 12.1938 6.23395L11.0076 5.89495C10.9155 5.56045 10.7829 5.24305 10.6149 4.948L11.2143 3.86905C10.9078 3.4573 10.5427 3.09205 10.131 2.78575L9.052 3.38515C8.75695 3.2173 8.43955 3.08455 8.10505 2.99245L7.76605 1.80625C7.516 1.76965 7.26025 1.75 7 1.75C6.73975 1.75 6.484 1.76965 6.23395 1.80625L5.89495 2.99245C5.56045 3.08455 5.24305 3.21715 4.948 3.38515L3.86905 2.78575C3.4573 3.0922 3.09205 3.4573 2.78575 3.86905L3.38515 4.948C3.2173 5.24305 3.08455 5.56045 2.99245 5.89495L1.80625 6.23395C1.76965 6.484 1.75 6.73975 1.75 7C1.75 7.26025 1.76965 7.516 1.80625 7.76605L2.99245 8.10505C3.08455 8.43955 3.21715 8.75695 3.38515 9.052L2.78575 10.131C3.0922 10.5427 3.4573 10.908 3.86905 11.2143L4.948 10.6149C5.24305 10.7827 5.56045 10.9155 5.8951 11.0076L6.2341 12.1938C6.484 12.2304 6.73975 12.25 7 12.25C7.26025 12.25 7.516 12.2304 7.76605 12.1938L8.10505 11.0076C8.43955 10.9155 8.75695 10.7829 9.05215 10.6149L10.1311 11.2143C10.5429 10.9078 10.9081 10.5426 11.2144 10.131L10.615 9.052C10.7829 8.75695 10.9156 8.43955 11.0077 8.10505L12.1938 7.76605ZM7 9.25C5.7574 9.25 4.75 8.2426 4.75 7C4.75 5.7574 5.7574 4.75 7 4.75C8.2426 4.75 9.25 5.7574 9.25 7C9.25 8.2426 8.2426 9.25 7 9.25Z" fill="#C0C0C0"/>
</svg>
