<svg width="14" height="14" viewBox="0 0 14 14" fill="none" xmlns="http://www.w3.org/2000/svg">
<path d="M6.99822 5.64844C6.20833 5.64844 5.56641 6.29036 5.56641 7.08025C5.56641 7.87015 6.20833 8.51207 6.99822 8.51207C7.78811 8.51207 8.43003 7.87015 8.43003 7.08025C8.43003 6.29036 7.78809 5.64844 6.99822 5.64844Z" fill="#C0C0C0"/>
<path d="M7.00001 3.5C4.61364 3.5 2.57569 4.9843 1.75 7.07955C2.57569 9.17477 4.61364 10.6591 7.00001 10.6591C9.38876 10.6591 11.4243 9.17477 12.25 7.07955C11.4243 4.9843 9.38876 3.5 7.00001 3.5ZM7.00001 9.4659C5.68274 9.4659 4.61364 8.3968 4.61364 7.07953C4.61364 5.76225 5.68274 4.69318 7.00001 4.69318C8.31729 4.69318 9.38638 5.76227 9.38638 7.07955C9.38638 8.39682 8.31729 9.4659 7.00001 9.4659Z" fill="#C0C0C0"/>
</svg>
