<svg width="24" height="24" viewBox="0 0 24 24" fill="none" xmlns="http://www.w3.org/2000/svg">
<g clip-path="url(#clip0)">
<path d="M15.2563 8.17358H0.486991C0.21914 8.17358 0 8.39272 0 8.66057V23.4299C0 23.6977 0.21914 23.9169 0.486991 23.9169H15.2563C15.5241 23.9169 15.7433 23.6978 15.7433 23.4299V8.66057C15.7433 8.39272 15.5241 8.17358 15.2563 8.17358Z" fill="black"/>
<path d="M23.5921 0.0834961H8.43017C8.20568 0.0834961 8.02228 0.267086 8.02228 0.491392C8.02228 0.491392 8.02228 3.98348 8.02228 6.91673C8.02228 7.17763 8.28447 7.18464 8.28447 7.18464H16.573C16.7745 7.18464 16.8993 7.37654 16.8993 7.53374V15.7842C16.8993 15.7842 16.9087 16.0612 17.1719 16.0612C20.104 16.0612 23.5923 16.0612 23.5923 16.0612C23.8165 16.0612 24.0001 15.8778 24.0001 15.6534V0.49133C23.9999 0.267086 23.8163 0.0834961 23.5921 0.0834961Z" fill="black"/>
</g>
<defs>
<clipPath id="clip0">
<rect width="24" height="24" fill="white"/>
</clipPath>
</defs>
</svg>
