<svg width="24" height="24" viewBox="0 0 24 24" fill="none" xmlns="http://www.w3.org/2000/svg">
<path d="M12 9.10327C10.4018 9.10327 9.10321 10.4018 9.10321 12.0001C9.10321 13.5983 10.4018 14.8968 12 14.8968C13.5982 14.8968 14.8968 13.5983 14.8968 12.0001C14.8968 10.4018 13.5982 9.10327 12 9.10327ZM11.7802 11.141C11.4206 11.141 11.121 11.4407 11.121 11.8003H10.162C10.182 10.9013 10.9012 10.1821 11.7802 10.1821V11.141Z" fill="black"/>
<path d="M20.7902 11.4008C19.8113 10.1821 16.3152 6.20654 12 6.20654C7.68479 6.20654 4.18868 10.1821 3.20977 11.4008C2.93008 11.7404 2.93008 12.2398 3.20977 12.5994C4.18868 13.8181 7.68479 17.7937 12 17.7937C16.3152 17.7937 19.8113 13.8181 20.7902 12.5994C21.0699 12.2598 21.0699 11.7604 20.7902 11.4008ZM12 16.1954C9.68258 16.1954 7.80466 14.3175 7.80466 12.0001C7.80466 9.68268 9.68258 7.80477 12 7.80477C14.3174 7.80477 16.1953 9.68268 16.1953 12.0001C16.1953 14.3175 14.3174 16.1954 12 16.1954Z" fill="black"/>
</svg>
