<svg width="24" height="24" viewBox="0 0 24 24" fill="none" xmlns="http://www.w3.org/2000/svg">
<path d="M18.1996 4.7534C18.1561 4.7534 18.1219 4.7534 18.0909 4.7534C16.8699 4.7534 15.6489 4.7534 14.428 4.7534C14.139 4.7534 13.9992 4.6167 13.9992 4.32466C13.9992 3.1565 13.9992 1.98524 13.9961 0.817087C13.9961 0.789126 13.9961 0.761165 13.9961 0.720777C13.9588 0.720777 13.9309 0.720777 13.8998 0.720777C9.66835 0.720777 5.44 0.720777 1.20854 0.720777C0.916505 0.720777 0.72699 0.907184 0.72699 1.19922C0.72699 8.39767 0.72699 15.5961 0.72699 22.7946C0.72699 23.0866 0.916505 23.273 1.21786 23.273C2.69981 23.273 4.18175 23.273 5.6668 23.273C9.67456 23.273 13.6823 23.273 17.6901 23.273C17.8951 23.273 18.0629 23.2047 18.153 23.012C18.1841 22.9437 18.1965 22.8629 18.1965 22.7883C18.1996 22.4249 18.1965 22.0645 18.1996 21.701C18.2027 21.4307 18.4637 21.2598 18.706 21.3685C18.8365 21.4276 18.9173 21.5301 18.9204 21.6761C18.9235 22.0862 18.9297 22.4932 18.9173 22.9033C18.8986 23.4812 18.3953 23.9814 17.8175 23.9938C17.2085 24.0062 16.5965 23.9969 15.9845 23.9969C11.054 23.9969 6.1266 23.9969 1.19612 23.9969C0.587184 23.9969 0.108738 23.5899 0.015534 22.9903C0.00621359 22.925 0.0031068 22.8567 0.0031068 22.7883C0.0031068 15.5992 0.0031068 8.40388 0 1.21165C0 0.593398 0.434951 0.102524 0.984854 0.015534C1.0501 0.00621359 1.11845 0 1.18369 0C4.61981 0 8.05592 0 11.492 0C12.4334 0 13.3748 0.0031068 14.3161 0C14.6703 0 14.9623 0.124272 15.214 0.372816C16.1709 1.32039 17.134 2.26485 18.0909 3.21243C18.2742 3.39262 18.4544 3.57282 18.6377 3.7499C18.8303 3.93631 18.9204 4.16 18.9173 4.43029C18.9111 5.72893 18.9142 7.02757 18.9142 8.32621C18.9142 8.52194 18.8023 8.66796 18.6252 8.70214C18.4016 8.74563 18.1996 8.58718 18.1934 8.36039C18.1903 8.21748 18.1934 8.07456 18.1934 7.93476C18.1934 6.90641 18.1934 5.88116 18.1934 4.85282C18.1996 4.82175 18.1996 4.79379 18.1996 4.7534ZM14.7262 4.02641C15.7794 4.02641 16.8264 4.02641 17.8889 4.02641C16.8295 2.98252 15.7856 1.95107 14.7262 0.907184C14.7262 1.96039 14.7262 2.98874 14.7262 4.02641Z" fill="black"/>
<path d="M16.0124 10.1219C18.1809 10.1219 20.3495 10.1219 22.518 10.1219C23.0275 10.1219 23.4376 10.3208 23.7359 10.734C23.9099 10.9763 23.9937 11.2497 23.9937 11.5479C23.9937 13.8221 23.9937 16.0963 23.9937 18.3705C23.9937 18.5755 23.9968 18.7775 23.9378 18.9794C23.7576 19.6008 23.2015 20.0171 22.5522 20.0202C20.8124 20.0202 19.0695 20.0202 17.3297 20.0202C14.7137 20.0202 12.0978 20.0202 9.48189 20.0202C8.77354 20.0202 8.18946 19.5417 8.05898 18.8427C8.04034 18.7495 8.03723 18.6532 8.03723 18.5569C8.03723 16.233 8.03723 13.9091 8.03723 11.5852C8.03723 10.7495 8.65859 10.1219 9.49743 10.1188C11.29 10.1157 13.0827 10.1188 14.8753 10.1188C15.2512 10.1219 15.6333 10.1219 16.0124 10.1219ZM16.0155 19.2932C18.1902 19.2932 20.3681 19.2932 22.5429 19.2932C22.5864 19.2932 22.6299 19.2932 22.6733 19.2839C23.0337 19.2217 23.2667 18.9421 23.2667 18.5631C23.2667 17.7398 23.2667 16.9165 23.2667 16.0963C23.2667 14.5926 23.2667 13.0889 23.2636 11.5883C23.2636 11.4982 23.2512 11.405 23.2233 11.3211C23.1238 11.026 22.8598 10.8489 22.5366 10.8489C19.2155 10.8489 15.8912 10.8489 12.57 10.8489C11.5355 10.8489 10.5009 10.8489 9.46636 10.8489C9.06558 10.8489 8.75801 11.1565 8.75801 11.5573C8.75801 13.8998 8.75801 16.2392 8.75801 18.5817C8.75801 18.6656 8.77044 18.7526 8.7984 18.8334C8.90092 19.1254 9.16189 19.2963 9.49121 19.2963C11.6691 19.2932 13.8407 19.2932 16.0155 19.2932Z" fill="black"/>
<path d="M14.5305 15.04C14.5305 14.5739 14.5305 14.1079 14.5305 13.6419C14.5305 13.3623 14.6703 13.2225 14.9499 13.2225C15.273 13.2225 15.5961 13.2101 15.9192 13.2256C16.6493 13.2629 17.1588 13.6419 17.4478 14.3005C17.8268 15.1704 17.4757 16.2019 16.6649 16.6431C16.4101 16.7829 16.1336 16.845 15.8478 16.8481C15.5433 16.8543 15.2389 16.8512 14.9313 16.8481C14.6734 16.8481 14.5305 16.7021 14.5305 16.4411C14.5305 15.9782 14.5305 15.5091 14.5305 15.04ZM15.2575 16.118C15.4936 16.118 15.7204 16.1242 15.9472 16.1149C16.1274 16.1087 16.2889 16.0372 16.435 15.9316C16.7891 15.6706 16.9569 15.2015 16.8419 14.7572C16.7363 14.3471 16.4847 14.0675 16.0621 13.9712C15.9223 13.9402 15.7701 13.9526 15.621 13.9464C15.4998 13.9433 15.3787 13.9464 15.2575 13.9464C15.2575 14.6796 15.2575 15.3972 15.2575 16.118Z" fill="black"/>
<path d="M11.8493 15.5186C11.8493 15.5559 11.8493 15.5839 11.8493 15.6118C11.8493 15.8945 11.8493 16.1742 11.8493 16.4569C11.8493 16.6868 11.694 16.8546 11.4827 16.8514C11.2745 16.8483 11.1223 16.6837 11.1223 16.4569C11.1223 15.5124 11.1223 14.5679 11.1223 13.6266C11.1223 13.3749 11.2714 13.2258 11.5231 13.2258C11.9363 13.2289 12.3526 13.2165 12.7627 13.2413C13.1293 13.2631 13.4586 13.4029 13.6792 13.7198C14.0458 14.2479 13.8687 15.006 13.3095 15.3198C13.0796 15.4503 12.8311 15.5124 12.5701 15.5186C12.3713 15.5217 12.1724 15.5186 11.9736 15.5186C11.9363 15.5186 11.899 15.5186 11.8493 15.5186ZM11.8555 14.7916C12.1134 14.7916 12.3619 14.7978 12.6074 14.7885C12.7006 14.7854 12.7969 14.7574 12.8839 14.7233C13.0951 14.6425 13.1852 14.4561 13.1355 14.2355C13.0983 14.0833 12.9802 14.0149 12.8466 13.9901C12.7068 13.9621 12.5608 13.959 12.4148 13.9528C12.2283 13.9466 12.045 13.9528 11.8555 13.9528C11.8555 14.2355 11.8555 14.5089 11.8555 14.7916Z" fill="black"/>
<path d="M19.1968 13.9496C19.1968 14.1951 19.1968 14.4343 19.1968 14.6797C19.3149 14.6797 19.4299 14.6797 19.5479 14.6797C19.8493 14.6797 20.1475 14.6766 20.4489 14.6797C20.6167 14.6828 20.7565 14.7947 20.7969 14.95C20.8372 15.1054 20.772 15.2762 20.6291 15.3477C20.5638 15.3819 20.4831 15.4005 20.4085 15.4005C20.0357 15.4067 19.6629 15.4036 19.29 15.4036C19.2621 15.4036 19.2341 15.4036 19.1968 15.4036C19.1968 15.4378 19.1968 15.4658 19.1968 15.4937C19.1968 15.8137 19.1968 16.1368 19.1968 16.4568C19.1968 16.6867 19.0415 16.8545 18.8271 16.8514C18.619 16.8483 18.4698 16.6836 18.4698 16.4537C18.4698 15.5093 18.4698 14.5648 18.4698 13.6203C18.4698 13.3718 18.619 13.2227 18.8644 13.2227C19.4733 13.2227 20.0792 13.2227 20.6881 13.2227C20.8869 13.2227 21.033 13.3407 21.064 13.524C21.1013 13.7446 20.9367 13.9465 20.7099 13.9465C20.2376 13.9496 19.7623 13.9465 19.29 13.9465C19.2621 13.9496 19.2341 13.9496 19.1968 13.9496Z" fill="black"/>
</svg>
