<svg width="24" height="24" viewBox="0 0 24 24" fill="none" xmlns="http://www.w3.org/2000/svg">
<path fill-rule="evenodd" clip-rule="evenodd" d="M24 12C24 18.6274 18.6274 24 12 24C5.37258 24 0 18.6274 0 12C0 5.37258 5.37258 0 12 0C18.6274 0 24 5.37258 24 12ZM12 9.6C12.6627 9.6 13.2 9.06274 13.2 8.4C13.2 7.73726 12.6627 7.2 12 7.2C11.3373 7.2 10.8 7.73726 10.8 8.4C10.8 9.06274 11.3373 9.6 12 9.6ZM13.2 16.7923V12.0077C13.2 11.6874 13.0736 11.3802 12.8485 11.1537C12.6235 10.9272 12.3183 10.8 12 10.8C11.6817 10.8 11.3765 10.9272 11.1515 11.1537C10.9264 11.3802 10.8 11.6874 10.8 12.0077V16.7923C10.8 17.1126 10.9264 17.4198 11.1515 17.6463C11.3765 17.8728 11.6817 18 12 18C12.3183 18 12.6235 17.8728 12.8485 17.6463C13.0736 17.4198 13.2 17.1126 13.2 16.7923Z" fill="black"/>
</svg>
