<svg width="24" height="24" viewBox="0 0 24 24" fill="none" xmlns="http://www.w3.org/2000/svg">
<path d="M19.7143 0H4.2857C1.91994 0.0028125 0.0028125 1.91994 0 4.2857V19.7143C0.0028125 22.0801 1.91994 23.9972 4.2857 24H19.7143C22.0801 23.9972 23.9972 22.0801 24 19.7143V4.2857C23.9972 1.91994 22.0801 0.0028125 19.7143 0ZM11.1429 22.2857H4.2857C2.86554 22.2857 1.71427 21.1345 1.71427 19.7143V4.2857C1.71427 2.86554 2.86554 1.71427 4.2857 1.71427H11.1428V22.2857H11.1429ZM22.2857 19.7143C22.2857 21.1345 21.1345 22.2857 19.7143 22.2857H12.8572V12.8572H22.2857V19.7143ZM22.2857 11.1429H12.8572V1.71427H19.7143C21.1345 1.71427 22.2857 2.86554 22.2857 4.2857V11.1429Z" fill="black"/>
</svg>
