<svg width="24" height="24" viewBox="0 0 24 24" fill="none" xmlns="http://www.w3.org/2000/svg">
<g clip-path="url(#clip0)">
<path d="M23.9941 10.5V0L20.4691 3.52498C18.3016 1.35 15.309 0 11.994 0C5.36404 0 0.0090332 5.36998 0.0090332 12C0.0090332 18.6301 5.36404 24.0001 11.994 24.0001C17.5816 24.0001 22.2616 20.1751 23.5891 15.0001H20.4691C19.2316 18.4951 15.9165 21 11.9941 21C7.02159 21 2.99408 16.9725 2.99408 12C2.99408 7.02753 7.02159 3.00003 11.9941 3.00003C14.4766 3.00003 16.7041 4.03503 18.3316 5.66255L13.4941 10.5001H23.9941V10.5Z" fill="black"/>
</g>
<defs>
<clipPath id="clip0">
<rect width="24" height="24" fill="white"/>
</clipPath>
</defs>
</svg>
