<svg width="24" height="24" viewBox="0 0 24 24" fill="none" xmlns="http://www.w3.org/2000/svg">
<path d="M12.3505 4.7068C12.0508 4.42142 11.5757 4.43267 11.2903 4.73267C11.0046 5.03267 11.0166 5.50742 11.3162 5.79317L17.0695 11.2498H4.75C4.336 11.2498 4 11.5858 4 11.9998C4 12.4138 4.336 12.7498 4.75 12.7498H17.0455L11.3162 18.2068C11.0162 18.4925 11.0046 18.9673 11.2903 19.2673C11.4377 19.4218 11.6353 19.4998 11.8333 19.4998C12.0193 19.4998 12.2053 19.4312 12.3505 19.2928L18.8938 13.0603C19.1773 12.7772 19.3333 12.4007 19.3333 11.9998C19.3333 11.5989 19.1773 11.2224 18.8807 10.9265L12.3505 4.7068Z" fill="black"/>
</svg>
