<svg width="24" height="24" viewBox="0 0 24 24" fill="none" xmlns="http://www.w3.org/2000/svg">
<path d="M23.4451 15.156L20.9131 13.17C20.9611 12.786 20.9971 12.396 20.9971 12C20.9971 11.604 20.9611 11.214 20.9131 10.83L23.4511 8.84395C23.6791 8.66395 23.7452 8.33995 23.5951 8.07597L21.1951 3.91798C21.0451 3.65996 20.7331 3.55196 20.4631 3.65996L17.4751 4.86596C16.8571 4.39194 16.1791 3.98998 15.4472 3.68398L14.9972 0.504C14.9431 0.222019 14.6971 0 14.3971 0H9.59717C9.29719 0 9.05115 0.222019 9.00317 0.504L8.55317 3.68398C7.82119 3.98998 7.14315 4.38598 6.52519 4.86596L3.53719 3.65996C3.26719 3.55798 2.95517 3.65996 2.80521 3.91798L0.405135 8.07597C0.255117 8.33399 0.321154 8.65799 0.549135 8.84395L3.08111 10.83C3.03313 11.214 2.99713 11.604 2.99713 12C2.99713 12.396 3.03313 12.786 3.08111 13.17L0.549135 15.156C0.321154 15.336 0.255117 15.66 0.405135 15.924L2.80515 20.082C2.95517 20.34 3.26713 20.448 3.53713 20.34L6.52513 19.134C7.14315 19.608 7.82113 20.01 8.55311 20.316L9.00311 23.4959C9.05109 23.7779 9.29713 23.9999 9.59711 23.9999H14.3971C14.6971 23.9999 14.9431 23.7779 14.9911 23.4959L15.4411 20.316C16.1731 20.01 16.8511 19.614 17.4691 19.134L20.4571 20.34C20.7271 20.442 21.0391 20.34 21.189 20.082L23.5891 15.924C23.7391 15.666 23.6731 15.342 23.4451 15.156ZM11.9971 16.2C9.67513 16.2 7.79711 14.322 7.79711 12C7.79711 9.67797 9.67513 7.80001 11.9971 7.80001C14.3191 7.80001 16.1971 9.67803 16.1971 12C16.1971 14.322 14.3191 16.2 11.9971 16.2Z" fill="black"/>
</svg>
