<svg width="24" height="24" viewBox="0 0 24 24" fill="none" xmlns="http://www.w3.org/2000/svg">
<path fill-rule="evenodd" clip-rule="evenodd" d="M17.8353 8.84251C17.7616 8.85852 17.6873 8.87464 17.6121 8.89029C17.6104 8.88594 17.6084 8.88124 17.6063 8.87628C17.6007 8.86286 17.5942 8.84756 17.5895 8.83226C17.1753 7.68294 16.5192 6.69158 15.6117 5.87432C14.3882 4.77174 12.9519 4.15436 11.3094 4.02218C10.6694 3.9706 10.0327 4.00929 9.40402 4.13502C8.08383 4.39777 6.92322 4.9813 5.92703 5.88722C4.94373 6.78346 4.25865 7.87154 3.86211 9.14176C3.84599 9.19495 3.82342 9.22074 3.767 9.23203C3.31082 9.3223 2.8772 9.48349 2.47099 9.70917C1.55379 10.2202 0.873541 10.9504 0.435089 11.903C0.0498312 12.738 -0.0742896 13.6149 0.0417714 14.5257C0.114309 15.0915 0.283565 15.6283 0.55115 16.128C1.00733 16.9807 1.65695 17.6416 2.50968 18.101C3.1738 18.4605 3.88629 18.6491 4.64068 18.6571C5.27512 18.664 5.90955 18.6627 6.54398 18.6614C6.79774 18.6609 7.05149 18.6604 7.30525 18.6604C7.81785 18.6604 8.19505 18.2751 8.18377 17.7625C8.1741 17.3547 7.82752 16.9807 7.4197 16.9549C7.24994 16.9448 7.07919 16.9456 6.90901 16.9464C6.86264 16.9466 6.81633 16.9469 6.77008 16.9469C6.55294 16.9463 6.33563 16.9461 6.11819 16.946C5.6835 16.9456 5.24833 16.9452 4.81316 16.942C4.64391 16.942 4.47304 16.9372 4.3054 16.913C3.57518 16.8098 2.96103 16.4778 2.48066 15.9233C1.82137 15.1624 1.59247 14.2775 1.77785 13.2893C2.0277 11.9627 3.16897 10.9439 4.50689 10.8585C5.034 10.8246 5.29998 10.491 5.3709 10.1605C5.65461 8.84193 6.31228 7.74742 7.37134 6.91242C8.65446 5.90172 10.1149 5.53097 11.7252 5.80017C12.7907 5.97749 13.7208 6.45301 14.5123 7.19129C15.4037 8.02145 15.9631 9.03859 16.2 10.2331C16.3177 10.8263 16.956 11.1212 17.4815 10.8214C17.9055 10.5796 18.3617 10.4378 18.8501 10.4055C19.5013 10.362 20.109 10.5039 20.67 10.8327C21.8403 11.5194 22.4641 12.8573 22.2433 14.1936C22.0885 15.1318 21.6178 15.8717 20.8344 16.4068C20.3411 16.7437 19.7899 16.9227 19.1918 16.9404C18.9537 16.9477 18.7165 16.9468 18.4788 16.9458C18.3996 16.9455 18.3202 16.9452 18.2408 16.9452C17.8248 16.9459 17.4092 16.9457 16.9936 16.9455C16.4396 16.9453 15.8856 16.945 15.3312 16.9469C14.8057 16.9485 14.4108 17.4046 14.4801 17.9221C14.5349 18.3428 14.8992 18.662 15.3296 18.662C15.6716 18.662 16.0137 18.6623 16.3558 18.6627C17.2678 18.6637 18.1798 18.6646 19.0919 18.6588C19.3675 18.6571 19.648 18.6346 19.9188 18.5862C21.0794 18.3783 22.053 17.8254 22.8091 16.9211C23.7923 15.7459 24.1663 14.3855 23.9326 12.8702C23.7537 11.7144 23.2169 10.7408 22.3496 9.95418C21.563 9.24009 20.6345 8.82743 19.5771 8.71298C19.1564 8.66623 18.734 8.67268 18.3165 8.74522C18.156 8.77289 17.997 8.80741 17.8353 8.84251ZM12.2362 14.9657V14.5015C12.2636 14.5273 12.2781 14.5402 12.2894 14.5498C12.3913 14.6511 12.4926 14.7528 12.594 14.8546C12.746 15.0072 12.8981 15.1598 13.0518 15.3107C13.3114 15.5654 13.6257 15.6637 13.9803 15.5734C14.6976 15.3913 14.9378 14.5063 14.4107 13.9744C13.5789 13.1345 12.7407 12.3012 11.9025 11.4694C11.5366 11.1067 10.9386 11.1035 10.5726 11.4678C9.93133 12.1056 9.29249 12.7451 8.65377 13.3845C8.39825 13.6403 8.14275 13.896 7.88712 14.1517C7.85972 14.1791 7.85488 14.2 7.87261 14.2355C7.88551 14.2645 7.89196 14.3032 7.8839 14.3322C7.84843 14.4725 7.83876 14.6143 7.86778 14.7545C7.94838 15.1334 8.16921 15.3945 8.53835 15.5073C8.9091 15.6218 9.23794 15.5299 9.51197 15.2559C9.75699 15.0092 10.002 14.7626 10.247 14.5176C10.2565 14.5071 10.2672 14.4978 10.2799 14.4866C10.2888 14.4788 10.2987 14.4701 10.3099 14.4596V14.5579C10.3099 15.1377 10.3097 15.7174 10.3095 16.297C10.3092 17.456 10.3088 18.6147 10.3099 19.7742C10.3099 19.8451 10.3147 19.9193 10.3292 19.9886C10.434 20.4883 10.8854 20.8042 11.4076 20.7462C11.8719 20.6946 12.2362 20.2755 12.2362 19.7903V14.9657Z" fill="black"/>
</svg>
