<svg width="32" height="32" viewBox="0 0 32 32" fill="none" xmlns="http://www.w3.org/2000/svg">
<path fill-rule="evenodd" clip-rule="evenodd" d="M5.44 21.8135H26.56C27.354 21.8135 28 21.1675 28 20.3735V10.7735C28 9.97946 27.354 9.3335 26.56 9.3335H5.44C4.64596 9.3335 4 9.97946 4 10.7735V20.3735C4 21.1675 4.64596 21.8135 5.44 21.8135ZM4.96 10.7735C4.96 10.5088 5.17534 10.2935 5.44 10.2935H26.56C26.8247 10.2935 27.04 10.5088 27.04 10.7735V20.3735C27.04 20.6382 26.8247 20.8535 26.56 20.8535H5.44C5.17534 20.8535 4.96 20.6382 4.96 20.3735V10.7735ZM8 13.3335V17.5991H9.6582C10.1426 17.5952 10.5156 17.4878 10.7773 17.2769C11.0391 17.0659 11.1699 16.7554 11.1699 16.3452C11.1699 16.105 11.1064 15.9019 10.9795 15.7358C10.8545 15.5698 10.6826 15.4595 10.4639 15.4048C10.6553 15.3306 10.8047 15.2144 10.9121 15.0562C11.0195 14.896 11.0732 14.7114 11.0732 14.5024C11.0732 14.1196 10.9395 13.8296 10.6719 13.6323C10.4043 13.4331 10.0117 13.3335 9.49414 13.3335H8ZM8.87891 16.8931V15.7417H9.68457C10.0889 15.7476 10.291 15.9458 10.291 16.3364C10.291 16.5103 10.2324 16.647 10.1152 16.7466C10 16.8442 9.83887 16.8931 9.63184 16.8931H8.87891ZM9.5293 15.1206H8.87891V14.0454H9.49414C9.73633 14.0454 9.91309 14.0884 10.0244 14.1743C10.1377 14.2583 10.1943 14.397 10.1943 14.5903C10.1943 14.936 9.97266 15.1128 9.5293 15.1206ZM12.8076 17.6577C13.1768 17.6577 13.4658 17.5308 13.6748 17.2769L13.6982 17.5991H14.4951V14.4292H13.6455V16.6733C13.5381 16.8726 13.3408 16.9722 13.0537 16.9722C12.7529 16.9722 12.6025 16.8071 12.6025 16.4771V14.4292H11.7559V16.5063C11.7598 16.8833 11.8506 17.1694 12.0283 17.3647C12.208 17.5601 12.4678 17.6577 12.8076 17.6577ZM16.1475 13.6499V14.4292H16.6895V15.0503H16.1475V16.6323C16.1475 16.7495 16.1699 16.8335 16.2148 16.8843C16.2598 16.9351 16.3457 16.9605 16.4727 16.9605C16.5664 16.9605 16.6494 16.9536 16.7217 16.9399V17.5815C16.5557 17.6323 16.3848 17.6577 16.209 17.6577C15.6152 17.6577 15.3125 17.3579 15.3008 16.7583V15.0503H14.8379V14.4292H15.3008V13.6499H16.1475ZM18.1748 14.4292V13.6499H17.3281V14.4292H16.8652V15.0503H17.3281V16.7583C17.3398 17.3579 17.6426 17.6577 18.2363 17.6577C18.4121 17.6577 18.583 17.6323 18.749 17.5815V16.9399C18.6768 16.9536 18.5938 16.9605 18.5 16.9605C18.373 16.9605 18.2871 16.9351 18.2422 16.8843C18.1973 16.8335 18.1748 16.7495 18.1748 16.6323V15.0503H18.7168V14.4292H18.1748ZM18.9688 15.9849C18.9688 15.6704 19.0293 15.3901 19.1504 15.144C19.2715 14.8979 19.4453 14.7075 19.6719 14.5728C19.9004 14.438 20.165 14.3706 20.4658 14.3706C20.8936 14.3706 21.2422 14.5015 21.5117 14.7632C21.7832 15.0249 21.9346 15.3804 21.9658 15.8296L21.9717 16.0464C21.9717 16.5327 21.8359 16.9233 21.5645 17.2183C21.293 17.5112 20.9287 17.6577 20.4717 17.6577C20.0146 17.6577 19.6494 17.5112 19.376 17.2183C19.1045 16.9253 18.9688 16.5269 18.9688 16.023V15.9849ZM19.8154 16.0464C19.8154 16.3472 19.8721 16.5776 19.9854 16.7378C20.0986 16.896 20.2607 16.9751 20.4717 16.9751C20.6768 16.9751 20.8369 16.897 20.9521 16.7407C21.0674 16.5825 21.125 16.3306 21.125 15.9849C21.125 15.6899 21.0674 15.4614 20.9521 15.2993C20.8369 15.1372 20.6748 15.0562 20.4658 15.0562C20.2588 15.0562 20.0986 15.1372 19.9854 15.2993C19.8721 15.4595 19.8154 15.7085 19.8154 16.0464ZM23.2988 14.7954L23.2725 14.4292H22.4756V17.5991H23.3223V15.3638C23.4414 15.1606 23.6201 15.0591 23.8584 15.0591C24.04 15.0591 24.1699 15.1001 24.248 15.1821C24.3262 15.2622 24.3652 15.3921 24.3652 15.5718V17.5991H25.2119V15.5513C25.208 15.1587 25.124 14.8638 24.96 14.6665C24.7959 14.4692 24.5459 14.3706 24.21 14.3706C23.8291 14.3706 23.5254 14.5122 23.2988 14.7954Z" fill="#C0C0C0"/>
</svg>
