<svg width="32" height="32" viewBox="0 0 32 32" fill="none" xmlns="http://www.w3.org/2000/svg">
<path d="M12.0132 5.36647L4.43421 7.89279C4.183 7.97544 3.99918 8.2303 4 8.49476V26.1856C4.00506 26.5805 4.45373 26.9011 4.82895 26.7777L12.2105 24.3205L19.5921 26.7777C19.7192 26.8195 19.8597 26.8195 19.9868 26.7777L27.5658 24.2513C27.8139 24.1697 27.9967 23.9204 28 23.6592V5.96844C28 5.57018 27.5494 5.24207 27.1711 5.36647L19.7895 7.82371L12.4079 5.36647C12.2651 5.31102 12.1121 5.33568 12.0132 5.36647ZM11.5789 6.83688V23.2053L5.26316 25.3073V8.93886L11.5789 6.83688ZM12.8421 6.83688L19.1579 8.93886V25.3073L12.8421 23.2053V6.83688ZM26.7368 6.83688V23.2053L20.4211 25.3073V8.93886L26.7368 6.83688Z" fill="#C0C0C0"/>
</svg>
