<svg width="32" height="32" viewBox="0 0 32 32" fill="none" xmlns="http://www.w3.org/2000/svg">
<path d="M26.7441 6.6665H19.032C18.3398 6.6665 17.7766 7.23009 17.7766 7.92232V15.6344C17.7766 16.3267 18.3398 16.8903 19.0312 16.8903L23.1581 16.8958C23.0103 17.9118 22.4297 19.9472 20.1592 21.2332L19.6467 21.5238L21.6378 25.8207L22.2372 25.4914C22.4727 25.3623 27.9999 22.2518 27.9999 15.6349V7.92232C28.0004 7.23009 27.4368 6.6665 26.7441 6.6665ZM26.7224 15.6344C26.7224 20.3446 23.5462 23.062 22.2031 24L21.2927 22.0358C25.1249 19.2856 24.4672 15.62 24.4672 15.62L19.0546 15.6344L19.032 7.94447L26.7224 7.92232V15.6344Z" fill="#C0C0C0"/>
<path d="M12.9671 6.6665H5.25539C4.56316 6.6665 4 7.23009 4 7.92232V15.6344C4 16.3267 4.56316 16.8903 5.25454 16.8903L9.38153 16.8958C9.23372 17.9118 8.65352 19.9472 6.38256 21.2332L5.8701 21.5238L7.86075 25.8207L8.46054 25.4914C8.69612 25.3623 14.2233 22.2518 14.2233 15.6349V7.92232C14.2233 7.23009 13.6598 6.6665 12.9671 6.6665ZM12.9454 15.6344C12.9454 20.3446 9.76876 23.062 8.42604 24L7.51612 22.0358C11.3862 19.2324 10.6906 15.62 10.6906 15.62L5.27754 15.6344L5.25497 7.94447L12.9454 7.92232V15.6344Z" fill="#C0C0C0"/>
</svg>
