<svg width="32" height="32" viewBox="0 0 32 32" fill="none" xmlns="http://www.w3.org/2000/svg">
<path d="M25.7959 27.9996C25.502 27.9996 25.2326 27.8771 25.0122 27.6567L19.1836 21.6812C18.7673 21.2404 18.7673 20.5547 19.2081 20.1384C19.6489 19.722 20.3347 19.722 20.751 20.1628L26.5795 26.1628C26.9959 26.6037 26.9959 27.2894 26.5551 27.7057C26.3591 27.9016 26.0653 27.9996 25.7959 27.9996Z" fill="#C0C0C0"/>
<path d="M13.9674 23.7388C8.45724 23.7388 4.0001 19.3061 4.0001 13.8694C3.97561 8.43265 8.45724 4 13.9674 4C19.4776 4 23.9348 8.43265 23.9348 13.8694C23.9348 19.3061 19.4531 23.7388 13.9674 23.7388ZM13.9674 6.17959C9.65724 6.17959 6.1552 9.63265 6.1552 13.8694C6.1552 18.1061 9.65724 21.5592 13.9674 21.5592C18.2531 21.5592 21.7552 18.1061 21.7552 13.8694C21.7552 9.63265 18.2531 6.17959 13.9674 6.17959Z" fill="#C0C0C0"/>
</svg>
