<svg width="32" height="32" viewBox="0 0 32 32" fill="none" xmlns="http://www.w3.org/2000/svg">
<path d="M25.3333 5.33333H6.66667C5.93638 5.33333 5.33333 5.93638 5.33333 6.66667V25.3333C5.33333 26.0636 5.93638 26.6667 6.66667 26.6667H25.3333C26.0636 26.6667 26.6667 26.0636 26.6667 25.3333V6.66667C26.6667 5.93638 26.0636 5.33333 25.3333 5.33333ZM25.3333 4C26.8 4 28 5.2 28 6.66667V25.3333C28 26.8 26.8 28 25.3333 28H6.66667C5.2 28 4 26.8 4 25.3333V6.66667C4 5.2 5.2 4 6.66667 4H25.3333Z" fill="#C0C0C0"/>
<path d="M11.0409 13.7075L10.3334 13L7.33337 16L10.3334 19L11.0409 18.2925L8.74837 16L11.0409 13.7075Z" fill="#C0C0C0"/>
<path d="M20.9591 13.7075L21.6666 13L24.6666 16L21.6666 19L20.9591 18.2925L23.2516 16L20.9591 13.7075Z" fill="#C0C0C0"/>
</svg>
