<svg width="24" height="23" viewBox="0 0 24 23" fill="none" xmlns="http://www.w3.org/2000/svg">
<path d="M19.3825 6.37615C18.5719 2.30901 14.6177 -0.330824 10.5506 0.479784C7.57584 1.07268 5.24985 3.3972 4.65513 6.37157C1.7714 6.70391 -0.297143 9.31096 0.0350106 12.1949C0.340797 14.849 2.58878 16.8514 5.26047 16.8496H9.01487C9.4296 16.8496 9.76578 16.5134 9.76578 16.0987C9.76578 15.6839 9.4296 15.3478 9.01487 15.3478H5.26047C3.18681 15.3355 1.51597 13.6447 1.52805 11.5712C1.54032 9.49773 3.23112 7.82671 5.30479 7.83879C5.68748 7.83898 6.00901 7.55095 6.05112 7.17064C6.43235 3.87493 9.41312 1.51232 12.7088 1.89354C15.4796 2.21416 17.6653 4.39971 17.9858 7.17064C18.0487 7.55773 18.3842 7.84136 18.7764 7.83879C20.8501 7.83879 22.531 9.5197 22.531 11.5934C22.531 13.6669 20.8501 15.3478 18.7764 15.3478H15.022C14.6073 15.3478 14.2711 15.6839 14.2711 16.0987C14.2711 16.5134 14.6073 16.8496 15.022 16.8496H18.7766C21.6794 16.8315 24.018 14.4637 24 11.5608C23.9836 8.91728 22.0064 6.69731 19.3825 6.37615Z" fill="#C0C0C0"/>
<path d="M14.6727 13.8079C14.9609 14.1064 15.4363 14.1146 15.7345 13.8264C16.0328 13.5384 16.0411 13.0631 15.753 12.7648C15.747 12.7584 15.7408 12.7523 15.7345 12.7463L12.55 9.561C12.2572 9.2673 11.7817 9.26675 11.488 9.55953C11.4876 9.56008 11.487 9.56045 11.4867 9.561L8.3021 12.7463C8.00382 13.0343 7.99558 13.5097 8.28361 13.8079C8.57182 14.1062 9.04716 14.1145 9.34544 13.8264C9.35166 13.8204 9.35789 13.8142 9.36393 13.8079L11.2675 11.9036V21.3545C11.2675 21.7692 11.6037 22.1054 12.0184 22.1054C12.433 22.1054 12.7691 21.7692 12.7691 21.3545V11.9036L14.6727 13.8079Z" fill="#C0C0C0"/>
</svg>
