<svg width="25" height="24" viewBox="0 0 25 24" fill="none" xmlns="http://www.w3.org/2000/svg">
<path d="M12.0911 24C18.7688 24 24.1822 18.6274 24.1822 12C24.1822 5.37259 18.7688 0 12.0911 0C5.41337 0 0 5.37259 0 12C0 18.6274 5.41337 24 12.0911 24Z" fill="#200960"/>
<path d="M8.83017 10.1468C9.71957 10.7698 10.6536 11.0972 11.6733 11.1428C12.6557 11.1859 13.627 11.2511 14.5598 11.5921C16.3435 12.2434 17.6807 13.408 18.5949 15.054C18.6483 15.15 18.6495 15.3285 18.5949 15.4233C17.1573 17.9163 14.9952 19.2889 12.0938 19.2914C9.19238 19.2939 7.02781 17.9249 5.58642 15.4331C5.52812 15.3322 5.53804 15.1463 5.59138 15.0367C5.72907 14.761 5.90893 14.5061 6.08384 14.2242C5.66829 13.8943 5.25274 13.5631 4.8099 13.211C4.34598 13.7983 3.99245 14.4606 3.71459 15.1635C3.68234 15.2448 3.72823 15.3716 3.77041 15.4627C5.13738 18.4592 7.4384 20.3046 10.7144 20.8278C14.8066 21.4815 18.7847 19.252 20.3874 15.5058C20.4705 15.31 20.4668 15.1537 20.3849 14.9629C18.8592 11.4407 15.283 9.27643 11.4128 9.55096C10.5432 9.61498 9.69476 9.79719 8.83017 10.1468Z" fill="white"/>
<path d="M18.0929 9.73435C18.5171 10.0717 18.9339 10.4028 19.4251 10.7931C19.7737 10.1246 20.1235 9.46843 20.4522 8.80364C20.4919 8.72239 20.4398 8.57588 20.3939 8.47616C19.0691 5.55846 16.8276 3.75121 13.6645 3.15167C9.5698 2.37485 5.39323 4.64745 3.79058 8.47124C3.7298 8.61651 3.73228 8.83072 3.79306 8.97476C5.29648 12.508 8.92477 14.7006 12.7788 14.3977C13.3023 14.3571 13.8208 14.2475 14.3356 14.1392C14.6593 14.0715 14.9707 13.9484 15.3627 13.8253C15.1828 13.7046 15.0625 13.6111 14.9322 13.536C14.0552 13.0349 13.1051 12.8084 12.0966 12.7838C9.22124 12.7148 7.07279 11.4197 5.60907 8.97353C5.49495 8.78148 5.49867 8.64236 5.61155 8.454C7.19684 5.82192 9.53135 4.48741 12.6151 4.68069C15.3068 4.84935 17.2978 6.23187 18.6139 8.56603C18.6598 8.64605 18.6511 8.79502 18.6064 8.87997C18.4526 9.17051 18.269 9.44627 18.0929 9.73435Z" fill="white"/>
</svg>
