<svg width="85" height="57" viewBox="0 0 85 57" fill="none" xmlns="http://www.w3.org/2000/svg">
<path d="M40.9456 20.417C40.9456 9.141 31.8056 0 20.5286 0C9.25162 0 1.06662 8.826 0.111621 20.062C-1.34638 37.207 11.6786 51.562 27.4916 56.129C22.1016 52.87 18.3416 47.202 17.7146 40.61C18.6376 40.741 19.5716 40.834 20.5286 40.834C31.8056 40.834 40.9456 31.694 40.9456 20.417Z" fill="#EBD8D1"/>
<path d="M84.0756 20.417C84.0756 9.141 74.9356 0 63.6576 0C52.3816 0 44.1956 8.826 43.2396 20.062C41.7816 37.207 54.8065 51.562 70.6205 56.129C65.2305 52.87 61.4715 47.202 60.8435 40.61C61.7665 40.741 62.7016 40.834 63.6576 40.834C74.9356 40.834 84.0756 31.694 84.0756 20.417Z" fill="#EBD8D1"/>
</svg>
