<svg width="85" height="57" viewBox="0 0 85 57" fill="none" xmlns="http://www.w3.org/2000/svg">
<path d="M43.1301 35.7119C43.1301 46.9879 52.2701 56.1289 63.5471 56.1289C74.8241 56.1289 83.0091 47.3029 83.9641 36.0669C85.4221 18.9219 72.3971 4.5669 56.5841 -9.53674e-05C61.9741 3.2589 65.7341 8.92691 66.3611 15.5189C65.4381 15.3879 64.5041 15.2949 63.5471 15.2949C52.2701 15.2949 43.1301 24.4349 43.1301 35.7119Z" fill="#EBD8D1"/>
<path d="M0.000133514 35.7119C0.000133514 46.9879 9.14013 56.1289 20.4181 56.1289C31.6941 56.1289 39.8801 47.3029 40.8361 36.0669C42.2941 18.9219 29.2691 4.5669 13.4551 -9.53674e-05C18.8451 3.2589 22.6041 8.92691 23.2321 15.5189C22.3091 15.3879 21.3741 15.2949 20.4181 15.2949C9.14013 15.2949 0.000133514 24.4349 0.000133514 35.7119Z" fill="#EBD8D1"/>
</svg>
