<svg width="10" height="10" viewBox="0 0 10 10" fill="none" xmlns="http://www.w3.org/2000/svg">
<path d="M8.67763 4.98847C8.67763 4.77327 8.86208 4.58881 9.07728 4.58881C9.29248 4.58881 9.4462 4.77327 9.4462 4.98847V7.75534C9.4462 8.67763 8.67763 9.4462 7.75534 9.4462H2.19086C1.26857 9.4462 0.5 8.67763 0.5 7.75534V2.19086C0.5 1.26857 1.26857 0.5 2.19086 0.5H4.98847C5.20367 0.5 5.35739 0.684458 5.35739 0.899658C5.35739 1.11486 5.20367 1.26857 4.98847 1.26857H2.19086C1.69898 1.26857 1.26857 1.69898 1.26857 2.19086V7.75534C1.26857 8.24722 1.69898 8.67763 2.19086 8.67763H7.75534C8.24722 8.67763 8.67763 8.24722 8.67763 7.75534V4.98847Z" fill="white"/>
<path d="M2.99029 3.82001C2.83657 3.66629 2.83657 3.42035 2.99029 3.26664C3.144 3.11292 3.38994 3.11292 3.54366 3.26664L4.98858 4.68081L8.83145 0.837942C8.98516 0.684228 9.23111 0.684228 9.38482 0.837942C9.53854 0.991657 9.53854 1.2376 9.38482 1.39132L5.26526 5.51087C5.11155 5.66459 4.86561 5.66459 4.71189 5.51087L2.99029 3.82001Z" fill="white"/>
</svg>
