<svg width="30" height="2" viewBox="0 0 30 2" fill="none" xmlns="http://www.w3.org/2000/svg">
<path fill-rule="evenodd" clip-rule="evenodd" d="M1 0C0.447715 0 0 0.447715 0 1C0 1.55228 0.447715 2 1 2C1.55228 2 2 1.55228 2 1C2 0.447715 1.55228 0 1 0ZM5 0C4.44772 0 4 0.447715 4 1C4 1.55228 4.44772 2 5 2C5.55228 2 6 1.55228 6 1C6 0.447715 5.55228 0 5 0ZM8 1C8 0.447715 8.44771 0 9 0C9.55229 0 10 0.447715 10 1C10 1.55228 9.55229 2 9 2C8.44771 2 8 1.55228 8 1ZM13 0C12.4477 0 12 0.447715 12 1C12 1.55228 12.4477 2 13 2C13.5523 2 14 1.55228 14 1C14 0.447715 13.5523 0 13 0ZM16 1C16 0.447715 16.4477 0 17 0C17.5523 0 18 0.447715 18 1C18 1.55228 17.5523 2 17 2C16.4477 2 16 1.55228 16 1ZM21 0C20.4477 0 20 0.447715 20 1C20 1.55228 20.4477 2 21 2C21.5523 2 22 1.55228 22 1C22 0.447715 21.5523 0 21 0ZM24 1C24 0.447715 24.4477 0 25 0C25.5523 0 26 0.447715 26 1C26 1.55228 25.5523 2 25 2C24.4477 2 24 1.55228 24 1ZM29 0C28.4477 0 28 0.447715 28 1C28 1.55228 28.4477 2 29 2C29.5523 2 30 1.55228 30 1C30 0.447715 29.5523 0 29 0Z" fill="#C0C0C0"/>
</svg>
