<svg width="24" height="24" viewBox="0 0 24 24" fill="none" xmlns="http://www.w3.org/2000/svg">
<path d="M19.1595 20.0547H4V21.0018H19.1595V20.0547Z" fill="black"/>
<path d="M19.4844 4.62825L18.4795 3.62337C17.6487 2.79262 16.2956 2.7918 15.4649 3.62337L6.42011 12.6673C6.36315 12.7243 6.32165 12.7951 6.29968 12.8724L4.95957 17.5623C4.91238 17.7283 4.95876 17.9057 5.07999 18.0278C5.17031 18.1181 5.29073 18.1669 5.41522 18.1669C5.45835 18.1669 5.50229 18.1612 5.54541 18.149L10.2354 16.8089C10.3135 16.7869 10.3835 16.7454 10.4404 16.6885L19.4844 7.6429C19.8871 7.24013 20.1093 6.70474 20.1093 6.13598C20.1093 5.56642 19.8871 5.03021 19.4844 4.62825ZM9.85705 15.9301L6.10522 17.0017L7.17682 13.2499L14.4592 5.96674L17.1394 8.64697L9.85705 15.9301ZM18.8147 6.97325L17.8098 7.97813L15.1296 5.2979L16.1345 4.29302C16.5959 3.83167 17.3477 3.83167 17.8098 4.29302L18.8147 5.2979C19.0385 5.52166 19.1614 5.81865 19.1614 6.13517C19.1614 6.45169 19.0385 6.74949 18.8147 6.97325Z" fill="black"/>
</svg>
