<svg width="24" height="24" viewBox="0 0 24 24" fill="none" xmlns="http://www.w3.org/2000/svg">
<path d="M6.51429 19.9727C6.23025 19.9727 6 20.2029 6 20.4869C6 20.771 6.23025 21.0012 6.51429 21.0012H16.8C17.0841 21.0012 17.3143 20.771 17.3143 20.4869C17.3143 20.2029 17.0841 19.9727 16.8 19.9727H6.51429Z" fill="black"/>
<path d="M11.6553 18.9429C11.5363 18.9429 11.3782 18.8709 11.3016 18.7978L6.93005 14.6836C6.73145 14.4915 6.70844 14.1803 6.90999 13.9564C7.09017 13.7562 7.44158 13.7512 7.63724 13.9363L11.1409 17.2389V3.51429C11.1409 3.23025 11.3711 3 11.6552 3C11.9392 3 12.1695 3.23025 12.1695 3.51429V17.2389L15.6731 13.9363C15.8687 13.7512 16.2115 13.7643 16.4003 13.9564C16.5997 14.1591 16.5819 14.4945 16.3803 14.6836L12.0088 18.7978C11.8902 18.9187 11.776 18.9408 11.6553 18.9429V18.9429Z" fill="black"/>
</svg>
