<svg width="24" height="24" viewBox="0 0 24 24" fill="none" xmlns="http://www.w3.org/2000/svg">
<path d="M3.68359 6.85804C3.68359 6.574 3.45335 6.34375 3.16931 6.34375C2.88527 6.34375 2.65502 6.574 2.65502 6.85804L2.65502 17.1438C2.65502 17.4278 2.88526 17.6581 3.16931 17.6581C3.45335 17.6581 3.68359 17.4278 3.68359 17.1438L3.68359 6.85804Z" fill="black"/>
<path d="M4.7134 11.999C4.7134 11.88 4.78539 11.722 4.85842 11.6453L8.97264 7.2738C9.16473 7.0752 9.47593 7.05219 9.69988 7.25374C9.90009 7.43392 9.90508 7.78533 9.71993 7.98099L6.41731 11.4846L20.142 11.4846C20.426 11.4846 20.6562 11.7149 20.6562 11.9989C20.6562 12.283 20.426 12.5132 20.142 12.5132L6.41731 12.5132L9.71993 16.0169C9.90505 16.2125 9.89191 16.5553 9.69988 16.7441C9.49712 16.9434 9.1618 16.9257 8.97264 16.724L4.85842 12.3525C4.73754 12.234 4.71543 12.1198 4.7134 11.999V11.999Z" fill="black"/>
</svg>
