<svg width="24" height="24" viewBox="0 0 24 24" fill="none" xmlns="http://www.w3.org/2000/svg">
<path d="M19.6289 17.142C19.6289 17.426 19.8592 17.6562 20.1432 17.6562C20.4272 17.6562 20.6575 17.426 20.6575 17.142L20.6575 6.85621C20.6575 6.57218 20.4272 6.34192 20.1432 6.34192C19.8592 6.34192 19.6289 6.57218 19.6289 6.85621L19.6289 17.142Z" fill="black"/>
<path d="M18.5991 12.001C18.5991 12.12 18.5271 12.278 18.4541 12.3547L14.3399 16.7262C14.1478 16.9248 13.8366 16.9478 13.6126 16.7463C13.4124 16.5661 13.4074 16.2147 13.5926 16.019L16.8952 12.5154L3.17054 12.5154C2.8865 12.5154 2.65625 12.2851 2.65625 12.0011C2.65625 11.717 2.8865 11.4868 3.17054 11.4868L16.8952 11.4868L13.5926 7.98314C13.4074 7.7875 13.4206 7.44473 13.6126 7.25591C13.8154 7.05657 14.1507 7.07431 14.3399 7.27597L18.4541 11.6475C18.575 11.766 18.5971 11.8802 18.5991 12.001V12.001Z" fill="black"/>
</svg>
