<svg width="24" height="24" viewBox="0 0 24 24" fill="none" xmlns="http://www.w3.org/2000/svg">
<path d="M16.7982 4.02734C17.0822 4.02734 17.3125 3.7971 17.3125 3.51306C17.3125 3.22902 17.0822 2.99877 16.7982 2.99877L6.51246 2.99877C6.22843 2.99877 5.99817 3.22901 5.99817 3.51306C5.99817 3.7971 6.22843 4.02734 6.51246 4.02734L16.7982 4.02734Z" fill="black"/>
<path d="M11.6572 5.05715C11.7762 5.05715 11.9343 5.12914 12.0109 5.20217L16.3825 9.31639C16.581 9.50848 16.6041 9.81968 16.4025 10.0436C16.2223 10.2438 15.8709 10.2488 15.6753 10.0637L12.1716 6.76106L12.1716 20.4857C12.1716 20.7698 11.9414 21 11.6573 21C11.3733 21 11.143 20.7698 11.143 20.4857L11.143 6.76106L7.63939 10.0637C7.44375 10.2488 7.10098 10.2357 6.91216 10.0436C6.71282 9.84087 6.73056 9.50555 6.93222 9.31639L11.3037 5.20217C11.4223 5.08129 11.5365 5.05918 11.6572 5.05715V5.05715Z" fill="black"/>
</svg>
