<svg width="10" height="10" viewBox="0 0 10 10" fill="none" xmlns="http://www.w3.org/2000/svg">
<path d="M8.06413 5.13193C8.06413 5.36934 8.06413 5.6059 8.06413 5.84331C8.06413 6.20156 8.06413 6.55982 8.06413 6.91808C8.06413 7.03721 8.06756 7.15634 8.05213 7.27462C8.05642 7.24462 8.0607 7.21377 8.06413 7.18377C8.04784 7.29862 8.01785 7.40918 7.97328 7.51632C7.98442 7.48889 7.99642 7.46146 8.00756 7.43404C7.96299 7.53774 7.90643 7.63545 7.83786 7.72459C7.85586 7.70144 7.87386 7.6783 7.89186 7.65516C7.82329 7.74344 7.74358 7.82315 7.6553 7.89172C7.67844 7.87372 7.70159 7.85572 7.72473 7.83772C7.63473 7.90628 7.53788 7.96371 7.43418 8.00742C7.46161 7.99628 7.48903 7.98428 7.51646 7.97314C7.41018 8.0177 7.29876 8.0477 7.18391 8.06399C7.21391 8.0597 7.24477 8.05542 7.27476 8.05199C7.09563 8.07513 6.90879 8.06399 6.72881 8.06399C6.38683 8.06399 6.04572 8.06399 5.70374 8.06399C5.28463 8.06399 4.86467 8.06399 4.44556 8.06399C4.08816 8.06399 3.7299 8.06399 3.3725 8.06399C3.21651 8.06399 3.06052 8.06484 2.90539 8.06399C2.8454 8.06399 2.78626 8.0597 2.72712 8.05199C2.75712 8.05627 2.78797 8.06056 2.81797 8.06399C2.70312 8.0477 2.59256 8.0177 2.48543 7.97314C2.51285 7.98428 2.54028 7.99628 2.56771 8.00742C2.464 7.96285 2.36629 7.90628 2.27716 7.83772C2.3003 7.85572 2.32344 7.87372 2.34658 7.89172C2.2583 7.82315 2.17859 7.74344 2.11003 7.65516C2.12803 7.6783 2.14602 7.70144 2.16402 7.72459C2.09546 7.63459 2.03803 7.53774 1.99432 7.43404C2.00546 7.46146 2.01746 7.48889 2.02861 7.51632C1.98404 7.41004 1.95404 7.29862 1.93776 7.18377C1.94204 7.21377 1.94633 7.24462 1.94975 7.27462C1.92661 7.09549 1.93776 6.90865 1.93776 6.72866C1.93776 6.38669 1.93776 6.04557 1.93776 5.7036C1.93776 5.28449 1.93776 4.86452 1.93776 4.44542C1.93776 4.08801 1.93776 3.72976 1.93776 3.37236C1.93776 3.21637 1.9369 3.06038 1.93776 2.90525C1.93776 2.84526 1.94204 2.78612 1.94975 2.72698C1.94547 2.75698 1.94118 2.78783 1.93776 2.81783C1.95404 2.70298 1.98404 2.59242 2.02861 2.48528C2.01746 2.51271 2.00546 2.54014 1.99432 2.56756C2.03889 2.46386 2.09546 2.36615 2.16402 2.27702C2.14602 2.30016 2.12803 2.3233 2.11003 2.34644C2.17859 2.25816 2.2583 2.17845 2.34658 2.10989C2.32344 2.12788 2.3003 2.14588 2.27716 2.16388C2.36715 2.09532 2.464 2.03789 2.56771 1.99418C2.54028 2.00532 2.51285 2.01732 2.48543 2.02846C2.5917 1.9839 2.70312 1.9539 2.81797 1.93761C2.78797 1.9419 2.75712 1.94618 2.72712 1.94961C2.83083 1.9359 2.93539 1.93761 3.03995 1.93761C3.19166 1.93761 3.34336 1.93761 3.49506 1.93761C3.86532 1.93761 4.23643 1.93761 4.60669 1.93761C4.69411 1.93761 4.78239 1.93761 4.86981 1.93761C5.04894 1.93761 5.22121 1.77991 5.21264 1.59478C5.20407 1.4088 5.06179 1.25195 4.86981 1.25195C4.65297 1.25195 4.43613 1.25195 4.22015 1.25195C3.8696 1.25195 3.51906 1.25195 3.16852 1.25195C3.08366 1.25195 2.99796 1.25195 2.91311 1.25195C2.64741 1.25195 2.39286 1.31538 2.15545 1.43194C1.60264 1.70106 1.25295 2.29416 1.25038 2.90354C1.24952 3.02353 1.25038 3.14352 1.25038 3.26437C1.25038 3.5592 1.25038 3.85403 1.25038 4.14887C1.25038 4.51998 1.25038 4.89024 1.25038 5.26135C1.25038 5.60932 1.25038 5.9573 1.25038 6.30527C1.25038 6.53154 1.25038 6.75866 1.25038 6.98493C1.25038 7.02178 1.25038 7.05864 1.25038 7.09635C1.25124 7.38433 1.32666 7.67145 1.47065 7.92171C1.76291 8.43082 2.32001 8.74793 2.90539 8.7505C3.03824 8.75136 3.17109 8.7505 3.30393 8.7505C3.60562 8.7505 3.90731 8.7505 4.209 8.7505C4.58098 8.7505 4.95295 8.7505 5.32492 8.7505C5.6686 8.7505 6.01229 8.7505 6.35598 8.7505C6.57282 8.7505 6.78966 8.7505 7.0065 8.7505C7.04421 8.7505 7.08278 8.75136 7.12049 8.7505C7.42647 8.7445 7.73758 8.65623 7.99299 8.48652C8.24154 8.32197 8.45581 8.09398 8.5818 7.82229C8.68979 7.58917 8.74979 7.3449 8.74979 7.08692C8.74979 6.83237 8.74979 6.57868 8.74979 6.32412C8.74979 5.98644 8.74979 5.64961 8.74979 5.31192C8.74979 5.25192 8.74979 5.19278 8.74979 5.13279C8.74979 4.95366 8.59209 4.78139 8.40696 4.78996C8.22097 4.79767 8.06413 4.93995 8.06413 5.13193Z" fill="#C0C0C0"/>
<path d="M6.50524 1.93664C6.71951 1.93664 6.93464 1.93664 7.1489 1.93664C7.49088 1.93664 7.83199 1.93664 8.17396 1.93664C8.25196 1.93664 8.32995 1.93664 8.40794 1.93664C8.58707 1.93664 8.75934 1.77894 8.75077 1.59381C8.7422 1.40782 8.59993 1.25098 8.40794 1.25098C8.19367 1.25098 7.97855 1.25098 7.76428 1.25098C7.42231 1.25098 7.0812 1.25098 6.73923 1.25098C6.66123 1.25098 6.58324 1.25098 6.50524 1.25098C6.32612 1.25098 6.15385 1.40868 6.16242 1.59381C6.17099 1.77979 6.31326 1.93664 6.50524 1.93664Z" fill="#C0C0C0"/>
<path d="M8.74914 3.49583C8.74914 3.28156 8.74914 3.06644 8.74914 2.85217C8.74914 2.5102 8.74914 2.16909 8.74914 1.82712C8.74914 1.74912 8.74914 1.67113 8.74914 1.59314C8.74914 1.41401 8.59144 1.24174 8.40631 1.25031C8.22032 1.25888 8.06348 1.40115 8.06348 1.59314C8.06348 1.8074 8.06348 2.02253 8.06348 2.2368C8.06348 2.57877 8.06348 2.91988 8.06348 3.26185C8.06348 3.33984 8.06348 3.41784 8.06348 3.49583C8.06348 3.67496 8.22118 3.84723 8.40631 3.83866C8.59229 3.83009 8.74914 3.68782 8.74914 3.49583Z" fill="#C0C0C0"/>
<path d="M5.24787 5.23463C5.361 5.1215 5.47499 5.00751 5.58812 4.89438C5.8581 4.6244 6.12894 4.35356 6.39892 4.08359C6.72546 3.75704 7.052 3.4305 7.37941 3.10309C7.6631 2.8194 7.94593 2.53657 8.22962 2.25288C8.36675 2.11575 8.50646 1.97947 8.64187 1.84063C8.64359 1.83891 8.6453 1.8372 8.64787 1.83463C8.77472 1.70778 8.78415 1.47466 8.64787 1.34952C8.51074 1.22353 8.29819 1.21411 8.16277 1.34952C8.04964 1.46266 7.93565 1.57665 7.82251 1.68978C7.55253 1.95976 7.2817 2.23059 7.01172 2.50057C6.68518 2.82712 6.35863 3.15366 6.03123 3.48106C5.74754 3.76475 5.46471 4.04759 5.18102 4.33128C5.04388 4.46841 4.90418 4.60469 4.76876 4.74353C4.76705 4.74524 4.76534 4.74696 4.76276 4.74953C4.63592 4.87638 4.62649 5.1095 4.76276 5.23463C4.8999 5.35977 5.11245 5.37005 5.24787 5.23463Z" fill="#C0C0C0"/>
</svg>
