<svg width="12" height="12" viewBox="0 0 12 12" fill="none" xmlns="http://www.w3.org/2000/svg">
<path fill-rule="evenodd" clip-rule="evenodd" d="M6.22891 5.42027L6.44182 5.53125H12V6.46875H0V5.53125H4.6009C4.40194 5.38289 4.21158 5.2193 4.03964 5.03557C3.46624 4.42277 3.1875 3.6956 3.1875 2.8125C3.1875 1.26169 4.44919 0 6 0C7.55081 0 8.8125 1.26169 8.8125 2.8125V3.28125H7.875V2.8125C7.875 1.77863 7.03387 0.9375 6 0.9375C4.96613 0.9375 4.125 1.77863 4.125 2.8125C4.125 4.20991 5.07783 4.82027 6.22891 5.42027ZM7.82677 7.40625H8.91096C9.10329 7.81978 9.21094 8.28033 9.21094 8.76562C9.21094 10.5491 7.75999 12 5.97656 12C4.19313 12 2.74219 10.5491 2.74219 8.76562V8.29688H3.67969V8.76562C3.67969 10.0321 4.71005 11.0625 5.97656 11.0625C7.24308 11.0625 8.27344 10.0321 8.27344 8.76562C8.27344 8.25731 8.10736 7.78713 7.82677 7.40625Z" fill="#C0C0C0"/>
</svg>
