<svg width="20" height="20" viewBox="0 0 20 20" fill="none" xmlns="http://www.w3.org/2000/svg">
<path d="M10.0289 17.5C5.87745 17.5 2.5 14.122 2.5 9.96978C2.5 8.30586 3.03554 6.73192 4.04872 5.41809C5.02549 4.15147 6.41198 3.20933 7.95283 2.7652L8.87294 2.5L8.39349 3.32893C7.83917 4.28735 7.55807 5.30458 7.55807 6.35228C7.55807 9.70936 10.2893 12.4406 13.6464 12.4406C14.6915 12.4406 15.7095 12.1598 16.6723 11.6061L17.4998 11.1301L17.2352 12.0473C16.7909 13.5869 15.8485 14.9729 14.5813 15.9501C13.2665 16.964 11.6923 17.5 10.0289 17.5ZM7.28978 3.82663C6.26056 4.28522 5.347 4.99776 4.65958 5.88917C3.75146 7.06681 3.27143 8.47788 3.27143 9.96978C3.27143 13.6966 6.30283 16.7286 10.0289 16.7286C11.5204 16.7286 12.9317 16.2482 14.1103 15.3393C15.0025 14.6512 15.7155 13.7375 16.1743 12.7084C15.3584 13.043 14.5117 13.212 13.6464 13.212C9.86402 13.212 6.78676 10.1347 6.78676 6.35228C6.78672 5.48597 6.95554 4.63999 7.28978 3.82663Z" fill="#C0C0C0"/>
</svg>
