<svg width="22" height="22" viewBox="0 0 22 22" fill="none" xmlns="http://www.w3.org/2000/svg">
<path d="M10.9994 6.16162C8.32135 6.16162 6.16162 8.32135 6.16162 10.9994C6.16162 13.6775 8.32135 15.8372 10.9994 15.8372C13.6775 15.8372 15.8372 13.6775 15.8372 10.9994C15.8372 8.32135 13.6775 6.16162 10.9994 6.16162ZM10.9994 14.9733C8.79649 14.9733 7.02551 13.2023 7.02551 10.9994C7.02551 8.79649 8.79649 7.02551 10.9994 7.02551C13.2023 7.02551 14.9733 8.79649 14.9733 10.9994C14.9733 13.2023 13.2023 14.9733 10.9994 14.9733Z" fill="white"/>
<path d="M11.0008 5.34168C11.26 5.34168 11.4327 5.1689 11.4327 4.90973V3.18195C11.4327 2.92278 11.26 2.75 11.0008 2.75C10.7416 2.75 10.5688 2.92278 10.5688 3.18195V4.90973C10.5688 5.1257 10.7416 5.34168 11.0008 5.34168Z" fill="white"/>
<path d="M15.3201 7.11214C15.4497 7.11214 15.5361 7.06895 15.6225 6.98256L16.8751 5.72991C17.0479 5.55714 17.0479 5.29797 16.8751 5.12519C16.7024 4.95241 16.4432 4.95241 16.2704 5.12519L15.0178 6.37783C14.845 6.55061 14.845 6.80978 15.0178 6.98256C15.1042 7.06895 15.1905 7.11214 15.3201 7.11214Z" fill="white"/>
<path d="M18.8619 10.5688H17.1341C16.8749 10.5688 16.7021 10.7416 16.7021 11.0008C16.7021 11.26 16.8749 11.4327 17.1341 11.4327H18.8619C19.121 11.4327 19.2938 11.26 19.2938 11.0008C19.2938 10.7416 19.0779 10.5688 18.8619 10.5688Z" fill="white"/>
<path d="M15.6225 15.0178C15.4497 14.845 15.1905 14.845 15.0178 15.0178C14.845 15.1905 14.845 15.4497 15.0178 15.6225L16.2704 16.8751C16.3568 16.9615 16.4864 17.0047 16.5728 17.0047C16.6592 17.0047 16.7887 16.9615 16.8751 16.8751C17.0479 16.7024 17.0479 16.4432 16.8751 16.2704L15.6225 15.0178Z" fill="white"/>
<path d="M11.0008 16.6582C10.7416 16.6582 10.5688 16.831 10.5688 17.0901V18.8179C10.5688 19.0771 10.7416 19.2499 11.0008 19.2499C11.26 19.2499 11.4327 19.0771 11.4327 18.8179V17.0901C11.4327 16.8742 11.26 16.6582 11.0008 16.6582Z" fill="white"/>
<path d="M6.37783 15.0178L5.12519 16.2704C4.95241 16.4432 4.95241 16.7024 5.12519 16.8751C5.21158 16.9615 5.34116 17.0047 5.42755 17.0047C5.51394 17.0047 5.64352 16.9615 5.72991 16.8751L6.98256 15.6225C7.15534 15.4497 7.15534 15.1905 6.98256 15.0178C6.80978 14.845 6.55061 14.845 6.37783 15.0178Z" fill="white"/>
<path d="M5.34168 11.0008C5.34168 10.7416 5.1689 10.5688 4.90973 10.5688H3.18195C2.92278 10.5688 2.75 10.7416 2.75 11.0008C2.75 11.26 2.92278 11.4327 3.18195 11.4327H4.90973C5.1257 11.4327 5.34168 11.26 5.34168 11.0008Z" fill="white"/>
<path d="M6.37783 6.98256C6.46422 7.06895 6.59381 7.11214 6.6802 7.11214C6.76658 7.11214 6.89617 7.06895 6.98256 6.98256C7.15534 6.80978 7.15534 6.55061 6.98256 6.37783L5.72991 5.12519C5.55714 4.95241 5.29797 4.95241 5.12519 5.12519C4.95241 5.29797 4.95241 5.55714 5.12519 5.72991L6.37783 6.98256Z" fill="white"/>
</svg>
