<svg width="16" height="16" viewBox="0 0 16 16" fill="none" xmlns="http://www.w3.org/2000/svg">
<path d="M7.79693 0.50275C5.841 0.55564 3.9832 1.37002 2.61995 2.77212C1.2567 4.17421 0.495944 6.05299 0.500016 8.00757C0.499975 8.99147 0.693938 9.96574 1.07083 10.8748C1.44772 11.7838 2.00016 12.6098 2.6966 13.3055C3.39304 14.0012 4.21985 14.5531 5.12981 14.9297C6.03977 15.3062 7.01506 15.5 8 15.5C8.98494 15.5 9.96023 15.3062 10.8702 14.9297C11.7802 14.5531 12.607 14.0012 13.3034 13.3055C13.9998 12.6098 14.5523 11.7838 14.9292 10.8748C15.3061 9.96574 15.5 8.99147 15.5 8.00757C15.5021 7.00531 15.3028 6.01286 14.9141 5.08891C14.5253 4.16495 13.9549 3.3283 13.2366 2.62852C12.5183 1.92874 11.6668 1.38003 10.7324 1.0149C9.79808 0.64976 8.79987 0.475595 7.79693 0.50275ZM8.00002 1.19687V14.8183C6.20228 14.8024 4.48359 14.0778 3.21799 12.8023C1.95239 11.5267 1.24233 9.80349 1.24233 8.00757C1.24233 6.21165 1.95239 4.48843 3.21799 3.2129C4.48359 1.93737 6.20228 1.2128 8.00002 1.19687Z" fill="#C0C0C0"/>
</svg>
