<svg width="26" height="26" viewBox="0 0 26 26" fill="none" xmlns="http://www.w3.org/2000/svg">
<rect width="26" height="26" fill="#373737"/>
<path d="M10.0878 11.1466C10.9705 11.7695 11.8975 12.097 12.9095 12.1425C13.8845 12.1856 14.8485 12.2509 15.7743 12.5919C17.5446 13.2431 18.8717 14.4077 19.779 16.0537C19.832 16.1498 19.8332 16.3283 19.779 16.4231C18.3522 18.916 16.2064 20.2887 13.3268 20.2912C10.4473 20.2936 8.29903 18.9246 6.8685 16.4329C6.81063 16.332 6.82048 16.1461 6.87342 16.0365C7.01007 15.7607 7.18858 15.5059 7.36217 15.224C6.94975 14.894 6.53733 14.5629 6.09783 14.2108C5.6374 14.798 5.28654 15.4603 5.01077 16.1633C4.97876 16.2445 5.02431 16.3713 5.06617 16.4625C6.42284 19.4589 8.70652 21.3044 11.9579 21.8276C16.0192 22.4813 19.9674 20.2518 21.558 16.5055C21.6404 16.3098 21.6367 16.1534 21.5555 15.9626C20.0412 12.4405 16.492 10.2762 12.651 10.5507C11.788 10.6147 10.9459 10.7969 10.0878 11.1466Z" fill="white"/>
<path d="M19.2816 10.7344C19.7026 11.0717 20.1162 11.4028 20.6038 11.7931C20.9497 11.1246 21.2969 10.4684 21.6231 9.80364C21.6625 9.72239 21.6108 9.57588 21.5652 9.47616C20.2504 6.55846 18.0258 4.75121 14.8865 4.15167C10.8227 3.37485 6.67758 5.64746 5.087 9.47124C5.02668 9.61651 5.02914 9.83072 5.08946 9.97476C6.58155 13.508 10.1825 15.7006 14.0075 15.3977C14.5271 15.3571 15.0416 15.2475 15.5526 15.1392C15.8739 15.0715 16.1829 14.9484 16.5719 14.8253C16.3934 14.7046 16.274 14.6111 16.1447 14.536C15.2743 14.0349 14.3313 13.8084 13.3304 13.7838C10.4767 13.7148 8.34448 12.4197 6.89179 9.97353C6.77853 9.78148 6.78222 9.64236 6.89425 9.45401C8.46759 6.82192 10.7845 5.48741 13.845 5.68069C16.5165 5.84935 18.4924 7.23187 19.7986 9.56603C19.8442 9.64605 19.8355 9.79502 19.7912 9.87997C19.6386 10.1705 19.4564 10.4463 19.2816 10.7344Z" fill="white"/>
</svg>
