<svg width="32" height="32" viewBox="0 0 32 32" fill="none" xmlns="http://www.w3.org/2000/svg">
<path fill-rule="evenodd" clip-rule="evenodd" d="M5.16797 12.5307C5.16797 10.6886 6.66126 9.19531 8.50333 9.19531H23.4961C25.3382 9.19531 26.8315 10.6886 26.8315 12.5307V20.5501C26.8315 22.3921 25.3382 23.8854 23.4961 23.8854H8.50333C6.66126 23.8854 5.16797 22.3921 5.16797 20.5501V12.5307ZM8.50333 8.19531C6.10898 8.19531 4.16797 10.1363 4.16797 12.5307V20.5501C4.16797 22.9444 6.10898 24.8854 8.50333 24.8854H23.4961C25.8905 24.8854 27.8315 22.9444 27.8315 20.5501V12.5307C27.8315 10.1363 25.8905 8.19531 23.4961 8.19531H8.50333ZM19.4145 16.1763C19.3476 16.0668 19.2517 15.9779 19.1375 15.9194L16.9583 14.7967L14.5734 13.5694C14.4671 13.5151 14.3487 13.4889 14.2294 13.4935C14.1102 13.4981 13.9941 13.5332 13.8923 13.5955C13.7904 13.6578 13.7063 13.7451 13.6479 13.8492C13.5895 13.9533 13.5589 14.0707 13.5588 14.19V18.8901C13.5594 19.0091 13.5906 19.126 13.6492 19.2296C13.7078 19.3333 13.792 19.4202 13.8937 19.482C13.9955 19.5439 14.1113 19.5787 14.2303 19.5831C14.3493 19.5875 14.4674 19.5614 14.5734 19.5072L16.9583 18.2834L19.1375 17.1607C19.2517 17.1021 19.3476 17.0132 19.4145 16.9037C19.4815 16.7942 19.5169 16.6684 19.5169 16.54C19.5169 16.4117 19.4815 16.2858 19.4145 16.1763Z" fill="#C0C0C0"/>
</svg>
