<svg width="20" height="20" viewBox="0 0 20 20" fill="none" xmlns="http://www.w3.org/2000/svg">
<path fill-rule="evenodd" clip-rule="evenodd" d="M4.39304 4.16797H15.6044C16.2056 4.16797 16.6654 4.62774 16.6654 5.22898V12.9743C16.6654 13.5756 16.2056 14.0354 15.6044 14.0354H14.5787V16.6879C14.5787 16.8293 14.508 16.9354 14.3665 17.0062C14.3312 17.0415 14.2604 17.0416 14.2251 17.0416C14.119 17.0416 14.0482 17.0062 13.9775 16.9354L11.0774 14.0354H4.39304C3.7918 14.0354 3.33203 13.5756 3.33203 12.9743V5.22898C3.33203 4.62774 3.7918 4.16797 4.39304 4.16797ZM15.6044 13.2927C15.8166 13.2927 15.958 13.1512 15.958 12.939V5.22898C15.958 5.01678 15.8166 4.87531 15.6044 4.87531H4.39304C4.18084 4.87531 4.03937 5.01678 4.03937 5.22898V12.939C4.03937 13.1512 4.18084 13.2927 4.39304 13.2927H11.2542C11.3603 13.2927 11.4311 13.328 11.5018 13.3988L13.9068 15.8037V13.6463C13.9068 13.4341 14.0482 13.2927 14.2604 13.2927H15.6044ZM5.87853 9.11934C5.87853 8.55346 6.3383 8.12906 6.8688 8.12906C7.39931 8.12906 7.85908 8.55346 7.85908 9.11934C7.85908 9.68521 7.39931 10.1096 6.8688 10.1096C6.30293 10.1096 5.87853 9.64984 5.87853 9.11934ZM6.40903 9.08397C6.40903 9.33154 6.62123 9.54374 6.8688 9.54374C7.11637 9.54374 7.32857 9.33154 7.32857 9.08397C7.32857 8.8364 7.11637 8.6242 6.8688 8.6242C6.62123 8.6242 6.40903 8.8364 6.40903 9.08397ZM10.0176 8.12891C9.48711 8.12891 9.02734 8.55331 9.02734 9.11918C9.02734 9.64969 9.45175 10.1095 10.0176 10.1095C10.5481 10.1095 11.0079 9.68505 11.0079 9.11918C10.9725 8.55331 10.5481 8.12891 10.0176 8.12891ZM10.0176 9.54359C9.77005 9.54359 9.55785 9.33138 9.55785 9.08382C9.55785 8.83625 9.77005 8.62404 10.0176 8.62404C10.2652 8.62404 10.4774 8.83625 10.4774 9.08382C10.442 9.33138 10.2652 9.54359 10.0176 9.54359ZM12.1367 9.11918C12.1367 8.55331 12.5965 8.12891 13.127 8.12891C13.6575 8.12891 14.1173 8.55331 14.1173 9.11918C14.1173 9.68505 13.6575 10.1095 13.127 10.1095C12.5611 10.1095 12.1367 9.64969 12.1367 9.11918ZM12.6672 9.08382C12.6672 9.33138 12.8794 9.54359 13.127 9.54359C13.3746 9.54359 13.5868 9.33138 13.5868 9.08382C13.5868 8.83625 13.3746 8.62404 13.127 8.62404C12.8794 8.62404 12.6672 8.83625 12.6672 9.08382Z" fill="#C0C0C0"/>
</svg>
