<svg width="20" height="20" viewBox="0 0 20 20" fill="none" xmlns="http://www.w3.org/2000/svg">
<path d="M4.10212 5.83203C3.67763 5.83203 3.33203 6.15854 3.33203 6.55854V13.2524C3.33203 13.6524 3.67763 13.9789 4.10212 13.9789H15.8953C16.3198 13.9789 16.6654 13.6551 16.6654 13.2524V6.55854C16.6654 6.15854 16.3198 5.83203 15.8953 5.83203H4.10212ZM4.10212 6.4987H15.8953C15.9606 6.4987 15.9987 6.53677 15.9987 6.55854V13.2524C15.9987 13.2769 15.9579 13.3123 15.8953 13.3123H4.10212C4.03954 13.3123 3.9987 13.2769 3.9987 13.2524V6.55854C3.9987 6.53405 4.03954 6.4987 4.10212 6.4987ZM5.73477 7.72319C5.62436 7.72318 5.51846 7.76704 5.44038 7.84511C5.3623 7.92318 5.31843 8.02907 5.31843 8.13948C5.31842 8.19416 5.32919 8.2483 5.35011 8.29881C5.37103 8.34933 5.4017 8.39523 5.44036 8.43389C5.47903 8.47255 5.52493 8.50322 5.57544 8.52414C5.62596 8.54506 5.6801 8.55583 5.73477 8.55583C5.84519 8.55582 5.95108 8.51195 6.02915 8.43387C6.10722 8.35579 6.15107 8.2499 6.15107 8.13948C6.15106 8.02908 6.1072 7.9232 6.02913 7.84513C5.95106 7.76706 5.84518 7.7232 5.73477 7.72319ZM7.44087 7.72319C7.33046 7.72318 7.22456 7.76704 7.14648 7.84511C7.0684 7.92318 7.02454 8.02907 7.02453 8.13948C7.02452 8.19416 7.03529 8.2483 7.05621 8.29881C7.07714 8.34933 7.1078 8.39523 7.14647 8.43389C7.18513 8.47255 7.23103 8.50322 7.28154 8.52414C7.33206 8.54506 7.3862 8.55583 7.44087 8.55583C7.49555 8.55583 7.54969 8.54506 7.60021 8.52414C7.65072 8.50322 7.69662 8.47255 7.73528 8.43389C7.77395 8.39523 7.80461 8.34933 7.82554 8.29881C7.84646 8.2483 7.85722 8.19416 7.85722 8.13948C7.85721 8.02907 7.81334 7.92318 7.73526 7.84511C7.65718 7.76704 7.55129 7.72318 7.44087 7.72319ZM9.14427 7.72319C9.03386 7.7232 8.92798 7.76706 8.84991 7.84513C8.77184 7.9232 8.72798 8.02908 8.72797 8.13948C8.72796 8.2499 8.77182 8.35579 8.84989 8.43387C8.92796 8.51195 9.03385 8.55582 9.14427 8.55583C9.19894 8.55583 9.25308 8.54506 9.3036 8.52414C9.35411 8.50322 9.40001 8.47255 9.43867 8.43389C9.47734 8.39523 9.508 8.34933 9.52893 8.29881C9.54985 8.2483 9.56062 8.19416 9.56061 8.13948C9.5606 8.02907 9.51673 7.92318 9.43865 7.84511C9.36057 7.76704 9.25468 7.72318 9.14427 7.72319ZM10.8504 7.72319C10.74 7.72318 10.6341 7.76704 10.556 7.84511C10.4779 7.92318 10.4341 8.02907 10.4341 8.13948C10.4341 8.19416 10.4448 8.2483 10.4658 8.29881C10.4867 8.34933 10.5173 8.39523 10.556 8.43389C10.5947 8.47255 10.6406 8.50322 10.6911 8.52414C10.7416 8.54506 10.7957 8.55583 10.8504 8.55583C10.9608 8.55582 11.0667 8.51195 11.1448 8.43387C11.2229 8.35579 11.2667 8.2499 11.2667 8.13948C11.2667 8.02908 11.2228 7.9232 11.1448 7.84513C11.0667 7.76706 10.9608 7.7232 10.8504 7.72319ZM12.5565 7.72319C12.4461 7.72318 12.3402 7.76704 12.2621 7.84511C12.1841 7.92318 12.1402 8.02907 12.1402 8.13948C12.1402 8.19416 12.1509 8.2483 12.1719 8.29881C12.1928 8.34933 12.2234 8.39523 12.2621 8.43389C12.3008 8.47255 12.3467 8.50322 12.3972 8.52414C12.4477 8.54506 12.5018 8.55583 12.5565 8.55583C12.6112 8.55583 12.6653 8.54506 12.7159 8.52414C12.7664 8.50322 12.8123 8.47255 12.8509 8.43389C12.8896 8.39523 12.9203 8.34933 12.9412 8.29881C12.9621 8.2483 12.9729 8.19416 12.9729 8.13948C12.9729 8.02907 12.929 7.92318 12.8509 7.84511C12.7728 7.76704 12.6669 7.72318 12.5565 7.72319ZM14.2626 7.72319C14.1522 7.7232 14.0463 7.76706 13.9683 7.84513C13.8902 7.9232 13.8463 8.02908 13.8463 8.13948C13.8463 8.2499 13.8902 8.35579 13.9682 8.43387C14.0463 8.51195 14.1522 8.55582 14.2626 8.55583C14.3173 8.55583 14.3714 8.54506 14.422 8.52414C14.4725 8.50322 14.5184 8.47255 14.557 8.43389C14.5957 8.39523 14.6264 8.34933 14.6473 8.29881C14.6682 8.2483 14.679 8.19416 14.679 8.13948C14.679 8.02907 14.6351 7.92318 14.557 7.84511C14.4789 7.76704 14.373 7.72318 14.2626 7.72319ZM6.58915 9.48913C6.47874 9.48914 6.37285 9.53301 6.29478 9.61109C6.21671 9.68917 6.17285 9.79506 6.17286 9.90548C6.17285 10.0159 6.21671 10.1218 6.29478 10.1999C6.37285 10.2779 6.47874 10.3218 6.58915 10.3218C6.64383 10.3218 6.69797 10.3111 6.74849 10.2901C6.799 10.2692 6.8449 10.2385 6.88356 10.1999C6.92222 10.1612 6.95289 10.1153 6.97381 10.0648C6.99474 10.0143 7.0055 9.96016 7.0055 9.90548C7.0055 9.8508 6.99474 9.79666 6.97381 9.74615C6.95289 9.69563 6.92222 9.64973 6.88356 9.61107C6.8449 9.57241 6.799 9.54174 6.74849 9.52082C6.69797 9.4999 6.64383 9.48913 6.58915 9.48913ZM8.2926 9.48913C8.23792 9.48913 8.18378 9.4999 8.13326 9.52082C8.08275 9.54174 8.03685 9.57241 7.99819 9.61107C7.95953 9.64973 7.92886 9.69563 7.90794 9.74615C7.88701 9.79666 7.87625 9.8508 7.87625 9.90548C7.87625 9.96016 7.88701 10.0143 7.90794 10.0648C7.92886 10.1153 7.95953 10.1612 7.99819 10.1999C8.03685 10.2385 8.08275 10.2692 8.13326 10.2901C8.18378 10.3111 8.23792 10.3218 8.2926 10.3218C8.40301 10.3218 8.5089 10.2779 8.58697 10.1999C8.66504 10.1218 8.7089 10.0159 8.70889 9.90548C8.7089 9.79506 8.66504 9.68917 8.58697 9.61109C8.5089 9.53301 8.40301 9.48914 8.2926 9.48913ZM9.9987 9.48913C9.94402 9.48913 9.88988 9.4999 9.83936 9.52082C9.78885 9.54174 9.74295 9.57241 9.70429 9.61107C9.66563 9.64973 9.63496 9.69563 9.61404 9.74615C9.59311 9.79666 9.58235 9.8508 9.58235 9.90548C9.58235 9.96016 9.59311 10.0143 9.61404 10.0648C9.63496 10.1153 9.66563 10.1612 9.70429 10.1999C9.74295 10.2385 9.78885 10.2692 9.83936 10.2901C9.88988 10.3111 9.94402 10.3218 9.9987 10.3218C10.0534 10.3218 10.1075 10.3111 10.158 10.2901C10.2085 10.2692 10.2544 10.2385 10.2931 10.1999C10.3318 10.1612 10.3624 10.1153 10.3834 10.0648C10.4043 10.0143 10.415 9.96016 10.415 9.90548C10.415 9.8508 10.4043 9.79666 10.3834 9.74615C10.3624 9.69563 10.3318 9.64973 10.2931 9.61107C10.2544 9.57241 10.2085 9.54174 10.158 9.52082C10.1075 9.4999 10.0534 9.48913 9.9987 9.48913ZM11.7021 9.48913C11.5917 9.48914 11.4858 9.53301 11.4077 9.61109C11.3296 9.68917 11.2858 9.79506 11.2858 9.90548C11.2858 10.0159 11.3296 10.1218 11.4077 10.1999C11.4858 10.2779 11.5917 10.3218 11.7021 10.3218C11.7568 10.3218 11.8109 10.3111 11.8614 10.2901C11.9119 10.2692 11.9578 10.2385 11.9965 10.1999C12.0352 10.1612 12.0658 10.1153 12.0867 10.0648C12.1077 10.0143 12.1184 9.96016 12.1184 9.90548C12.1184 9.8508 12.1077 9.79666 12.0867 9.74615C12.0658 9.69563 12.0352 9.64973 11.9965 9.61107C11.9578 9.57241 11.9119 9.54174 11.8614 9.52082C11.8109 9.4999 11.7568 9.48913 11.7021 9.48913ZM13.4082 9.48913C13.1769 9.48913 12.9919 9.67691 12.9919 9.90548C12.9919 10.1368 13.1797 10.3218 13.4082 10.3218C13.6395 10.3218 13.8245 10.134 13.8245 9.90548C13.8245 9.67419 13.6395 9.48913 13.4082 9.48913ZM7.02453 11.3395C6.83949 11.3395 6.68986 11.4892 6.68986 11.6742C6.68986 11.8592 6.83949 12.0089 7.02453 12.0089H12.9729C13.1579 12.0089 13.3075 11.8592 13.3075 11.6742C13.3075 11.4892 13.1579 11.3395 12.9729 11.3395H7.02453Z" fill="white"/>
</svg>
