<svg width="20" height="20" viewBox="0 0 20 20" fill="none" xmlns="http://www.w3.org/2000/svg">
<path d="M11.2757 5.25672C11.2757 5.30844 11.2708 5.36016 11.2676 5.4135C11.2612 5.5121 11.2805 5.35693 11.266 5.4329C11.2628 5.45068 11.2595 5.47007 11.2563 5.48785C11.2401 5.56705 11.2191 5.64464 11.19 5.72061C11.1852 5.73354 11.1803 5.76263 11.1706 5.77233C11.2062 5.73839 11.19 5.72707 11.1723 5.76425C11.1561 5.79981 11.1383 5.83537 11.1189 5.87093C11.1011 5.90164 11.0834 5.93397 11.064 5.96306C11.0559 5.97437 11.0478 5.9873 11.0397 5.99862C11.0316 6.00993 11.0236 6.02286 11.0155 6.03418C10.9945 6.06166 10.9993 6.05681 11.0268 6.01963C11.0187 6.04711 10.9767 6.08105 10.9573 6.10207C10.933 6.12793 10.9088 6.15379 10.8829 6.17965C10.8571 6.2039 10.8312 6.22814 10.8037 6.25239C10.8021 6.254 10.7763 6.27986 10.7698 6.27986C10.807 6.25077 10.8118 6.24754 10.7843 6.26855C10.773 6.27663 10.7617 6.28471 10.7488 6.29279C10.689 6.3332 10.6275 6.37038 10.5645 6.40432C10.5483 6.4124 10.5322 6.42049 10.516 6.42857C10.4902 6.4415 10.4675 6.46736 10.5241 6.42695C10.4934 6.44958 10.4352 6.4609 10.4013 6.47221C10.3301 6.49484 10.259 6.51262 10.1863 6.52393C10.1782 6.52555 10.1717 6.52555 10.1637 6.52717C10.1281 6.53201 10.1346 6.53201 10.1831 6.52393C10.1782 6.52717 10.1394 6.52878 10.1378 6.52878C10.0925 6.53201 10.0457 6.53525 10.0004 6.53525C9.96162 6.53525 9.92444 6.53363 9.88565 6.5304C9.87433 6.5304 9.82584 6.53201 9.81776 6.52393C9.81938 6.52555 9.89858 6.53686 9.83716 6.52717C9.75634 6.51262 9.67714 6.49645 9.59956 6.47059C9.564 6.45928 9.53005 6.44635 9.49611 6.43342C9.42499 6.40756 9.56238 6.46413 9.49288 6.4318C9.47995 6.42534 9.46702 6.41887 9.45409 6.4124C9.38297 6.37685 9.31508 6.33644 9.25043 6.29118C9.23588 6.28148 9.2084 6.26693 9.1987 6.254C9.23588 6.30573 9.22942 6.27825 9.20517 6.25724C9.17769 6.23299 9.15183 6.21036 9.12435 6.18612C9.09526 6.15864 9.06778 6.13116 9.04192 6.10207C9.03222 6.09075 9.02252 6.08105 9.01283 6.06974C9.00636 6.06166 8.95302 5.99215 8.98373 6.0358C9.01444 6.08105 8.97403 6.02125 8.9708 6.0164C8.95787 5.99862 8.94656 5.98084 8.93524 5.96306C8.91585 5.93235 8.89645 5.90164 8.88029 5.87093C8.86251 5.8386 8.84634 5.80789 8.83018 5.77395C8.82856 5.7691 8.8124 5.74162 8.8124 5.73515C8.83018 5.7788 8.83341 5.78526 8.82048 5.75132C8.81563 5.73839 8.81078 5.72384 8.80594 5.71091C8.78169 5.64141 8.76068 5.57029 8.74613 5.49917C8.74128 5.47977 8.71704 5.36339 8.73482 5.44421C8.72189 5.38602 8.7235 5.31652 8.7235 5.25672C8.7235 5.21954 8.72512 5.18236 8.72673 5.14357C8.72835 5.12579 8.72997 5.10639 8.73158 5.08861C8.73805 5.02234 8.72027 5.09023 8.72997 5.09831C8.7235 5.09346 8.74775 5.00133 8.75098 4.99163C8.76068 4.94961 8.77199 4.90758 8.78492 4.86556C8.79624 4.83162 8.80755 4.79767 8.82048 4.76373C8.84634 4.69261 8.78816 4.83 8.82048 4.76211C8.82695 4.74918 8.8318 4.73625 8.83826 4.72332C8.8722 4.65382 8.911 4.58593 8.95464 4.52128C8.96595 4.5035 8.97888 4.48733 8.99181 4.46955C9.01929 4.43076 8.97888 4.47925 8.9805 4.4841C8.97727 4.47117 9.03707 4.41621 9.04839 4.4049C9.10011 4.34833 9.1583 4.2966 9.21648 4.2465C9.27144 4.19801 9.15668 4.28852 9.2181 4.24488C9.22942 4.2368 9.24073 4.22872 9.25204 4.22064C9.28437 4.19801 9.3167 4.17699 9.34902 4.1576C9.37973 4.13982 9.41045 4.12204 9.44116 4.10587C9.45732 4.09779 9.47348 4.08971 9.48965 4.08325C9.50258 4.07678 9.51551 4.07193 9.52844 4.06547C9.48641 4.08325 9.47833 4.08648 9.50096 4.0784C9.5737 4.05738 9.6432 4.02829 9.71593 4.01051C9.75149 4.00243 9.78705 3.99596 9.82261 3.9895C9.86625 3.98142 9.81938 3.97818 9.8016 3.99111C9.81615 3.9798 9.8711 3.98303 9.8905 3.98303C9.96485 3.97818 10.0408 3.97818 10.1152 3.98303C10.1297 3.98465 10.1443 3.98465 10.1588 3.98626C10.1863 3.9895 10.2396 4.01051 10.1604 3.98626C10.2008 3.9992 10.2477 4.00081 10.2897 4.01213C10.3318 4.02182 10.3738 4.03314 10.4142 4.04769C10.4271 4.05254 10.4417 4.05738 10.4546 4.06223C10.4675 4.06708 10.4821 4.07193 10.495 4.07678C10.5273 4.08971 10.5209 4.08648 10.4772 4.0687C10.4966 4.06223 10.5645 4.11072 10.5823 4.11881C10.6195 4.1382 10.6566 4.15921 10.6922 4.18184C10.7245 4.20286 10.7569 4.22548 10.7876 4.2465C10.8474 4.28852 10.7326 4.19962 10.7892 4.24811C10.8053 4.26266 10.8215 4.27559 10.8377 4.28852C10.9007 4.34509 10.9573 4.40652 11.0122 4.46955C11.0607 4.52451 10.9702 4.40975 11.0139 4.47117C11.0252 4.48895 11.0381 4.50511 11.051 4.52289C11.0753 4.55845 11.0963 4.59401 11.1173 4.63119C11.1383 4.66836 11.1577 4.70554 11.1755 4.74433C11.1803 4.75241 11.1981 4.81545 11.1852 4.76373C11.1706 4.71201 11.1965 4.79444 11.1997 4.80414C11.2288 4.88495 11.2515 4.969 11.266 5.05467C11.2692 5.0676 11.2692 5.08538 11.2725 5.09831C11.245 5.01103 11.2708 5.09346 11.2741 5.12256C11.2741 5.16782 11.2757 5.21307 11.2757 5.25672C11.2773 5.42643 11.4228 5.58807 11.599 5.57998C11.7735 5.5719 11.9238 5.43775 11.9222 5.25672C11.9174 4.45501 11.4212 3.75513 10.6825 3.45933C9.96808 3.17324 9.10334 3.38337 8.58611 3.94909C8.02848 4.56007 7.91533 5.47331 8.31942 6.19743C8.50206 6.52393 8.78977 6.80518 9.12597 6.97166C9.50581 7.15916 9.91636 7.21573 10.3334 7.14946C10.7488 7.08481 11.1496 6.8569 11.4276 6.54333C11.7428 6.18612 11.9174 5.73354 11.9222 5.25672C11.9238 5.087 11.7719 4.92536 11.599 4.93345C11.4228 4.94153 11.2789 5.07568 11.2757 5.25672Z" fill="#C0C0C0"/>
<path d="M16.0219 9.99129C16.0219 10.0333 16.0203 10.0737 16.017 10.1141C16.0154 10.1319 16.0138 10.1513 16.0122 10.1691C16.0057 10.2434 16.0219 10.1125 16.0138 10.1594C15.9976 10.2386 15.9831 10.3146 15.9588 10.3921C15.954 10.4067 15.933 10.4988 15.9184 10.5037C15.9184 10.5037 15.9524 10.4293 15.9265 10.4859C15.9168 10.5053 15.9087 10.5247 15.899 10.5441C15.8651 10.6136 15.8247 10.6799 15.781 10.7445C15.7729 10.7558 15.7649 10.7671 15.7568 10.7784C15.7148 10.8383 15.8037 10.7235 15.7552 10.7801C15.7325 10.8059 15.7099 10.8334 15.6857 10.8593C15.6614 10.8851 15.6372 10.9094 15.6113 10.9336C15.5984 10.9449 15.5305 11.0193 15.516 11.0161C15.5289 11.0193 15.5725 10.9756 15.5224 11.0096C15.5079 11.0193 15.4933 11.0306 15.4788 11.0403C15.4497 11.0597 15.4206 11.0791 15.3899 11.0969C15.3592 11.1146 15.3285 11.1308 15.2961 11.147C15.2767 11.1567 15.2573 11.1648 15.2379 11.1745C15.1701 11.2068 15.3058 11.1502 15.2363 11.1745C15.1684 11.1987 15.1005 11.2213 15.031 11.2391C14.9955 11.2472 14.9599 11.2537 14.9244 11.2601C14.8484 11.2747 15.0003 11.2537 14.9227 11.2601C14.9001 11.2617 14.8791 11.265 14.8565 11.2666C14.766 11.2731 14.6787 11.265 14.5882 11.2634C14.5348 11.2617 14.6544 11.2763 14.5817 11.2634C14.5591 11.2601 14.5381 11.2553 14.5154 11.252C14.475 11.244 14.4362 11.2343 14.3974 11.2246C14.3586 11.2132 14.3199 11.2019 14.2827 11.1874C14.2697 11.1825 14.2552 11.1777 14.2423 11.1712C14.1711 11.1437 14.3069 11.2035 14.239 11.1696C14.1679 11.134 14.0984 11.0985 14.0321 11.0548C14.0095 11.0403 13.9578 11.0161 13.9449 10.9934C13.961 11.0225 13.9869 11.029 13.9594 11.0047C13.9432 10.9902 13.9271 10.9773 13.9109 10.9627C13.8527 10.911 13.7978 10.8544 13.7477 10.7946C13.7444 10.7898 13.6976 10.7364 13.7331 10.7768C13.7671 10.8172 13.7234 10.7639 13.7202 10.7574C13.6992 10.7283 13.6798 10.6992 13.6604 10.6685C13.641 10.6378 13.6232 10.6071 13.607 10.5748C13.5973 10.5554 13.5876 10.536 13.5779 10.5166C13.5731 10.5069 13.5682 10.4972 13.565 10.4875C13.5553 10.4649 13.5586 10.4746 13.5763 10.515C13.5569 10.4924 13.5489 10.4422 13.5392 10.4132C13.5278 10.3792 13.5165 10.3437 13.5084 10.3081C13.4987 10.2725 13.4907 10.237 13.4842 10.1998C13.481 10.1804 13.4713 10.1529 13.4729 10.1335C13.4648 10.2143 13.4761 10.1578 13.4745 10.1303C13.468 10.0495 13.4664 9.97027 13.4729 9.88946C13.4745 9.87006 13.4761 9.85066 13.4777 9.83288C13.4826 9.75368 13.4632 9.90562 13.4777 9.82804C13.4858 9.78763 13.4923 9.74722 13.502 9.70681C13.5117 9.6664 13.523 9.62761 13.5343 9.58882C13.5424 9.56619 13.5521 9.4983 13.5715 9.48537C13.5682 9.48699 13.5392 9.55811 13.565 9.50153C13.5747 9.48214 13.5828 9.46112 13.5925 9.44173C13.6119 9.40294 13.6329 9.36414 13.6555 9.32697C13.6749 9.29626 13.6943 9.26555 13.7153 9.23645C13.717 9.23484 13.7347 9.20413 13.7412 9.20089C13.7331 9.21059 13.725 9.2219 13.717 9.2316C13.7267 9.22029 13.7347 9.20897 13.7444 9.19766C13.7945 9.13624 13.8495 9.07967 13.9093 9.02633C13.9222 9.01501 13.9368 9.00208 13.9497 8.99077C13.9691 8.9746 13.9917 8.93904 13.9432 8.994C13.9643 8.96975 14.0047 8.94874 14.0321 8.93096C14.0984 8.88732 14.1695 8.85014 14.2406 8.81459C14.3085 8.78064 14.1728 8.83883 14.2439 8.81297C14.2568 8.80812 14.2714 8.80165 14.2843 8.79681C14.3182 8.78387 14.3538 8.77256 14.3894 8.76286C14.4249 8.75316 14.4605 8.74347 14.4976 8.73538C14.5203 8.73053 14.5413 8.72569 14.5639 8.72245C14.593 8.7176 14.627 8.71599 14.5785 8.72084C14.669 8.71437 14.7595 8.70952 14.85 8.71437C14.8678 8.71599 14.8872 8.7176 14.905 8.71922C14.9131 8.71922 14.9195 8.72084 14.9276 8.72084C14.9632 8.72569 14.9567 8.72407 14.9066 8.7176C14.9131 8.70791 15.0116 8.737 15.0246 8.74023C15.0666 8.74993 15.1086 8.76125 15.149 8.77418C15.1652 8.77903 15.2557 8.79842 15.2606 8.81459C15.2476 8.80974 15.2347 8.80327 15.2234 8.79842C15.2363 8.80489 15.2493 8.80974 15.2622 8.8162C15.2816 8.8259 15.301 8.83398 15.3188 8.84368C15.3559 8.86308 15.3931 8.88409 15.4287 8.90672C15.4642 8.92935 15.4982 8.95359 15.5337 8.97784C15.5935 9.01986 15.4788 8.93096 15.5353 8.97945C15.5515 8.994 15.5677 9.00693 15.5838 9.01986C15.6469 9.07643 15.7034 9.13785 15.7584 9.20089C15.8053 9.25423 15.7277 9.15563 15.7536 9.19281C15.7665 9.21382 15.7826 9.23322 15.7956 9.25262C15.8198 9.28817 15.8408 9.32373 15.8618 9.36091C15.8829 9.39809 15.9023 9.43526 15.92 9.47406C15.92 9.47406 15.9394 9.50961 15.9378 9.51285C15.92 9.46759 15.9168 9.46274 15.9297 9.49507C15.9346 9.508 15.9394 9.52255 15.9443 9.53548C15.9734 9.61629 15.996 9.70034 16.0106 9.78601C16.0138 9.79894 16.0138 9.81672 16.017 9.82965C15.9912 9.74722 16.0154 9.81349 16.017 9.84258C16.0203 9.89431 16.0219 9.9428 16.0219 9.99129C16.0235 10.161 16.169 10.3226 16.3451 10.3146C16.5197 10.3065 16.67 10.1723 16.6684 9.99129C16.6636 9.18311 16.1576 8.47677 15.4093 8.18583C14.6706 7.89973 13.7671 8.14218 13.2692 8.75801C13.0074 9.08128 12.8538 9.45951 12.8247 9.87491C12.7972 10.2612 12.8991 10.6637 13.1011 10.9918C13.5343 11.6949 14.3764 12.044 15.1814 11.863C16.0461 11.6691 16.6619 10.8657 16.6684 9.98967C16.67 9.81995 16.5181 9.65832 16.3451 9.6664C16.169 9.6761 16.0235 9.81026 16.0219 9.99129Z" fill="#C0C0C0"/>
<path d="M11.2788 14.7443C11.2788 14.7815 11.2772 14.8187 11.2755 14.8574C11.2739 14.8801 11.2723 14.9011 11.2691 14.9237C11.2626 14.9981 11.2788 14.8671 11.2707 14.914C11.2545 14.9932 11.24 15.0692 11.2157 15.1468C11.2044 15.1807 11.1899 15.213 11.1802 15.247C11.1672 15.2906 11.2141 15.1742 11.1834 15.2389C11.1737 15.2583 11.1656 15.2777 11.1559 15.2971C11.122 15.3666 11.0816 15.4329 11.0379 15.4975C11.0299 15.5088 11.0218 15.5201 11.0137 15.5315C10.9717 15.5913 11.0606 15.4765 11.0121 15.5331C10.9894 15.5589 10.9668 15.5864 10.9426 15.6123C10.9183 15.6381 10.8941 15.6624 10.8682 15.6866C10.8537 15.7012 10.789 15.7723 10.7729 15.7691C10.7793 15.7707 10.8278 15.7287 10.7874 15.7577C10.7696 15.7707 10.7535 15.782 10.7357 15.7949C10.7066 15.8143 10.6775 15.8337 10.6468 15.8515C10.6161 15.8693 10.5854 15.8854 10.553 15.9016C10.5369 15.9097 10.5207 15.9161 10.5045 15.9242C10.4302 15.9598 10.5546 15.9064 10.4932 15.9291C10.4253 15.9533 10.3575 15.9759 10.2879 15.9937C10.2524 16.0018 10.2168 16.0083 10.1813 16.0147C10.1053 16.0293 10.2572 16.0083 10.1797 16.0147C10.157 16.0164 10.136 16.0196 10.1134 16.0212C10.039 16.0261 9.96306 16.0261 9.88871 16.0212C9.86608 16.0196 9.84507 16.018 9.82244 16.0147C9.75778 16.0083 9.84345 16.018 9.84345 16.018C9.83698 16.0277 9.73354 15.997 9.71414 15.9921C9.64464 15.9759 9.57675 15.9517 9.50886 15.9275C9.43774 15.9032 9.57513 15.9598 9.50725 15.9275C9.49108 15.9194 9.47492 15.9129 9.45876 15.9048C9.4232 15.8871 9.38925 15.8693 9.35693 15.8499C9.32298 15.8305 9.29066 15.8095 9.25833 15.7868C9.24378 15.7771 9.22924 15.7658 9.21469 15.7561C9.1565 15.7157 9.2551 15.7933 9.22115 15.761C9.1662 15.7076 9.10478 15.6608 9.05305 15.6026C9.04335 15.5913 8.97385 15.5266 8.97708 15.5153C8.97708 15.5153 9.02396 15.5799 8.9884 15.5298C8.97547 15.5121 8.96415 15.4959 8.95122 15.4781C8.90758 15.4135 8.86879 15.3472 8.83484 15.2761C8.82838 15.2631 8.82353 15.2502 8.81707 15.2373C8.78474 15.1694 8.84131 15.3068 8.81707 15.2357C8.80575 15.2017 8.79282 15.1694 8.78151 15.1338C8.77019 15.0999 8.76049 15.0643 8.75241 15.0304C8.74918 15.0158 8.71847 14.9092 8.72655 14.9011C8.72332 14.9027 8.73463 14.9722 8.72978 14.9221C8.72817 14.8995 8.72493 14.8785 8.72332 14.8558C8.72008 14.8187 8.72008 14.7815 8.72008 14.7427C8.72008 14.6926 8.72493 14.6441 8.72655 14.5956C8.7314 14.5019 8.71523 14.6473 8.72817 14.573C8.7314 14.5503 8.73625 14.5293 8.73948 14.5067C8.75403 14.434 8.77342 14.3628 8.79929 14.2933C8.80413 14.282 8.81222 14.24 8.82191 14.2319C8.81868 14.2335 8.78959 14.3047 8.81545 14.2497C8.83484 14.2109 8.85262 14.1705 8.87364 14.1333C8.89142 14.101 8.9092 14.0703 8.92859 14.0412C8.94152 14.0218 8.969 13.962 8.99001 13.9523C8.98193 13.962 8.97385 13.9733 8.96577 13.983C8.97385 13.9717 8.98355 13.9604 8.99325 13.9491C9.00295 13.9378 9.01103 13.9264 9.02073 13.9167C9.04982 13.8844 9.07891 13.8537 9.10962 13.823C9.13549 13.7988 9.16135 13.7745 9.18883 13.7503C9.20822 13.7325 9.23893 13.6872 9.19044 13.747C9.20014 13.7341 9.22115 13.7244 9.23408 13.7147C9.29874 13.6694 9.36663 13.6274 9.43775 13.5919C9.45391 13.5838 9.47007 13.5757 9.48624 13.5676C9.55089 13.5353 9.43451 13.587 9.47977 13.5692C9.51695 13.5547 9.55412 13.5401 9.59292 13.5288C9.6705 13.5046 9.7497 13.4868 9.83052 13.4723C9.87254 13.4642 9.83052 13.4593 9.81112 13.4755C9.82082 13.4674 9.86608 13.4706 9.87901 13.469C9.9178 13.4658 9.95498 13.4642 9.99377 13.4642C10.0326 13.4642 10.0697 13.4658 10.1085 13.469C10.1231 13.4706 10.1392 13.4723 10.1538 13.4723C10.1894 13.4771 10.1845 13.4755 10.136 13.469C10.1506 13.4706 10.1651 13.4739 10.1813 13.4755C10.2686 13.49 10.3542 13.5127 10.4383 13.5418C10.4528 13.5466 10.4657 13.5515 10.4787 13.5563C10.4916 13.5611 10.5062 13.5676 10.5191 13.5725C10.4787 13.5547 10.469 13.5515 10.4916 13.5611C10.5304 13.5805 10.5692 13.5983 10.608 13.6193C10.6419 13.6387 10.6759 13.6597 10.7098 13.6808C10.7276 13.6921 10.7454 13.705 10.7632 13.7179C10.7745 13.726 10.7858 13.7341 10.7971 13.7438C10.7874 13.7357 10.7761 13.7276 10.7664 13.7196C10.7922 13.7212 10.844 13.7858 10.8634 13.8036C10.8941 13.8327 10.9248 13.8634 10.9539 13.8957C10.9684 13.9119 10.983 13.9281 10.9959 13.9442C11.0008 13.9491 11.0056 13.9555 11.0088 13.9604C11.0299 13.9879 11.0266 13.983 10.9975 13.9458C11.0218 13.9572 11.0557 14.0299 11.0703 14.0525C11.0929 14.0897 11.1155 14.1269 11.1349 14.1657C11.143 14.1818 11.1511 14.198 11.1592 14.2141C11.1721 14.24 11.1818 14.3063 11.1656 14.2271C11.1834 14.3111 11.2254 14.3936 11.2432 14.4792C11.2464 14.4938 11.2497 14.5083 11.2529 14.5229C11.2561 14.5374 11.2658 14.6328 11.2594 14.5617C11.2755 14.6263 11.2788 14.6845 11.2788 14.7443C11.2804 14.914 11.4259 15.0757 11.602 15.0676C11.7766 15.0595 11.9269 14.9253 11.9253 14.7443C11.9172 13.9135 11.3822 13.1781 10.5967 12.9146C9.85153 12.6641 8.98517 12.9259 8.50188 13.5434C8.23841 13.8796 8.08647 14.2836 8.07839 14.7136C8.07193 15.095 8.18345 15.4878 8.39681 15.8046C8.84778 16.4689 9.65434 16.7938 10.4399 16.6176C11.3046 16.4237 11.9205 15.6204 11.9269 14.7443C11.9285 14.5746 11.7766 14.413 11.6037 14.421C11.4275 14.4275 11.2804 14.5617 11.2788 14.7443Z" fill="#C0C0C0"/>
<path d="M6.53483 9.99076C6.53483 10.0328 6.53322 10.0748 6.52998 10.1168C6.52837 10.1281 6.5316 10.1653 6.52514 10.1734C6.52675 10.1589 6.52837 10.1459 6.5316 10.1314C6.52998 10.1427 6.52837 10.154 6.52675 10.1653C6.51382 10.2445 6.49443 10.3237 6.47018 10.4013C6.46048 10.432 6.45078 10.4902 6.42816 10.5145C6.43139 10.5112 6.46048 10.4433 6.43462 10.4967C6.42492 10.5161 6.41684 10.5355 6.40714 10.5549C6.37158 10.6244 6.32956 10.6922 6.2843 10.7569C6.28107 10.7618 6.26652 10.7876 6.25844 10.7908C6.26652 10.7795 6.2746 10.7698 6.28268 10.7585C6.2746 10.7698 6.2649 10.7811 6.25521 10.7908C6.23258 10.8183 6.20833 10.8442 6.18409 10.87C6.15984 10.8959 6.13398 10.9202 6.10812 10.9444C6.09519 10.9557 6.08226 10.9686 6.06771 10.98C6.05963 10.9864 6.05155 10.9945 6.04347 11.001C6.01599 11.022 6.02084 11.0187 6.05801 10.9897C6.0467 11.0107 5.99013 11.0381 5.97073 11.0511C5.94002 11.0705 5.90931 11.0899 5.8786 11.106C5.84789 11.1238 5.81556 11.14 5.78323 11.1561C5.76384 11.1658 5.69918 11.1836 5.78162 11.1594C5.76061 11.1658 5.74121 11.1755 5.7202 11.1836C5.65069 11.2079 5.58119 11.2289 5.50846 11.2434C5.4729 11.2515 5.43572 11.258 5.39854 11.2628C5.47775 11.2515 5.384 11.2628 5.37268 11.2628C5.34359 11.2644 5.31611 11.266 5.28702 11.266C5.24338 11.266 5.19973 11.266 5.15771 11.2628C5.13993 11.2612 5.12053 11.2596 5.10275 11.258C5.08659 11.2564 5.03487 11.237 5.08013 11.2563C5.127 11.2757 5.07204 11.2547 5.0575 11.2515C5.03648 11.2483 5.01386 11.2434 4.99284 11.2386C4.95405 11.2305 4.91526 11.2192 4.87808 11.2079C4.84091 11.1965 4.80373 11.182 4.76655 11.1691C4.72291 11.1529 4.77302 11.1804 4.78433 11.1771C4.77464 11.1804 4.73584 11.1545 4.72615 11.1513C4.65664 11.1173 4.58876 11.0786 4.5241 11.0349C4.51279 11.0268 4.50147 11.0187 4.49016 11.0107C4.48369 11.0058 4.47885 11.0026 4.47238 10.9977C4.4449 10.9767 4.44975 10.9816 4.48693 11.009C4.47561 11.0123 4.41419 10.9476 4.40773 10.9412C4.35115 10.8894 4.29943 10.8313 4.24932 10.7731C4.20245 10.7197 4.28004 10.8183 4.25417 10.7811C4.24448 10.7666 4.23316 10.7521 4.22346 10.7391C4.20407 10.71 4.18467 10.6809 4.16528 10.6502C4.1475 10.6195 4.12972 10.5888 4.11355 10.5581C4.10385 10.5387 4.09416 10.5209 4.08607 10.5015C4.08123 10.4918 4.07638 10.4821 4.07314 10.4724C4.06345 10.4498 4.06668 10.4595 4.08446 10.4999C4.07153 10.4951 4.05375 10.4159 4.04728 10.3997C4.03597 10.3657 4.02627 10.3302 4.01657 10.2962C4.00687 10.2607 4.00041 10.2251 3.99394 10.1896C3.99233 10.1831 3.99071 10.175 3.99071 10.1686C3.98586 10.133 3.98586 10.1395 3.99233 10.1896C3.98263 10.1783 3.98748 10.1395 3.98586 10.1233C3.9794 10.0441 3.97778 9.96651 3.98424 9.88731C3.98586 9.86953 3.98748 9.85014 3.98909 9.83236C3.98909 9.82427 3.99071 9.81781 3.99071 9.80973C3.99556 9.77417 3.99394 9.78063 3.98748 9.83074C3.97778 9.82427 4.00687 9.72568 4.01011 9.71275C4.02789 9.6384 4.05051 9.56728 4.07638 9.49616C4.09254 9.45252 4.06506 9.50262 4.06829 9.51394C4.06506 9.50424 4.09092 9.46545 4.09416 9.45575C4.11194 9.41696 4.13295 9.37978 4.15396 9.34422C4.17174 9.31351 4.19114 9.28442 4.21053 9.25532C4.21861 9.24401 4.2267 9.23269 4.23478 9.22138C4.23963 9.21492 4.24286 9.21007 4.24771 9.2036C4.26872 9.17612 4.26387 9.18097 4.23639 9.21976C4.23316 9.21007 4.2962 9.14865 4.30428 9.14056C4.33337 9.10985 4.36247 9.07914 4.39318 9.05166C4.41904 9.02742 4.4449 9.00479 4.47238 8.98216C4.52572 8.93529 4.42712 9.01287 4.4643 8.98701C4.47885 8.97731 4.49339 8.966 4.50632 8.9563C4.56936 8.91266 4.63725 8.87225 4.70675 8.83831C4.72615 8.82861 4.74554 8.82053 4.76494 8.81083C4.80858 8.78982 4.74877 8.81083 4.74716 8.81891C4.75201 8.80437 4.83121 8.7882 4.84737 8.78174C4.92334 8.75749 5.00092 8.74133 5.07851 8.72517C5.15448 8.71062 5.00254 8.73163 5.08013 8.72517C5.09467 8.72355 5.10922 8.72193 5.12377 8.72032C5.16418 8.71708 5.2062 8.71547 5.24661 8.71547C5.29833 8.71547 5.34844 8.7187 5.40016 8.72193C5.41309 8.72193 5.46481 8.7284 5.39854 8.72032C5.42441 8.72355 5.45027 8.7284 5.47613 8.73325C5.56018 8.74941 5.64261 8.77204 5.72181 8.80113C5.74121 8.8076 5.76707 8.81406 5.78323 8.82538C5.71535 8.78012 5.76384 8.8173 5.78647 8.82861C5.82526 8.84801 5.86405 8.8674 5.90123 8.89003C5.9384 8.91266 5.97558 8.93529 6.01114 8.95953C6.0273 8.97085 6.04993 8.98378 6.06286 8.99833C6.01114 8.94014 6.0467 8.9854 6.06448 9.00156C6.13075 9.05813 6.19217 9.11793 6.24712 9.1842C6.25844 9.19714 6.26975 9.21168 6.28107 9.22623C6.29561 9.24563 6.29077 9.23754 6.26329 9.2036C6.27137 9.21491 6.28107 9.22623 6.28915 9.23916C6.31339 9.27472 6.33764 9.3119 6.35865 9.34907C6.38128 9.38625 6.40068 9.42504 6.42007 9.46383C6.42654 9.47676 6.433 9.48969 6.43785 9.50424C6.4524 9.53657 6.44917 9.53172 6.43139 9.48808C6.43624 9.50101 6.4427 9.51555 6.44755 9.52848C6.47826 9.61253 6.50251 9.6982 6.51867 9.78548C6.5219 9.80003 6.52352 9.81458 6.52675 9.82912C6.53807 9.89539 6.52029 9.758 6.52837 9.84529C6.5316 9.89054 6.53483 9.94065 6.53483 9.99076C6.53645 10.1605 6.68192 10.3221 6.8581 10.314C7.03267 10.3059 7.18299 10.1718 7.18137 9.99076C7.17491 9.16804 6.64798 8.43907 5.87213 8.16753C5.12862 7.9073 4.25256 8.16268 3.76442 8.78012C3.51227 9.09854 3.36519 9.47191 3.33609 9.87923C3.31023 10.2591 3.40883 10.6551 3.60602 10.9816C4.0295 11.6847 4.85545 12.0322 5.65716 11.8738C6.53968 11.6992 7.17491 10.8814 7.18137 9.99237C7.18299 9.82266 7.03105 9.66102 6.8581 9.66911C6.68192 9.67557 6.53645 9.80973 6.53483 9.99076Z" fill="#C0C0C0"/>
<path d="M14.2077 11.4894C14.185 11.5541 14.1608 11.6171 14.1349 11.6818C14.1285 11.6963 14.122 11.7109 14.1171 11.727C14.101 11.769 14.1398 11.6737 14.122 11.7157C14.1074 11.748 14.0929 11.782 14.0783 11.8143C14.0202 11.9404 13.9571 12.0648 13.8876 12.1861C13.8214 12.3041 13.7502 12.4172 13.6726 12.5287C13.6339 12.5837 13.5951 12.6386 13.5547 12.692C13.5514 12.6968 13.5288 12.7308 13.5256 12.7292C13.5272 12.7292 13.574 12.6677 13.532 12.7195C13.5078 12.7502 13.4835 12.7809 13.4577 12.8116C13.2863 13.0185 13.0972 13.2108 12.8952 13.3854C12.8467 13.4274 12.7982 13.4662 12.7497 13.5066C12.7368 13.5163 12.7255 13.5276 12.7125 13.5357C12.7707 13.4937 12.7335 13.5195 12.7222 13.5292C12.6899 13.5535 12.6592 13.5761 12.6269 13.6004C12.517 13.6796 12.4054 13.7523 12.2891 13.8218C12.1597 13.8994 12.0256 13.9705 11.8898 14.0352C11.8543 14.0529 11.8171 14.0691 11.7815 14.0853C11.767 14.0917 11.7524 14.0982 11.7379 14.1047C11.6619 14.137 11.8025 14.0788 11.7266 14.1095C11.6522 14.1386 11.5762 14.1677 11.5019 14.1952C11.3435 14.2518 11.219 14.4182 11.2756 14.5928C11.3257 14.7496 11.5019 14.8789 11.6732 14.8191C12.8095 14.4182 13.7826 13.6327 14.4 12.595C14.5762 12.2992 14.7184 11.9856 14.8332 11.6608C14.8898 11.5007 14.7685 11.3003 14.6069 11.2631C14.4242 11.2227 14.2675 11.3181 14.2077 11.4894Z" fill="#C0C0C0"/>
<path d="M11.5004 5.78646C11.565 5.80909 11.628 5.83333 11.6927 5.85919C11.7072 5.86566 11.7218 5.87212 11.738 5.87697C11.78 5.89314 11.6846 5.85434 11.7266 5.87212C11.759 5.88667 11.7929 5.90122 11.8252 5.91576C11.9513 5.97395 12.0758 6.03699 12.197 6.10649C12.3134 6.17276 12.4281 6.24388 12.5397 6.32147C12.5946 6.36026 12.6496 6.39905 12.7029 6.43946C12.7078 6.44269 12.7417 6.46532 12.7401 6.46855C12.7401 6.46694 12.6787 6.42006 12.7304 6.46209C12.7611 6.48633 12.7918 6.51058 12.8225 6.53644C13.0294 6.70777 13.2218 6.89689 13.3963 7.09893C13.4384 7.14742 13.4772 7.19591 13.5176 7.2444C13.5273 7.25733 13.5386 7.26864 13.5467 7.28157C13.5046 7.22339 13.5305 7.26056 13.5402 7.27188C13.5644 7.3042 13.5871 7.33491 13.6113 7.36724C13.6905 7.47715 13.7633 7.58868 13.8328 7.70506C13.9103 7.83436 13.9815 7.96852 14.0461 8.10429C14.0639 8.13985 14.0801 8.17703 14.0962 8.21259C14.1027 8.22714 14.1092 8.24168 14.1156 8.25623C14.1479 8.3322 14.0898 8.19158 14.1205 8.26754C14.1496 8.3419 14.1787 8.41625 14.2061 8.49222C14.2627 8.65062 14.4292 8.77508 14.6038 8.7185C14.7605 8.6684 14.8899 8.49222 14.83 8.32088C14.4292 7.18621 13.6436 6.21156 12.6059 5.59573C12.3101 5.42116 11.9966 5.27731 11.6733 5.16255C11.5133 5.10598 11.3129 5.2272 11.2757 5.38884C11.2337 5.56987 11.329 5.72665 11.5004 5.78646Z" fill="#C0C0C0"/>
<path d="M5.79448 8.493C5.81711 8.42835 5.84136 8.36531 5.86722 8.30066C5.87368 8.28611 5.88015 8.27156 5.885 8.2554C5.90116 8.21338 5.86237 8.30874 5.88015 8.26672C5.8947 8.23439 5.90924 8.20044 5.92379 8.16812C5.98198 8.04204 6.04502 7.91758 6.11452 7.79636C6.18079 7.67837 6.25191 7.56522 6.32788 7.45369C6.36505 7.39874 6.40546 7.34378 6.44587 7.29044C6.4491 7.28559 6.47335 7.25165 6.47496 7.25327C6.47335 7.25327 6.42647 7.31469 6.4685 7.26297C6.49274 7.23226 6.51699 7.20154 6.54285 7.17083C6.71418 6.96394 6.90168 6.7716 7.10534 6.59703C7.15383 6.55501 7.20232 6.51622 7.25081 6.47581C7.26374 6.46611 7.27505 6.45479 7.28798 6.44671C7.2298 6.48874 7.26536 6.46288 7.27829 6.45318C7.31061 6.42893 7.34132 6.4063 7.37365 6.38206C7.48356 6.30286 7.59509 6.23012 7.71147 6.16062C7.84077 6.08304 7.97493 6.01192 8.1107 5.94726C8.14626 5.92948 8.18344 5.91332 8.219 5.89716C8.23355 5.89069 8.24809 5.88423 8.26264 5.87776C8.33861 5.84382 8.19799 5.90362 8.27395 5.87291C8.34831 5.84382 8.42266 5.81472 8.49863 5.78724C8.65703 5.73067 8.78149 5.56419 8.72491 5.38962C8.67481 5.23284 8.49863 5.10353 8.32729 5.16334C7.19262 5.56581 6.21958 6.35135 5.60214 7.38742C5.42757 7.68321 5.28372 7.99679 5.17058 8.32005C5.114 8.48007 5.23523 8.6805 5.39686 8.71767C5.57789 8.76132 5.73468 8.66434 5.79448 8.493Z" fill="#C0C0C0"/>
<path d="M8.50081 14.1998C8.43616 14.1772 8.37312 14.153 8.30847 14.1271C8.29392 14.1206 8.27938 14.1142 8.26321 14.1093C8.22119 14.0932 8.31655 14.132 8.27453 14.1142C8.2422 14.0996 8.20826 14.0851 8.17593 14.0705C8.04986 14.0123 7.9254 13.9493 7.80417 13.8798C7.68618 13.8135 7.57303 13.7424 7.46151 13.6648C7.40655 13.626 7.35159 13.5872 7.29826 13.5468C7.29341 13.5436 7.25946 13.521 7.26108 13.5177C7.26108 13.5194 7.3225 13.5662 7.27078 13.5242C7.24007 13.5 7.20936 13.4757 7.17865 13.4499C6.97175 13.2785 6.77941 13.0894 6.60484 12.8874C6.56282 12.8389 6.52403 12.7904 6.48362 12.7419C6.47392 12.729 6.46261 12.7177 6.45452 12.7047C6.49655 12.7629 6.47069 12.7257 6.46099 12.7144C6.43674 12.6821 6.41412 12.6514 6.38987 12.6191C6.31067 12.5091 6.23793 12.3976 6.16843 12.2812C6.09085 12.1519 6.01973 12.0178 5.95507 11.882C5.93729 11.8464 5.92113 11.8093 5.90497 11.7737C5.8985 11.7592 5.89204 11.7446 5.88557 11.7301C5.85325 11.6541 5.91143 11.7947 5.88072 11.7187C5.85163 11.6444 5.82253 11.5684 5.79506 11.4941C5.73848 11.3357 5.572 11.2112 5.39744 11.2678C5.24065 11.3179 5.11134 11.4941 5.17115 11.6654C5.57362 12.8017 6.35916 13.7747 7.39685 14.3906C7.69264 14.5651 8.00783 14.709 8.3311 14.8238C8.49112 14.8803 8.69154 14.7591 8.72872 14.5975C8.76751 14.4164 8.67215 14.2596 8.50081 14.1998Z" fill="#C0C0C0"/>
</svg>
