<svg width="20" height="20" viewBox="0 0 20 20" fill="none" xmlns="http://www.w3.org/2000/svg">
<path fill-rule="evenodd" clip-rule="evenodd" d="M6.2949 15.5418C7.39123 16.2744 8.68016 16.6654 9.9987 16.6654C11.7658 16.662 13.4595 15.9586 14.709 14.709C15.9586 13.4595 16.662 11.7658 16.6654 9.9987C16.6654 8.68016 16.2744 7.39123 15.5418 6.2949C14.8093 5.19857 13.7681 4.34409 12.5499 3.8395C11.3317 3.33492 9.9913 3.2029 8.6981 3.46013C7.40489 3.71737 6.21701 4.35231 5.28466 5.28466C4.35231 6.21701 3.71737 7.40489 3.46013 8.6981C3.2029 9.9913 3.33492 11.3317 3.8395 12.5499C4.34409 13.7681 5.19857 14.8093 6.2949 15.5418ZM6.64764 4.98349C7.63956 4.32071 8.80573 3.96695 9.9987 3.96695C11.5975 3.96989 13.13 4.60632 14.2605 5.73686C15.3911 6.86739 16.0275 8.39988 16.0304 9.9987C16.0304 11.1917 15.6767 12.3578 15.0139 13.3498C14.3511 14.3417 13.4091 15.1148 12.3069 15.5713C11.2048 16.0278 9.99201 16.1473 8.82196 15.9145C7.65192 15.6818 6.57717 15.1073 5.73361 14.2638C4.89006 13.4202 4.31559 12.3455 4.08285 11.1754C3.85012 10.0054 3.96957 8.79261 4.42609 7.69045C4.88262 6.58829 5.65573 5.64626 6.64764 4.98349ZM9.22991 7.73567L12.4315 9.58488C12.504 9.62663 12.5643 9.68676 12.6062 9.75922C12.6481 9.83167 12.6701 9.91388 12.6701 9.99758C12.6701 10.0813 12.6481 10.1635 12.6062 10.2359C12.5643 10.3084 12.504 10.3685 12.4315 10.4103L9.22991 12.2595C9.1575 12.3013 9.07535 12.3233 8.99174 12.3233C8.90812 12.3233 8.82599 12.3012 8.75359 12.2594C8.68119 12.2176 8.62108 12.1574 8.57931 12.085C8.53754 12.0126 8.51557 11.9304 8.51562 11.8468V8.14837C8.51557 8.06476 8.53754 7.9826 8.57931 7.91017C8.62108 7.83774 8.68119 7.77758 8.75359 7.73575C8.82599 7.69392 8.90812 7.67189 8.99174 7.67188C9.07535 7.67186 9.1575 7.69387 9.22991 7.73567Z" fill="#C0C0C0"/>
</svg>
