<svg width="20" height="20" viewBox="0 0 20 20" fill="none" xmlns="http://www.w3.org/2000/svg">
<path d="M14.3851 4.20525C14.3429 4.18083 14.295 4.16797 14.2463 4.16797C14.1976 4.16797 14.1498 4.18083 14.1076 4.20525C14.0702 4.22612 10.3859 6.32986 7.86538 6.32986H6.60306C6.03848 6.32907 5.49121 6.52536 5.05514 6.88505C4.61906 7.24474 4.32136 7.74542 4.2131 8.30121C4.10484 8.857 4.19276 9.43325 4.46178 9.93112C4.73081 10.429 5.16417 10.8175 5.68753 11.0299L7.16209 15.325C7.19881 15.4675 7.28081 15.5942 7.39569 15.6858C7.51057 15.7775 7.65207 15.8291 7.7988 15.8329C7.8302 15.8352 7.86173 15.8352 7.89312 15.8329C8.43076 15.7964 8.95285 15.6365 9.419 15.3654C9.5083 15.3232 9.58989 15.2663 9.66037 15.197C9.67101 15.1862 9.68075 15.1746 9.6895 15.1622C9.79695 15.0127 9.85477 14.8331 9.85477 14.6488C9.85477 14.4645 9.79695 14.2849 9.6895 14.1354C9.53137 13.8808 9.10828 12.8665 9.0625 11.3374C11.4637 11.777 14.0743 13.3159 14.1048 13.3395C14.1469 13.3639 14.1946 13.3767 14.2431 13.3768C14.2917 13.3769 14.3394 13.3642 14.3816 13.34C14.4237 13.3157 14.4587 13.2808 14.4832 13.2388C14.5077 13.1967 14.5207 13.1489 14.521 13.1002V10.2368C14.889 10.1703 15.2221 9.97639 15.4622 9.68881C15.7022 9.40123 15.8341 9.03825 15.8346 8.66317V8.31533C15.8339 7.93965 15.7015 7.5762 15.4606 7.28853C15.2197 7.00087 14.8856 6.80731 14.5168 6.7417V4.44596C14.5175 4.39783 14.5057 4.35035 14.4826 4.30816C14.4595 4.26597 14.4259 4.23051 14.3851 4.20525ZM4.73733 8.77031C4.73769 8.27198 4.93474 7.79407 5.28539 7.44104C5.63605 7.08802 6.11179 6.88861 6.60861 6.8864H7.5935V10.6542H6.60861C6.11179 10.652 5.63605 10.4526 5.28539 10.0996C4.93474 9.74655 4.73769 9.26864 4.73733 8.77031ZM9.23174 14.4331L9.24006 14.4457C9.27917 14.4983 9.30144 14.5616 9.30392 14.6272C9.30639 14.6928 9.28896 14.7576 9.25393 14.813C9.2243 14.8356 9.19219 14.8547 9.15822 14.87L9.1277 14.8881C9.0195 14.9605 8.60751 15.2012 7.83903 15.2749H7.81961C7.77105 15.2819 7.72112 15.236 7.70031 15.1636V15.1497L6.33673 11.1941C6.42881 11.2049 6.52144 11.2105 6.61416 11.2108H7.87648C8.08878 11.2117 8.30087 11.2242 8.5118 11.2483C8.53677 12.7955 8.94459 13.9935 9.2248 14.4331H9.23174ZM13.9758 6.71527V12.6174C12.9715 12.0692 10.3692 10.7641 8.14975 10.6598V6.87945C10.2832 6.76953 12.9521 5.45748 13.9758 4.91624V6.71527ZM15.2798 8.31533V8.66317C15.2793 8.89118 15.2045 9.11276 15.0667 9.29414C14.929 9.47551 14.7359 9.60671 14.5168 9.66774V7.31077C14.7359 7.37179 14.929 7.503 15.0667 7.68437C15.2045 7.86574 15.2793 8.08733 15.2798 8.31533Z" fill="#C0C0C0"/>
</svg>
