<svg width="24" height="24" viewBox="0 0 24 24" fill="none" xmlns="http://www.w3.org/2000/svg">
<g clip-path="url(#clip0)">
<path d="M13.6845 22.5577C13.7005 22.4595 13.7078 22.3601 13.7065 22.2607L13.7065 5.32917L13.8783 5.69837C14.0491 6.05924 14.2815 6.38755 14.5651 6.66858L19.3132 11.4166C19.9101 12.0419 20.8704 12.147 21.5884 11.6656C22.3536 11.1053 22.5197 10.0308 21.9594 9.26561C21.9142 9.20379 21.8648 9.14503 21.8117 9.08981L13.2257 0.503876C12.5555 -0.167115 11.4682 -0.167705 10.7972 0.502535C10.7968 0.502964 10.7963 0.503447 10.7959 0.503876L2.20997 9.08981C1.54032 9.76134 1.54182 10.8486 2.21335 11.5183C2.26621 11.571 2.32244 11.6202 2.38169 11.6656C3.09974 12.147 4.06002 12.0419 4.65696 11.4166L9.41357 6.67716C9.66578 6.42522 9.87726 6.13555 10.0403 5.81857L10.2722 5.30341L10.2722 22.1662C10.2396 23.0434 10.8524 23.813 11.7146 23.9778C12.6507 24.1296 13.5327 23.4938 13.6845 22.5577Z" fill="black"/>
</g>
<defs>
<clipPath id="clip0">
<rect width="24" height="24" fill="white" transform="translate(24) rotate(90)"/>
</clipPath>
</defs>
</svg>
