<svg width="24" height="24" viewBox="0 0 24 24" fill="none" xmlns="http://www.w3.org/2000/svg">
<path d="M9.62918 9.99579C9.62918 10.7513 9.02058 11.3638 8.26983 11.3638C7.51908 11.3638 6.91048 10.7513 6.91048 9.99579C6.91048 9.24025 7.51908 8.62777 8.26983 8.62777C9.02058 8.62777 9.62918 9.24025 9.62918 9.99579Z" fill="black"/>
<path d="M14.7447 11.3638C15.4954 11.3638 16.104 10.7513 16.104 9.99579C16.104 9.24025 15.4954 8.62777 14.7447 8.62777C13.9939 8.62777 13.3853 9.24025 13.3853 9.99579C13.3853 10.7513 13.9939 11.3638 14.7447 11.3638Z" fill="black"/>
<path d="M10.1925 13.909C11.7366 14.1998 13.2759 13.9615 14.7679 13.194C15.09 13.032 15.4783 13.1559 15.6394 13.4848C15.8004 13.8089 15.6773 14.2046 15.3552 14.3666C13.9106 15.1102 12.5607 15.339 11.4429 15.339C10.8556 15.339 10.3299 15.2723 9.88938 15.1865C8.50637 14.9119 7.63728 14.3646 7.58838 14.3338L7.58749 14.3333C7.28436 14.1378 7.19436 13.7327 7.38856 13.4276C7.58275 13.1225 7.98061 13.0367 8.28374 13.2274C8.28374 13.2274 8.28789 13.2297 8.29306 13.2327C8.38342 13.2853 9.0994 13.7016 10.1925 13.909Z" fill="black"/>
<path fill-rule="evenodd" clip-rule="evenodd" d="M11.6468 4.58074H15.9522C19.8408 4.58074 23 7.77915 23 11.6926C23 15.606 19.8361 18.7948 15.9427 18.7948H11.841L7.78192 23.6616C7.5972 23.8808 7.33196 24 7.05725 24C6.95305 24 6.83937 23.9809 6.73517 23.9428C6.361 23.8046 6.10997 23.4471 6.10997 23.0467V18.7281C2.6666 18.261 0 15.2818 0 11.6878C0 7.77438 3.16392 4.5855 7.05725 4.5855H11.3626V3.96107C11.3626 3.90864 11.3911 3.86097 11.4337 3.83714L11.6326 3.72274L11.05 3.50824C11.0027 3.48918 10.9648 3.44151 10.96 3.38908C10.9553 3.33664 10.9837 3.28421 11.0311 3.25561L11.6705 2.87428L11.4479 2.76465C11.4005 2.74081 11.3674 2.68838 11.3674 2.63595V2.18312C10.8322 2.11162 10.4201 1.65402 10.4201 1.09633C10.4201 0.490963 10.9079 0 11.5095 0C12.111 0 12.5988 0.490963 12.5988 1.09633C12.5988 1.65402 12.1868 2.11162 11.6516 2.18312V2.55015L12.0352 2.73128C12.0826 2.75511 12.1157 2.80278 12.1157 2.85521C12.1157 2.90765 12.0873 2.95531 12.0447 2.98391L11.4337 3.34618L12.021 3.56067C12.0684 3.57974 12.1063 3.62264 12.111 3.67984C12.1157 3.73227 12.0873 3.78471 12.04 3.81331L11.6468 4.03734V4.58074ZM11.41 16.8786H15.9522C18.7988 16.8786 21.1149 14.5478 21.1196 11.683C21.1196 8.81827 18.8035 6.48739 15.957 6.48739H7.06672C4.22014 6.48739 1.90404 8.81827 1.90404 11.683C1.90404 14.5478 4.22014 16.8786 7.06672 16.8786C7.58773 16.8786 8.014 17.3076 8.014 17.832V20.4203L10.6853 17.2171C10.8653 17.0026 11.1306 16.8786 11.41 16.8786Z" fill="black"/>
</svg>
