<svg width="24" height="24" viewBox="0 0 24 24" fill="none" xmlns="http://www.w3.org/2000/svg">
<path d="M18.7079 8.07668L18.7081 8.07684C18.9576 8.30967 19.0946 8.61249 19.0944 8.95781M18.7079 8.07668L18.5944 8.95753M18.7079 8.07668L17.603 7.04651L18.7079 8.07668ZM19.0944 8.95781L18.5944 8.95753M19.0944 8.95781C19.0944 8.95772 19.0944 8.95762 19.0944 8.95753H18.5944M19.0944 8.95781C19.0944 9.3027 18.9577 9.60537 18.7081 9.8383L18.7079 9.83846L11.72 16.3536L11.7198 16.3537C11.4713 16.5853 11.1636 16.7 10.8265 16.7C10.4897 16.7 10.1817 16.5857 9.93285 16.3534M18.5944 8.95753C18.5944 9.15959 18.5185 9.33132 18.3669 9.47275L11.379 15.9879C11.2273 16.1292 11.0431 16.2 10.8265 16.2C10.6098 16.2 10.4256 16.1294 10.274 15.9879M9.93285 16.3534L9.93303 16.3536L10.274 15.9879M9.93285 16.3534L10.274 15.9879M9.93285 16.3534L5.88661 12.581L6.22751 12.2153M10.274 15.9879L6.22751 12.2153M6.22751 12.2153L5.88655 12.581M6.22751 12.2153C6.07582 12.0739 6 11.902 6 11.7001C6 11.498 6.07582 11.3262 6.22751 11.1848M5.88655 12.581L8.43762 10.1545C8.28592 10.0131 8.10176 9.94245 7.88515 9.94245C7.6684 9.94245 7.48424 10.0131 7.33255 10.1545M5.88655 12.581C5.63633 12.3477 5.5 12.0446 5.5 11.7001C5.5 11.3553 5.6364 11.0523 5.88657 10.8191M5.88655 12.581L10.8268 11.705L8.77921 9.78938L8.77858 9.78881C8.52979 9.55684 8.22197 9.44245 7.88515 9.44245C7.54824 9.44245 7.24041 9.55681 6.99158 9.78881L7.33255 10.1545M6.22751 11.1848L7.33255 10.1545M6.22751 11.1848L5.88654 10.8191L5.88657 10.8191M6.22751 11.1848L5.88657 10.8191M7.33255 10.1545L6.99158 9.78881L5.88657 10.8191M0.5 2.4C0.5 1.35066 1.35066 0.5 2.4 0.5H21.6C22.6493 0.5 23.5 1.35066 23.5 2.4V21.6C23.5 22.6493 22.6493 23.5 21.6 23.5H2.4C1.35066 23.5 0.5 22.6493 0.5 21.6V2.4Z" fill="black" stroke="black"/>
</svg>
