<svg width="24" height="24" viewBox="0 0 24 24" fill="none" xmlns="http://www.w3.org/2000/svg">
<path fill-rule="evenodd" clip-rule="evenodd" d="M18.9031 4.22727L10.541 12.5894L11.4087 13.457L19.7729 5.09284V8.93182H21.0002V3.61364C21.0002 3.27491 20.7253 3 20.3865 3H15.0684V4.22727H18.9031ZM17.1136 21.0001H5.25C4.00882 21.0001 3 19.9913 3 18.7501V6.88648C3 5.64529 4.00882 4.63648 5.25 4.63648H13.0227V5.86375H5.25C4.68627 5.86375 4.22727 6.32275 4.22727 6.88648V18.7501C4.22727 19.3138 4.68627 19.7728 5.25 19.7728H17.1136C17.6774 19.7728 18.1364 19.3138 18.1364 18.7501V10.9774H19.3636V18.7501C19.3636 19.9913 18.3548 21.0001 17.1136 21.0001Z" fill="black"/>
</svg>
