<svg width="24" height="24" viewBox="0 0 24 24" fill="none" xmlns="http://www.w3.org/2000/svg">
<path d="M21.5606 17.6487C21.5865 17.6184 21.6065 17.5837 21.6197 17.5461C22.5955 15.8607 23.1094 13.9476 23.1094 12C23.1094 10.0525 22.5955 8.13941 21.6197 6.45398C21.6065 6.41643 21.5865 6.38165 21.5606 6.35142C20.1174 3.91766 17.8034 2.12319 15.087 1.33129C15.0594 1.31869 15.0301 1.31004 15 1.3056C13.0383 0.752299 10.9617 0.752299 9.00001 1.3056C8.97041 1.3098 8.94152 1.318 8.91414 1.32998C6.19703 2.12183 3.88249 3.91685 2.43939 6.35142C2.41352 6.38165 2.39349 6.41643 2.38032 6.45398C1.40449 8.13941 0.890625 10.0525 0.890625 12C0.890625 13.9476 1.40449 15.8607 2.38032 17.5461C2.39349 17.5837 2.41352 17.6184 2.43939 17.6487C3.88139 20.0814 6.19355 21.8756 8.90814 22.6684C8.93682 22.6812 8.96719 22.6899 8.99832 22.6941C10.9606 23.2477 13.0379 23.2477 15.0002 22.6941C15.0329 22.69 15.0649 22.6809 15.0949 22.6673C17.8081 21.874 20.119 20.0803 21.5606 17.6487V17.6487ZM12.3281 22.4449V17.7657H16.8118C16.3243 19.5488 15.6229 21.0304 14.7698 22.0782C13.9733 22.2968 13.1537 22.4199 12.3281 22.4449V22.4449ZM9.23026 22.0778C8.37714 21.0304 7.6757 19.549 7.1882 17.7653H11.6719V22.4445C10.8463 22.4195 10.0267 22.2964 9.23026 22.0778V22.0778ZM1.55514 12.3278H3.00001V14.9063C3.00006 14.9933 3.03465 15.0767 3.09617 15.1383C3.1577 15.1998 3.24113 15.2344 3.32814 15.2344H6.0122C6.0992 15.8762 6.21207 16.5038 6.3497 17.1094H2.88564C2.06207 15.6467 1.60552 14.0061 1.55514 12.3282V12.3278ZM2.88639 6.89029H6.34989C6.21207 7.49592 6.0992 8.12367 6.01239 8.76529H3.32814C3.28502 8.76532 3.24233 8.77383 3.20251 8.79035C3.16269 8.80688 3.12651 8.83108 3.09604 8.86158C3.06557 8.89209 3.04141 8.92829 3.02493 8.96814C3.00845 9.00798 2.99999 9.05068 3.00001 9.09379V11.6719H1.55514C1.60552 9.99403 2.06207 8.3534 2.88564 6.89067L2.88639 6.89029ZM11.6719 1.55517V6.23442H7.1882C7.6757 4.45129 8.37714 2.96967 9.23026 1.92192C10.0267 1.70328 10.8463 1.58016 11.6719 1.55517V1.55517ZM14.7698 1.92229C15.6229 2.96967 16.3243 4.4511 16.8118 6.23479H12.3281V1.55517C13.1537 1.58029 13.9733 1.70353 14.7698 1.92229V1.92229ZM22.4449 11.6723H21V9.09379C21 9.00678 20.9654 8.92335 20.9039 8.86183C20.8423 8.8003 20.7589 8.76572 20.6719 8.76567H17.9878C17.9008 8.12385 17.7879 7.49629 17.6503 6.89067H21.1144C21.938 8.3534 22.3945 9.99403 22.4449 11.6719V11.6723ZM21.1136 17.1098H17.6501C17.7879 16.5042 17.9008 15.8764 17.9876 15.2348H20.6719C20.715 15.2348 20.7577 15.2262 20.7975 15.2097C20.8373 15.1932 20.8735 15.169 20.904 15.1385C20.9345 15.108 20.9586 15.0718 20.9751 15.0319C20.9916 14.9921 21 14.9494 21 14.9063V12.3282H22.4449C22.3945 14.0061 21.938 15.6467 21.1144 17.1094L21.1136 17.1098ZM12.3274 17.1098V15.2348H17.325C17.2352 15.8781 17.1188 16.5059 16.9759 17.1098H12.3274ZM3.65626 14.5782V9.42192H20.3438V14.5782H3.65626ZM17.325 8.76567H12.3281V6.89067H16.9764C17.1188 7.49442 17.2356 8.12235 17.325 8.76567V8.76567ZM11.6713 6.89067V8.76567H6.67501C6.76482 8.12235 6.88126 7.4946 7.02414 6.89067H11.6713ZM6.67501 15.2344H11.6719V17.1094H7.02357C6.88126 16.5055 6.76445 15.8777 6.67501 15.2344V15.2344ZM15.8355 21.7219C16.5888 20.4968 17.1474 19.1622 17.4911 17.7657H20.7141C19.529 19.5507 17.8265 20.9309 15.8349 21.7212L15.8355 21.7219ZM20.7141 6.23442H17.4906C17.1466 4.83799 16.5881 3.50337 15.8349 2.27817C17.8264 3.06884 19.5286 4.44924 20.7135 6.23442H20.7141ZM8.16564 2.27817C7.41245 3.50334 6.85394 4.83797 6.51001 6.23442H3.28651C4.47147 4.4494 6.17369 3.06918 8.16507 2.27873L8.16564 2.27817ZM3.28651 17.7657H6.50945C6.85322 19.1621 7.41168 20.4968 8.16489 21.7219C6.17354 20.9312 4.4714 19.5508 3.28651 17.7657V17.7657Z" fill="black"/>
<path d="M8.58536 12.5978L7.93324 10.6172H7.38574L6.72968 12.5978L6.13793 10.6172H5.5863L6.46399 13.3828H6.96311L7.65949 11.3299L8.35192 13.3828H8.85517L9.72855 10.6172H9.17711L8.58536 12.5978Z" fill="black"/>
<path d="M12.6946 13.3828H13.1977L14.0712 10.6172H13.5196L12.928 12.5978L12.2759 10.6172H11.7284L11.0721 12.5978L10.4806 10.6172H9.92896L10.8065 13.3828H11.3058L12.0021 11.3299L12.6946 13.3828Z" fill="black"/>
<path d="M15.6482 13.3828L16.3444 11.3299L17.0368 13.3828H17.54L18.4136 10.6172H17.862L17.2702 12.5978L16.6181 10.6172H16.0706L15.4145 12.5978L14.8228 10.6172H14.2714L15.1489 13.3828H15.6482Z" fill="black"/>
</svg>
