<svg width="24" height="24" viewBox="0 0 24 24" fill="none" xmlns="http://www.w3.org/2000/svg">
<path d="M22.6536 15.4354C20.859 13.641 17.9496 13.641 16.1552 15.4354C14.3607 17.2299 14.3607 20.1393 16.1552 21.9339C17.9497 23.7283 20.8591 23.7283 22.6536 21.9339C24.448 20.1393 24.448 17.2299 22.6536 15.4354ZM21.7505 20.3236L21.0435 21.0306L19.4046 19.3917L17.7656 21.0306L17.0586 20.3236L18.6975 18.6847L17.0586 17.0458L17.7656 16.3387L19.4046 17.9777L21.0435 16.3387L21.7505 17.0458L20.1116 18.6847L21.7505 20.3236Z" fill="black"/>
<path d="M10.5552 10.6842C13.3067 10.6842 15.5372 8.4537 15.5372 5.70222C15.5372 2.95073 13.3067 0.720215 10.5552 0.720215C7.80376 0.720215 5.57324 2.95073 5.57324 5.70222C5.57324 8.4537 7.80376 10.6842 10.5552 10.6842Z" fill="black"/>
<path d="M18.4343 13.1782C17.8558 12.5288 17.2041 11.9461 16.4827 11.4557C16.4042 11.4024 16.2462 11.2997 16.2462 11.2997C14.9726 13.0679 12.8963 14.2211 10.5556 14.2211C8.21459 14.2211 6.13809 13.0675 4.86459 11.2991C4.86459 11.2991 4.73175 11.386 4.66573 11.4304C1.85123 13.3263 0 16.5426 0 20.1913V21.2981H14.4581C13.3438 19.1851 13.6737 16.5036 15.4488 14.7285C16.2728 13.9047 17.3095 13.374 18.4343 13.1782Z" fill="black"/>
</svg>
