<svg width="24" height="24" viewBox="0 0 24 24" fill="none" xmlns="http://www.w3.org/2000/svg">
<path d="M16.9289 15.1552L15.2423 13.7899C15.4883 12.7536 15.613 11.6394 15.613 10.4778C15.613 6.75494 12.9925 3.32285 12.1222 3.02056C12.0427 2.99315 11.9568 2.99315 11.8773 3.02056C11.007 3.32285 8.3865 6.75494 8.3865 10.4778C8.3865 11.6394 8.51126 12.7538 8.75761 13.7899L7.07084 15.1552C6.96995 15.2369 6.91886 15.3654 6.93583 15.494L7.62396 20.6759C7.64335 20.8227 7.7476 20.9441 7.8897 20.9851C8.03236 21.0262 8.18472 20.9797 8.27983 20.8661L10.9677 17.6539C11.6284 18.0573 12.3713 18.0573 13.0321 17.6539L15.7195 20.8661C15.7917 20.9521 15.8969 20.9999 16.0056 20.9999C16.0403 20.9999 16.0751 20.995 16.1096 20.9851C16.2517 20.9439 16.3558 20.8227 16.3754 20.6759L17.0635 15.494C17.0809 15.3656 17.0298 15.2369 16.9289 15.1552ZM12 10.3882C11.1761 10.3882 10.5082 9.72025 10.5082 8.89636C10.5082 8.07246 11.1761 7.40447 12 7.40447C12.8239 7.40447 13.4919 8.07246 13.4919 8.89636C13.4919 9.72025 12.8239 10.3882 12 10.3882Z" fill="black"/>
</svg>
