<svg width="24" height="24" viewBox="0 0 24 24" fill="none" xmlns="http://www.w3.org/2000/svg">
<path d="M3.27272 24C1.46812 24 0 22.5319 0 20.7273C0 18.9227 1.46812 17.4546 3.27272 17.4546C5.07731 17.4546 6.54544 18.9227 6.54544 20.7273C6.54544 22.5319 5.07731 24 3.27272 24Z" fill="black"/>
<path d="M13.6362 22.3637C12.7325 22.3637 11.9999 21.631 11.9999 20.7273C11.9999 15.9151 8.08487 12 3.27259 12C2.36889 12 1.63623 11.2674 1.63623 10.3637C1.63623 9.45995 2.36889 8.72729 3.27259 8.72729C6.47795 8.72729 9.49136 9.97553 11.7579 12.242C14.0244 14.5085 15.2726 17.522 15.2726 20.7273C15.2726 21.631 14.5399 22.3637 13.6362 22.3637Z" fill="black"/>
<path d="M22.3635 22.3636C21.4598 22.3636 20.7272 21.631 20.7272 20.7273C20.7272 11.1028 12.8971 3.27272 3.27259 3.27272C2.36889 3.27272 1.63623 2.54006 1.63623 1.63636C1.63623 0.732656 2.36889 0 3.27259 0C6.07 0 8.78467 0.54825 11.341 1.62956C13.8094 2.67361 16.026 4.16789 17.9289 6.07092C19.832 7.97395 21.3263 10.1904 22.3703 12.6588C23.4516 15.2152 23.9999 17.9298 23.9999 20.7273C23.9999 21.631 23.2672 22.3636 22.3635 22.3636Z" fill="black"/>
</svg>
