<svg width="24" height="24" viewBox="0 0 24 24" fill="none" xmlns="http://www.w3.org/2000/svg">
<path d="M15.4769 9.47764L10.7993 13.9348L8.57075 11.6327C8.27687 11.3389 7.81156 11.3389 7.54217 11.6083C7.24829 11.9021 7.2483 12.3674 7.51768 12.6368L10.2605 15.4531C10.4075 15.6001 10.6034 15.6735 10.7748 15.6735C10.9463 15.6735 11.1422 15.6001 11.2891 15.4776L16.5055 10.5307C16.7993 10.2613 16.8238 9.79601 16.5299 9.50213C16.2361 9.20826 15.7708 9.20826 15.4769 9.47764Z" fill="black"/>
<path d="M11.9996 3.42871C7.00366 3.42871 2.93835 7.49402 2.93835 12.4899C2.93835 17.4859 7.00366 21.5512 11.9996 21.5512C16.9955 21.5512 21.0608 17.4859 21.0608 12.4899C21.0608 7.49402 16.9955 3.42871 11.9996 3.42871ZM11.9996 20.0818C7.81182 20.0818 4.40774 16.6777 4.40774 12.4899C4.40774 8.30218 7.81182 4.8981 11.9996 4.8981C16.1873 4.8981 19.5914 8.30218 19.5914 12.4899C19.5914 16.6777 16.1873 20.0818 11.9996 20.0818Z" fill="black"/>
</svg>
