<svg width="20" height="20" viewBox="0 0 20 20" fill="none" xmlns="http://www.w3.org/2000/svg">
<path fill-rule="evenodd" clip-rule="evenodd" d="M5.71433 3.3335H14.2858C14.917 3.33425 15.5222 3.58534 15.9685 4.0317C16.4149 4.47805 16.6659 5.08321 16.6667 5.71445V14.2859C16.6659 14.9171 16.4149 15.5223 15.9685 15.9686C15.5222 16.415 14.917 16.6661 14.2858 16.6668H5.71433C5.08309 16.6661 4.47793 16.415 4.03157 15.9686C3.58522 15.5223 3.33413 14.9171 3.33337 14.2859V5.71445C3.33413 5.08321 3.58522 4.47805 4.03157 4.0317C4.47793 3.58534 5.08309 3.33425 5.71433 3.3335ZM15.2959 15.296C15.5638 15.0281 15.7143 14.6648 15.7143 14.2859V5.71445C15.7143 5.33557 15.5638 4.9722 15.2959 4.7043C15.028 4.43639 14.6646 4.28588 14.2858 4.28588H5.71433C5.33545 4.28588 4.97208 4.43639 4.70417 4.7043C4.43626 4.9722 4.28575 5.33557 4.28575 5.71445V14.2859C4.28575 14.6648 4.43626 15.0281 4.70417 15.296C4.97208 15.5639 5.33545 15.7144 5.71433 15.7144H14.2858C14.6646 15.7144 15.028 15.5639 15.2959 15.296ZM10.4443 9.55558H12.2221C12.34 9.55558 12.453 9.6024 12.5364 9.68575C12.6197 9.7691 12.6666 9.88215 12.6666 10C12.6666 10.1179 12.6197 10.2309 12.5364 10.3143C12.453 10.3976 12.34 10.4445 12.2221 10.4445H10.4443V12.2222C10.4443 12.3401 10.3975 12.4532 10.3142 12.5365C10.2308 12.6199 10.1178 12.6667 9.9999 12.6667C9.88202 12.6667 9.76898 12.6199 9.68563 12.5365C9.60228 12.4532 9.55545 12.3401 9.55545 12.2222V10.4445H7.77768C7.6598 10.4445 7.54676 10.3976 7.46341 10.3143C7.38006 10.2309 7.33323 10.1179 7.33323 10C7.33323 9.88215 7.38006 9.7691 7.46341 9.68575C7.54676 9.6024 7.6598 9.55558 7.77768 9.55558H9.55545V7.7778C9.55545 7.65992 9.60228 7.54688 9.68563 7.46353C9.76898 7.38018 9.88202 7.33335 9.9999 7.33335C10.1178 7.33335 10.2308 7.38018 10.3142 7.46353C10.3975 7.54688 10.4443 7.65992 10.4443 7.7778V9.55558Z" fill="#C0C0C0"/>
</svg>
