<svg width="20" height="20" viewBox="0 0 20 20" fill="none" xmlns="http://www.w3.org/2000/svg">
<path d="M9.88716 2.5C13.9645 2.5 17.2743 5.80979 17.2743 9.88716C17.2743 13.9645 13.9645 17.2743 9.88716 17.2743C9.04592 17.2743 8.20098 17.1278 7.40831 16.8463L4.32364 17.4912C4.04007 17.5496 3.78572 17.3081 3.82606 17.0257L4.059 14.4242C3.04614 13.1249 2.5 11.5346 2.5 9.88716C2.5 5.80979 5.80979 2.5 9.88716 2.5V2.5ZM9.88716 3.3363C6.26663 3.3363 3.3363 6.26663 3.3363 9.88716C3.3363 11.4046 3.85199 12.8558 4.81216 14.0312C4.8776 14.1127 4.913 14.218 4.90353 14.33L4.70392 16.5598L7.35439 16.0055C7.42889 15.9902 7.50832 15.9948 7.58446 16.0232C8.32733 16.3014 9.09407 16.438 9.88716 16.438C13.5077 16.438 16.438 13.5077 16.438 9.88716C16.438 6.26663 13.5077 3.3363 9.88716 3.3363Z" fill="#C0C0C0"/>
</svg>
