<svg width="20" height="20" viewBox="0 0 20 20" fill="none" xmlns="http://www.w3.org/2000/svg">
<path fill-rule="evenodd" clip-rule="evenodd" d="M11.9686 5.73438C11.9686 7 12.9999 8.03125 14.2655 8.03125C15.5311 8.03125 16.5624 7 16.5624 5.73438C16.5624 4.46875 15.5311 3.4375 14.2655 3.4375C12.9999 3.4375 11.9686 4.46875 11.9686 5.73438ZM12.6717 5.73438C12.6717 4.84375 13.3749 4.14062 14.2655 4.14062C15.1561 4.14062 15.8592 4.84375 15.8592 5.73438C15.8592 6.625 15.1561 7.32812 14.2655 7.32812C13.3749 7.32812 12.6717 6.625 12.6717 5.73438ZM5.59375 16.5622H12.8125C13.9844 16.5622 14.9219 15.6247 15.0156 14.406V9.99974C15.0156 9.76537 14.875 9.62474 14.6406 9.62474C14.4062 9.62474 14.2656 9.81224 14.2656 9.99974V14.406C14.2656 15.2029 13.6094 15.8591 12.8125 15.8591H5.59375C4.79687 15.8591 4.14063 15.2029 4.14063 14.406V7.18725C4.14063 6.39037 4.79687 5.781 5.59375 5.781H10C10.1875 5.781 10.375 5.64037 10.375 5.406C10.375 5.17162 10.1875 5.031 10 5.031H5.59375C4.375 5.031 3.4375 6.01537 3.4375 7.18725V14.406C3.4375 15.6247 4.375 16.5622 5.59375 16.5622Z" fill="#C0C0C0"/>
</svg>
