<svg width="20" height="20" viewBox="0 0 20 20" fill="none" xmlns="http://www.w3.org/2000/svg">
<path d="M13.0556 4.16669H3.98148C3.58857 4.16669 3.21175 4.32277 2.93392 4.6006C2.65608 4.87843 2.5 5.25526 2.5 5.64817V11.9C2.5 12.2929 2.65608 12.6698 2.93392 12.9476C3.21175 13.2254 3.58857 13.3815 3.98148 13.3815H5.46296V14.863C5.46296 15.2559 5.61905 15.6327 5.89688 15.9106C6.17471 16.1884 6.55153 16.3445 6.94444 16.3445H16.0185C16.4114 16.3445 16.7883 16.1884 17.0661 15.9106C17.3439 15.6327 17.5 15.2559 17.5 14.863V8.61113C17.5 8.21822 17.3439 7.8414 17.0661 7.56357C16.7883 7.28573 16.4114 7.12965 16.0185 7.12965H14.537V5.64817C14.537 5.25526 14.381 4.87843 14.1031 4.6006C13.8253 4.32277 13.4485 4.16669 13.0556 4.16669V4.16669ZM5.46296 8.61113V12.6408H3.98148C3.78502 12.6408 3.59661 12.5627 3.4577 12.4238C3.31878 12.2849 3.24074 12.0965 3.24074 11.9V5.64817C3.24074 5.45171 3.31878 5.2633 3.4577 5.12439C3.59661 4.98547 3.78502 4.90743 3.98148 4.90743H13.0556C13.252 4.90743 13.4404 4.98547 13.5793 5.12439C13.7183 5.2633 13.7963 5.45171 13.7963 5.64817V7.12965H6.94444C6.55153 7.12965 6.17471 7.28573 5.89688 7.56357C5.61905 7.8414 5.46296 8.21822 5.46296 8.61113V8.61113ZM16.7593 8.61113V14.863C16.7593 15.0594 16.6812 15.2479 16.5423 15.3868C16.4034 15.5257 16.215 15.6037 16.0185 15.6037H6.94444C6.74799 15.6037 6.55958 15.5257 6.42066 15.3868C6.28175 15.2479 6.2037 15.0594 6.2037 14.863V8.61113C6.2037 8.41467 6.28175 8.22626 6.42066 8.08735C6.55958 7.94843 6.74799 7.87039 6.94444 7.87039H16.0185C16.215 7.87039 16.4034 7.94843 16.5423 8.08735C16.6812 8.22626 16.7593 8.41467 16.7593 8.61113V8.61113Z" fill="#1F3B52"/>
</svg>
