<svg width="20" height="20" viewBox="0 0 20 20" fill="none" xmlns="http://www.w3.org/2000/svg">
<path d="M13.0556 4.1665H3.98148C3.58857 4.1665 3.21175 4.32259 2.93392 4.60042C2.65608 4.87825 2.5 5.25507 2.5 5.64799V11.8998C2.5 12.2928 2.65608 12.6696 2.93392 12.9474C3.21175 13.2252 3.58857 13.3813 3.98148 13.3813H5.46296V14.8628C5.46296 15.2557 5.61905 15.6325 5.89688 15.9104C6.17471 16.1882 6.55153 16.3443 6.94444 16.3443H16.0185C16.4114 16.3443 16.7883 16.1882 17.0661 15.9104C17.3439 15.6325 17.5 15.2557 17.5 14.8628V8.61095C17.5 8.21804 17.3439 7.84121 17.0661 7.56338C16.7883 7.28555 16.4114 7.12947 16.0185 7.12947H14.537V5.64799C14.537 5.25507 14.381 4.87825 14.1031 4.60042C13.8253 4.32259 13.4485 4.1665 13.0556 4.1665ZM5.46296 8.61095V12.6406H3.98148C3.78502 12.6406 3.59661 12.5625 3.4577 12.4236C3.31878 12.2847 3.24074 12.0963 3.24074 11.8998V5.64799C3.24074 5.45153 3.31878 5.26312 3.4577 5.1242C3.59661 4.98529 3.78502 4.90724 3.98148 4.90724H13.0556C13.252 4.90724 13.4404 4.98529 13.5793 5.1242C13.7183 5.26312 13.7963 5.45153 13.7963 5.64799V7.12947H6.94444C6.55153 7.12947 6.17471 7.28555 5.89688 7.56338C5.61905 7.84121 5.46296 8.21804 5.46296 8.61095ZM16.7593 8.61095V14.8628C16.7593 15.0593 16.6812 15.2477 16.5423 15.3866C16.4034 15.5255 16.215 15.6035 16.0185 15.6035H6.94444C6.74799 15.6035 6.55958 15.5255 6.42066 15.3866C6.28175 15.2477 6.2037 15.0593 6.2037 14.8628V8.61095C6.2037 8.41449 6.28175 8.22608 6.42066 8.08717C6.55958 7.94825 6.74799 7.87021 6.94444 7.87021H16.0185C16.215 7.87021 16.4034 7.94825 16.5423 8.08717C16.6812 8.22608 16.7593 8.41449 16.7593 8.61095Z" fill="#C0C0C0"/>
</svg>
