<svg width="22" height="22" viewBox="0 0 22 22" fill="none" xmlns="http://www.w3.org/2000/svg">
<path d="M4.58843 10.9994C4.58843 9.08884 4.58594 7.17851 4.58926 5.2679C4.59175 3.85712 5.69335 2.7558 7.10358 2.75165C8.33283 2.74806 9.56181 2.75165 10.7911 2.75027C11.0185 2.75 11.2014 2.82377 11.3677 2.99093C13.2518 4.88247 15.1405 6.76931 17.0313 8.65422C17.1788 8.80149 17.2468 8.96699 17.2468 9.1709C17.2459 11.7123 17.2545 14.2534 17.2429 16.7948C17.2366 18.1746 16.1297 19.2483 14.7474 19.2492C12.183 19.2505 9.61872 19.2503 7.0544 19.2492C5.77651 19.2486 4.6785 18.2426 4.60832 16.9645C4.56633 16.198 4.59036 15.4277 4.58898 14.6593C4.58705 13.4394 4.58843 12.2193 4.58843 10.9994ZM10.3365 3.88061C10.2675 3.88061 10.218 3.88061 10.1683 3.88061C9.15537 3.88089 8.14274 3.88144 7.12983 3.88171C6.30784 3.88199 5.71904 4.4683 5.71904 5.2878C5.71904 9.09492 5.71904 12.902 5.71904 16.7094C5.71904 17.5403 6.30369 18.126 7.13314 18.126C9.66514 18.126 12.1971 18.1252 14.7289 18.1266C15.5177 18.1271 16.1203 17.5317 16.1206 16.7412C16.1214 14.4347 16.12 12.1284 16.1236 9.82186C16.1239 9.69697 16.093 9.65884 15.9639 9.6594C14.8958 9.66464 13.8279 9.66685 12.7597 9.66105C11.4475 9.65415 10.3365 8.53099 10.3354 7.21802C10.3346 6.40791 10.336 5.59753 10.3363 4.78742C10.3365 4.49261 10.3365 4.19835 10.3365 3.88061ZM11.4608 4.69983C11.4608 4.75288 11.4608 4.78383 11.4608 4.8145C11.4608 5.592 11.4589 6.36951 11.4616 7.14701C11.4644 7.94911 12.0537 8.53956 12.8578 8.54315C13.6353 8.54674 14.4128 8.5437 15.1903 8.54287C15.2234 8.54287 15.2566 8.53624 15.2936 8.5321C14.0166 7.25532 12.7486 5.98766 11.4608 4.69983Z" fill="#C0C0C0"/>
</svg>
