<?xml version="1.0" standalone="no"?>
<!DOCTYPE svg PUBLIC "-//W3C//DTD SVG 1.1//EN" "http://www.w3.org/Graphics/SVG/1.1/DTD/svg11.dtd" >
<svg xmlns="http://www.w3.org/2000/svg">
<metadata>Generated by IcoMoon</metadata>
<defs>
<font id="icomoon" horiz-adv-x="1024">
<font-face units-per-em="1024" ascent="960" descent="-64" />
<missing-glyph horiz-adv-x="1024" />
<glyph unicode="&#x20;" horiz-adv-x="512" d="" />
<glyph unicode="&#xe900;" glyph-name="Add-User" d="M651.635 448c102.4 0 186.185 83.785 186.185 186.183 0 102.4-83.785 186.182-186.185 186.182s-186.18-83.782-186.18-186.182c0-102.398 83.78-186.183 186.18-186.183zM232.727 541.092v139.636h-93.091v-139.636h-139.636v-93.092h139.636v-139.635h93.091v139.635h139.636v93.092h-139.636zM651.635 354.91c-125.67 0-372.363-60.51-372.363-186.18v-93.094h744.727v93.094c0 125.67-246.69 186.18-372.365 186.18z" />
<glyph unicode="&#xe901;" glyph-name="Arrow" d="M583.872-2.462c0.683 4.19 0.994 8.431 0.939 12.672v722.412l7.33-15.753c7.287-15.397 17.203-29.405 29.303-41.396l202.586-202.582c25.468-26.679 66.441-31.164 97.075-10.624 32.649 23.906 39.735 69.751 15.829 102.4-1.929 2.638-4.036 5.145-6.302 7.501l-366.336 366.333c-28.595 28.629-74.987 28.654-103.616 0.057-0.017-0.018-0.038-0.039-0.055-0.057l-366.333-366.333c-28.572-28.652-28.508-75.042 0.144-103.616 2.255-2.249 4.655-4.348 7.183-6.285 30.637-20.54 71.609-16.055 97.078 10.624l202.949 202.216c10.761 10.749 19.784 23.109 26.74 36.633l9.894 21.98v-719.479c-1.391-37.427 24.755-70.263 61.542-77.295 39.94-6.477 77.572 20.651 84.049 60.591z" />
<glyph unicode="&#xe902;" glyph-name="Bot" d="M410.845 533.513c0-32.235-25.967-58.368-57.999-58.368s-57.999 26.133-57.999 58.368c0 32.236 25.967 58.369 57.999 58.369s57.999-26.132 57.999-58.369zM629.107 475.145c32.030 0 57.997 26.133 57.997 58.368 0 32.236-25.967 58.369-57.997 58.369-32.034 0-58.001-26.132-58.001-58.369 0-32.235 25.967-58.368 58.001-58.368zM434.88 366.549c65.882-12.407 131.558-2.24 195.217 30.507 13.743 6.912 30.31 1.626 37.184-12.407 6.869-13.828 1.617-30.711-12.126-37.623-61.636-31.727-119.232-41.489-166.925-41.489-25.058 0-47.488 2.846-66.284 6.507-59.008 11.716-96.090 35.068-98.176 36.382l-0.038 0.021c-12.934 8.341-16.774 25.626-8.488 38.643s25.261 16.678 38.194 8.542c0 0 0.177-0.098 0.398-0.226 3.855-2.244 34.404-20.006 81.043-28.855zM496.93 764.555h183.697c165.914 0 300.706-136.465 300.706-303.439 0-166.972-134.993-303.027-301.111-303.027h-175.006l-173.187-207.65c-7.881-9.353-19.198-14.438-30.919-14.438-4.446 0-9.296 0.815-13.742 2.441-15.965 5.897-26.675 21.15-26.675 38.234v184.26c-146.917 19.93-260.692 147.042-260.692 300.386 0 166.973 134.994 303.031 301.109 303.031h183.695v26.642c0 2.237 1.216 4.271 3.034 5.288l8.486 4.881-24.858 9.152c-2.018 0.813-3.635 2.847-3.84 5.084-0.201 2.237 1.011 4.474 3.034 5.695l27.281 16.27-9.498 4.678c-2.022 1.017-3.435 3.254-3.435 5.491v19.321c-22.835 3.051-40.418 22.575-40.418 46.37 0 25.829 20.813 46.777 46.481 46.777 25.664 0 46.477-20.948 46.477-46.777 0-23.795-17.579-43.319-40.414-46.37v-15.66l16.367-7.728c2.022-1.017 3.435-3.051 3.435-5.288s-1.212-4.271-3.029-5.491l-26.069-15.457 25.058-9.152c2.022-0.814 3.639-2.644 3.84-5.085 0.201-2.237-1.011-4.474-3.029-5.695l-16.777-9.559v-23.185zM486.827 239.846h193.801c121.455 0 220.275 99.447 220.476 221.679 0 122.228-98.82 221.679-220.271 221.679h-379.319c-121.454 0-220.274-99.451-220.274-221.679 0-122.231 98.82-221.679 220.274-221.679 22.23 0 40.417-18.304 40.417-40.678v-110.434l113.975 136.67c7.68 9.152 18.999 14.443 30.921 14.443z" />
<glyph unicode="&#xe903;" glyph-name="Calendar" d="M891.998 880h-91.998v48c0 17.672-14.327 32-32 32s-32-14.328-32-32v-48h-448v48c0 17.672-14.326 32-32 32s-32-14.328-32-32v-48h-92c-72.786 0-132-59.214-132-132v-679.998c0-72.789 59.214-132.002 132-132.002h759.998c72.789 0 132.002 59.213 132.002 132.002v679.998c0 72.786-59.213 132-132.002 132zM132 816h92v-32c0-17.672 14.326-32 32-32s32 14.328 32 32v32h448v-32c0-17.672 14.327-32 32-32s32 14.328 32 32v32h91.998c37.5 0 68.002-30.504 68.002-68v-76h-896v76c0 37.496 30.504 68 68 68zM891.998 0h-759.998c-37.496 0-68 30.502-68 68.002v539.998h896v-539.998c0-37.5-30.502-68.002-68.002-68.002z" />
<glyph unicode="&#xe904;" glyph-name="Checked-Round" d="M512 789.333c-113.108 0-204.8-91.692-204.8-204.8s91.692-204.8 204.8-204.8c113.108 0 204.8 91.692 204.8 204.8s-91.692 204.8-204.8 204.8zM601.803 662.833l18.859-17.584c2.587-2.413 3.884-5.345 3.883-8.791 0-3.449-1.295-6.38-3.883-8.794l-119.26-111.191c-2.589-2.412-5.733-3.62-9.429-3.62-3.698 0-6.842 1.205-9.429 3.62l-69.060 64.386c-2.589 2.413-3.883 5.347-3.883 8.793 0 3.449 1.294 6.381 3.883 8.794l18.859 17.584c2.589 2.413 5.733 3.62 9.433 3.62 3.697 0 6.839-1.207 9.428-3.62l40.771-38.142 90.972 84.946c2.586 2.413 5.731 3.62 9.431 3.62 3.697 0 6.842-1.207 9.428-3.62z" />
<glyph unicode="&#xe905;" glyph-name="Checked" d="M798.204 615.395l0.009-0.007c10.645-9.934 16.491-22.854 16.482-37.588M798.204 615.395l-4.843-37.583M798.204 615.395v0zM814.694 577.8l-21.333 0.012M814.694 577.8c0 0.004 0 0.008 0 0.012h-21.333M814.694 577.8c0-14.715-5.833-27.629-16.482-37.568l-0.009-0.007-298.159-277.984c-10.603-9.882-23.731-14.775-38.114-14.775-14.37 0-27.511 4.877-38.129 14.788M793.361 577.812c0-8.621-3.238-15.948-9.707-21.983l-298.15-277.98c-6.473-6.029-14.332-9.050-23.573-9.050-9.246 0-17.105 3.012-23.573 9.050M423.802 262.255l0.008-0.009 14.548 15.603M423.802 262.255l14.556 15.595M423.802 262.255l-172.64 160.956 14.545 15.603M438.357 277.85l-172.65 160.964M265.707 438.814l-14.548-15.603M265.707 438.814c-6.472 6.033-9.707 13.367-9.707 21.982 0 8.623 3.235 15.953 9.707 21.986M251.159 423.211l108.846 103.531c-6.473 6.033-14.33 9.047-23.572 9.047-9.248 0-17.105-3.014-23.578-9.047M251.159 423.211c-10.676 9.954-16.493 22.886-16.493 37.585 0 14.711 5.82 27.639 16.494 37.589M251.159 423.211l210.784 37.376-87.391 81.757c-10.615 9.897-23.749 14.778-38.12 14.778-14.375 0-27.509-4.879-38.126-14.778l14.548-15.603M265.707 482.782l47.148 43.959M265.707 482.782l-14.547 15.603M265.707 482.782l-14.547 15.603M312.855 526.741l-14.548 15.603-47.147-43.959M21.333 857.6c0 44.772 36.295 81.067 81.067 81.067h819.2c44.77 0 81.067-36.295 81.067-81.067v-819.2c0-44.77-36.297-81.067-81.067-81.067h-819.2c-44.772 0-81.067 36.297-81.067 81.067v819.2z" />
<glyph unicode="&#xe906;" glyph-name="Close" d="M1024 857.6l-102.4 102.4-409.6-409.6-409.6 409.6-102.4-102.4 409.6-409.6-409.6-409.6 102.4-102.4 409.6 409.6 409.6-409.6 102.4 102.4-409.6 409.6 409.6 409.6z" />
<glyph unicode="&#xe907;" glyph-name="Delete" d="M224 160c0-52.919 43.054-96 95.999-96h384.001c52.945 0 96 43.081 96 96v480h-576v-480zM608 784v48h-192v-48h-240v-95.999h672v95.999h-240z" />
<glyph unicode="&#xe908;" glyph-name="Download" d="M758.857 475.426l-246.857-246.857-246.855 246.857 82.285 82.287 109.713-109.713v384h109.713v-384l109.713 109.713 82.287-82.287zM896 173.717h-768v-109.713h768v109.713z" />
<glyph unicode="&#xe909;" glyph-name="Dropdown" d="M1024 643.621l-120.747 120.744-391.253-391.253-391.252 391.253-120.748-120.744 512-511.998 512 511.998z" />
<glyph unicode="&#xe90a;" glyph-name="Duplicate" d="M650.935 611.261h-630.157c-11.428 0-20.778-9.35-20.778-20.778v-630.158c0-11.426 9.35-20.779 20.778-20.779h630.157c11.426 0 20.779 9.348 20.779 20.779v630.158c0 11.428-9.353 20.778-20.779 20.778zM1006.596 956.437h-646.909c-9.578 0-17.403-7.833-17.403-17.404 0 0 0-148.996 0-274.148 0-11.132 11.187-11.431 11.187-11.431h353.644c8.597 0 13.922-8.188 13.922-14.895v-352.020c0 0 0.401-11.819 11.631-11.819 125.103 0 273.937 0 273.937 0 9.566 0 17.399 7.825 17.399 17.399v646.915c-0.009 9.568-7.842 17.401-17.408 17.401z" />
<glyph unicode="&#xe90b;" glyph-name="Edit" d="M128 224.013v-160.021h160.022l472.17 472.174-160.021 160.022-472.171-472.175zM883.52 719.878l-99.644 99.64c-16.64 16.642-43.738 16.642-60.382 0l-78.093-78.091 160.026-160.022 78.089 78.091c16.644 16.643 16.644 43.74 0.004 60.382z" />
<glyph unicode="&#xe90c;" glyph-name="Ellipsis" d="M597.333 789.333c0-47.128-38.204-85.333-85.333-85.333s-85.333 38.205-85.333 85.333c0 47.128 38.204 85.333 85.333 85.333s85.333-38.205 85.333-85.333zM597.333 448c0-47.13-38.204-85.333-85.333-85.333s-85.333 38.204-85.333 85.333c0 47.13 38.204 85.333 85.333 85.333s85.333-38.204 85.333-85.333zM512 21.333c47.13 0 85.333 38.204 85.333 85.333s-38.204 85.333-85.333 85.333c-47.13 0-85.333-38.204-85.333-85.333s38.204-85.333 85.333-85.333z" />
<glyph unicode="&#xe90d;" glyph-name="Expand" d="M806.532 779.636l-356.783-356.784 37.022-37.018 356.873 356.871v-163.796h52.365v226.909c0 14.452-11.729 26.182-26.185 26.182h-226.906v-52.364h163.614zM730.18 63.996h-506.18c-52.957 0-96 43.042-96 96v506.181c0 52.957 43.043 96 96 96h331.635v-52.364h-331.635c-24.052 0-43.636-19.584-43.636-43.636v-506.181c0-24.051 19.584-43.635 43.636-43.635h506.18c24.055 0 43.639 19.584 43.639 43.635v331.635h52.361v-331.635c0-52.958-43.042-96-96-96z" />
<glyph unicode="&#xe90e;" glyph-name="Eye" d="M512 571.594c-68.19 0-123.596-55.404-123.596-123.598 0-68.19 55.407-123.593 123.596-123.593s123.597 55.403 123.597 123.593c0 68.194-55.407 123.598-123.597 123.598zM502.622 484.651c-15.343 0-28.126-12.787-28.126-28.13h-40.917c0.853 38.357 31.539 69.043 69.043 69.043v-40.913zM887.049 473.566c-41.766 51.998-190.933 221.622-375.049 221.622s-333.283-169.624-375.050-221.622c-11.933-14.49-11.933-35.797 0-51.14 41.767-51.998 190.934-221.623 375.050-221.623s333.282 169.626 375.049 221.623c11.934 14.49 11.934 35.797 0 51.14zM512 268.996c-98.877 0-179.001 80.124-179.001 178.999s80.125 179.001 179.001 179.001c98.876 0 178.999-80.124 178.999-179.001s-80.124-178.999-178.999-178.999z" />
<glyph unicode="&#xe90f;" glyph-name="File" d="M776.516 757.188c-1.856 0-3.315 0-4.638 0-52.096 0-104.192 0-156.284 0-12.331 0-18.295 5.833-18.295 18.293 0 49.841 0 99.815-0.132 149.656 0 1.193 0 2.386 0 4.109-1.591 0-2.782 0-4.109 0-180.542 0-360.951 0-541.494 0-12.46 0-20.546-7.953-20.546-20.414 0-307.134 0-614.267 0-921.403 0-12.459 8.086-20.412 20.944-20.412 63.23 0 126.459 0 189.821 0 170.998 0 341.995 0 512.994 0 8.747 0 15.906 2.914 19.75 11.136 1.327 2.914 1.856 6.362 1.856 9.545 0.132 15.505 0 30.882 0.132 46.391 0.132 11.533 11.268 18.825 21.606 14.187 5.568-2.522 9.015-6.895 9.148-13.124 0.132-17.498 0.397-34.863-0.132-52.361-0.798-24.657-22.272-45.999-46.925-46.528-25.984-0.529-52.096-0.132-78.208-0.132-210.368 0-420.604 0-630.971 0-25.981 0-46.395 17.365-50.372 42.948-0.398 2.786-0.53 5.7-0.53 8.619 0 306.735 0 613.735-0.133 920.604 0 26.379 18.558 47.323 42.020 51.034 2.784 0.398 5.7 0.663 8.484 0.663 146.608 0 293.215 0 439.821 0 40.166 0 80.333-0.133 120.495 0 15.113 0 27.571-5.302 38.31-15.907 40.828-40.43 81.92-80.727 122.748-121.157 7.821-7.688 15.509-15.377 23.33-22.932 8.218-7.953 12.062-17.498 11.93-29.030-0.265-55.409-0.132-110.817-0.132-166.226 0-8.351-4.774-14.581-12.331-16.040-9.54-1.856-18.159 4.905-18.423 14.581-0.132 6.097 0 12.195 0 18.16 0 43.876 0 87.62 0 131.496 0.265 1.326 0.265 2.519 0.265 4.242zM628.318 788.207c44.937 0 89.609 0 134.942 0-45.201 44.539-89.741 88.548-134.942 133.087 0-44.937 0-88.813 0-133.087zM683.196 528.132c92.523 0 185.050 0 277.572 0 21.739 0 39.236-8.486 51.964-26.116 7.424-10.338 10.999-22.003 10.999-34.726 0-97.033 0-194.065 0-291.098 0-8.747 0.132-17.365-2.385-25.98-7.689-26.513-31.415-44.275-59.119-44.407-74.231 0-148.595 0-222.827 0-111.616 0-223.228 0-334.84 0-30.223 0-55.144 20.416-60.711 50.24-0.795 3.977-0.928 8.085-0.928 12.194 0 99.153 0 198.306 0 297.459 0 35.657 26.511 62.434 62.302 62.566 76.483 0.132 152.972 0 229.456 0 16.038-0.132 32.341-0.132 48.516-0.132zM683.328 136.823c92.787 0 185.711 0 278.502 0 1.856 0 3.712 0 5.564 0.397 15.377 2.654 25.318 14.583 25.318 30.754 0 35.127 0 70.255 0 105.25 0 64.158 0 128.316-0.132 192.341 0 3.844-0.529 7.821-1.719 11.401-4.245 12.591-15.509 20.147-29.299 20.147-141.7 0-283.537 0-425.242 0-44.139 0-88.282 0-132.422 0-17.1 0-30.223-13.124-30.223-30.225 0-99.947 0-199.761 0-299.708 0-3.58 0.53-7.292 1.723-10.739 4.374-12.459 15.509-19.75 29.56-19.75 92.923 0.132 185.578 0.132 278.37 0.132zM619.968 318.293c0 19.887 0 39.77 0 59.652 0 11.93 5.965 17.894 17.894 17.894 13.786 0 27.571 0.529 41.357-0.132 31.151-1.591 52.89-17.762 65.22-45.862 16.171-37.116 1.19-81.126-33.404-99.951-10.871-5.965-22.669-8.614-34.863-8.747-12.992-0.265-25.98-0.132-39.104 0-11.004 0-17.101 6.229-17.101 17.365 0 19.75 0 39.765 0 59.78zM650.987 272.299c10.074 0 19.75-0.265 29.427 0.132 7.689 0.265 14.579 3.315 20.813 7.821 15.108 11.136 22.268 31.151 17.361 50.108-4.506 17.498-15.241 29.427-33.271 33.536-5.965 1.323-12.459 0.794-18.82 1.058-5.171 0.132-10.338 0-15.509 0 0-31.283 0-61.901 0-92.655zM505.57 297.873c0-1.591 0-2.786 0-3.977 0-12.062 0-23.996 0-36.058 0-9.809-6.626-16.969-15.642-16.832-8.883 0.132-15.377 7.155-15.377 16.832 0 40.299 0 80.597 0 120.759 0 10.739 6.362 17.101 17.101 17.101 17.63-0.132 35.392 0.397 52.89-0.661 15.642-0.93 29.692-6.895 39.104-20.416 15.642-22.532 8.085-54.878-15.774-68.267-9.809-5.568-20.412-8.218-31.548-8.482-8.482-0.132-16.969 0-25.451 0-1.591 0-3.183 0-5.303 0zM505.835 328.892c11.004 0 21.606-0.265 32.081 0.132 3.977 0.132 8.085 1.327 11.797 2.782 9.011 3.447 12.855 11.401 10.735 20.813-1.587 6.494-6.626 9.412-12.326 10.47-5.965 1.195-12.194 1.327-18.423 1.591-7.957 0.265-15.778 0-23.863 0 0-12.062 0-23.727 0-35.789zM819.063 364.817c0-10.475 0-20.681 0-31.151 5.039 0 9.946 0 14.98 0 12.86 0 25.583 0.132 38.443 0 7.159-0.132 13.124-4.907 14.848-11.533 1.719-6.63-1.062-13.918-7.159-16.969-2.786-1.459-6.229-2.253-9.412-2.253-15.906-0.265-31.812-0.132-47.723-0.132-1.19 0-2.385 0-3.977 0 0-1.459 0-2.654 0-3.844 0-13.653 0-27.439 0-41.092 0-9.809-6.626-16.969-15.774-16.836-8.879 0.132-15.245 7.159-15.245 16.969 0 40.294 0 80.593 0 120.892 0 10.603 6.366 16.964 16.836 16.964 25.98 0 51.831 0 77.811 0 8.482 0 14.716-5.035 16.038-12.855 1.591-9.412-5.431-18.027-15.108-18.027-20.151-0.132-40.431 0-60.582 0-1.19-0.132-2.385-0.132-3.977-0.132z" />
<glyph unicode="&#xe910;" glyph-name="Globe" d="M919.919 206.989c1.105 1.293 1.958 2.773 2.522 4.378 41.634 71.91 63.561 153.536 63.561 236.634 0 83.093-21.926 164.719-63.561 236.63-0.563 1.602-1.417 3.086-2.522 4.376-61.577 103.84-160.307 180.404-276.207 214.192-1.178 0.538-2.428 0.907-3.712 1.096-83.699 23.608-172.301 23.608-256 0-1.263-0.179-2.496-0.529-3.664-1.040-115.93-33.786-214.684-110.373-276.256-214.248-1.104-1.29-1.958-2.774-2.52-4.376-41.635-71.912-63.56-153.537-63.56-236.63 0-83.098 21.925-164.723 63.56-236.634 0.562-1.604 1.417-3.085 2.52-4.378 61.525-103.795 160.177-180.348 276-214.174 1.224-0.546 2.519-0.917 3.848-1.097 83.724-23.62 172.355-23.62 256.080 0 1.395 0.175 2.761 0.563 4.041 1.143 115.763 33.847 214.362 110.379 275.87 214.127v0zM525.999 2.351v199.646h191.305c-20.8-76.079-50.726-139.294-87.125-184-33.984-9.327-68.954-14.579-104.179-15.646v0zM393.824 18.014c-36.4 44.689-66.328 107.895-87.128 184h191.305v-199.646c-35.226 1.067-70.195 6.319-104.177 15.646v0zM66.353 434.014h61.648v-110.016c0.002-3.712 1.478-7.27 4.103-9.899 2.625-2.624 6.185-4.1 9.897-4.1h114.52c3.712-27.383 8.528-54.161 14.4-80h-147.8c-35.139 62.409-54.618 132.407-56.768 203.998v0.017zM123.153 666.014h147.776c-5.88-25.84-10.696-52.624-14.4-80h-114.528c-1.84-0.001-3.661-0.364-5.36-1.069s-3.243-1.738-4.543-3.039c-1.3-1.302-2.331-2.846-3.034-4.547s-1.064-3.522-1.063-5.361v-109.999h-61.648c2.15 71.589 21.629 141.589 56.768 203.999l0.032 0.016zM498.001 893.646v-199.648h-191.305c20.8 76.080 50.728 139.296 87.128 184 33.981 9.329 68.951 14.582 104.177 15.648v0zM630.178 877.982c36.399-44.688 66.325-107.896 87.125-184h-191.305v199.664c35.226-1.072 70.195-6.33 104.179-15.664v0zM957.649 461.982h-61.649v110.016c0 3.712-1.476 7.272-4.1 9.897-2.628 2.625-6.187 4.101-9.899 4.103h-114.522c-3.712 27.384-8.529 54.16-14.4 80h147.802c35.14-62.41 54.618-132.41 56.768-203.999v-0.017zM900.847 229.982h-147.776c5.879 25.839 10.697 52.625 14.4 80h114.53c1.839 0 3.661 0.367 5.359 1.071s3.243 1.737 4.544 3.038c1.301 1.301 2.33 2.846 3.034 4.548 0.704 1.698 1.062 3.52 1.062 5.359v109.999h61.649c-2.15-71.59-21.628-141.589-56.768-203.998l-0.034-0.017zM525.969 229.982v80h213.231c-3.831-27.447-8.798-54.234-14.895-80h-198.336zM156 337.997v220.001h712.002v-220.001h-712.002zM739.2 585.998h-213.201v80h198.327c6.076-25.76 11.059-52.552 14.874-80v0zM497.975 665.998v-80h-213.175c3.832 27.448 8.8 54.232 14.896 80h198.279zM284.8 309.999h213.201v-80h-198.329c-6.072 25.766-11.056 52.553-14.872 80v0zM675.648 33.199c32.141 52.271 55.974 109.214 70.639 168.798h137.515c-50.564-76.16-123.204-135.049-208.179-168.768l0.026-0.030zM883.802 693.998h-137.536c-14.677 59.581-38.507 116.525-70.643 168.8 84.971-33.735 157.598-92.632 208.154-168.8h0.026zM348.401 862.798c-32.136-52.274-55.966-109.218-70.64-168.8h-137.536c50.558 76.161 123.186 135.050 208.152 168.776l0.024 0.024zM140.224 201.997h137.512c14.668-59.58 38.495-116.527 70.632-168.798-84.964 33.737-157.589 92.634-208.144 168.798v0zM366.309 422.494l-27.824 84.506h-23.36l-27.992-84.506-25.248 84.506h-23.536l37.448-117.999h21.296l29.712 87.59 29.544-87.59h21.472l37.264 117.999h-23.528l-25.248-84.506zM541.636 389.001h21.466l37.269 117.999h-23.535l-25.242-84.506-27.823 84.506h-23.36l-28.002-84.506-25.237 84.506h-23.537l37.442-117.999h21.303l29.709 87.59 29.547-87.59zM667.657 389.001l29.705 87.59 29.542-87.59h21.47l37.274 117.999h-23.535l-25.25-84.506-27.823 84.506h-23.36l-27.994-84.506-25.246 84.506h-23.526l37.44-117.999h21.303z" />
<glyph unicode="&#xe911;" glyph-name="Information" d="M1024 448c0-282.769-229.231-512-512-512s-512 229.231-512 512c0 282.77 229.23 512 512 512s512-229.23 512-512zM512 550.4c28.275 0 51.2 22.923 51.2 51.2s-22.925 51.2-51.2 51.2c-28.275 0-51.2-22.923-51.2-51.2s22.925-51.2 51.2-51.2zM563.2 243.529v204.143c0 13.666-5.393 26.773-14.997 36.437-9.6 9.664-22.622 15.091-36.203 15.091s-26.603-5.427-36.203-15.091c-9.604-9.664-14.997-22.771-14.997-36.437v-204.143c0-13.666 5.393-26.773 14.997-36.437 9.6-9.664 22.622-15.091 36.203-15.091s26.603 5.427 36.203 15.091c9.604 9.664 14.997 22.771 14.997 36.437z" />
<glyph unicode="&#xe912;" glyph-name="Layout" d="M841.143 960h-658.287c-100.939-0.12-182.737-81.917-182.857-182.857v-658.287c0.12-100.941 81.917-182.737 182.857-182.857h658.287c100.941 0.119 182.737 81.916 182.857 182.857v658.287c-0.119 100.939-81.916 182.737-182.857 182.857zM475.43 9.143h-292.574c-60.593 0-109.714 49.118-109.714 109.713v658.287c0 60.593 49.121 109.714 109.714 109.714h292.57v-877.714h0.004zM950.857 118.857c0-60.595-49.118-109.713-109.713-109.713h-292.57v402.283h402.283v-292.57zM950.857 484.57h-402.283v402.288h292.57c60.595 0 109.713-49.121 109.713-109.714v-292.574z" />
<glyph unicode="&#xe913;" glyph-name="Question-Mark" d="M512 152.998c27.614 0 50.001 22.387 50.001 50.001s-22.387 50.001-50.001 50.001c-27.614 0-50.001-22.387-50.001-50.001s22.387-50.001 50.001-50.001zM512 960c-282.968 0-512-228.994-512-512 0-282.97 228.994-512 512-512 282.97 0 512 228.992 512 512 0 282.968-228.992 512-512 512zM512 16c-238.754 0-432 193.216-432 432 0 238.754 193.214 432 432 432 238.754 0 432-193.214 432-432 0-238.754-193.216-432-432-432zM512 703c-88.224 0-160-71.776-160-160 0-22.091 17.908-39.998 40-39.998s40 17.907 40 39.998c0 44.112 35.887 80 80 80s80-35.888 80-80c0-44.111-35.887-79.998-80-79.998-22.093 0-40-17.911-40-40v-100.002c0-22.093 17.907-40 40-40s40 17.907 40 40v65.062c68.932 17.805 120 80.521 120 154.938 0 88.224-71.778 160-160 160z" />
<glyph unicode="&#xe914;" glyph-name="Redo" d="M1024.009 551.286l-396.587-301.452v158.289c-272.547 26.163-534.24-78.114-627.409-364.868-1.025 368.875 302.824 577.884 627.409 648.496v160.988l396.587-301.453z" />
<glyph unicode="&#xe915;" glyph-name="Refesh" d="M1023.748 512v448l-150.4-150.399c-92.48 92.799-220.164 150.399-361.604 150.399-282.878 0-511.359-229.119-511.359-512 0-282.884 228.48-512.004 511.359-512.004 238.404 0 438.084 163.2 494.724 384h-133.12c-52.8-149.12-194.244-255.996-361.6-255.996-212.16 0-384.001 171.84-384.001 384s171.84 383.999 384.001 383.999c105.92 0 200.96-44.16 270.4-113.601l-206.4-206.402 448 0.004z" />
<glyph unicode="&#xe916;" glyph-name="Remove-User" d="M966.554 301.423c-76.57 76.561-200.704 76.561-277.265 0-76.565-76.565-76.565-200.7 0-277.269 76.565-76.561 200.7-76.561 277.265 0 76.561 76.57 76.561 200.704 0 277.269zM928.021 92.86l-30.165-30.165-69.926 69.926-69.931-69.926-30.165 30.165 69.926 69.926-69.926 69.926 30.165 30.17 69.931-69.931 69.926 69.931 30.165-30.17-69.926-69.926 69.926-69.926zM450.355 504.141c117.397 0 212.565 95.168 212.565 212.564s-95.168 212.566-212.565 212.566c-117.395 0-212.564-95.169-212.564-212.566s95.169-212.564 212.564-212.564zM786.53 397.73c-24.683 27.708-52.489 52.57-83.268 73.493-3.349 2.274-10.091 6.656-10.091 6.656-54.34-75.443-142.929-124.646-242.799-124.646-99.883 0-188.48 49.22-242.816 124.672 0 0-5.668-3.708-8.485-5.602-120.085-80.892-199.071-218.121-199.071-373.798v-47.223h616.879c-47.543 90.155-33.468 204.565 42.27 280.303 35.157 35.149 79.39 57.792 127.381 66.146z" />
<glyph unicode="&#xe917;" glyph-name="right-arrow-6-1" d="M526.955 759.177c-12.787 12.176-33.058 11.696-45.235-1.104-12.19-12.8-11.678-33.056 1.105-45.248l245.474-232.816h-525.632c-17.664 0-32-14.336-32-32s14.336-32 32-32h524.608l-244.45-232.832c-12.8-12.19-13.295-32.448-1.105-45.248 6.289-6.592 14.72-9.92 23.168-9.92 7.936 0 15.872 2.927 22.067 8.832l279.181 265.92c12.096 12.079 18.752 28.143 18.752 45.248s-6.656 33.169-19.311 45.794l-278.622 265.374z" />
<glyph unicode="&#xe918;" glyph-name="Rocket" d="M722.3 313.378l-71.962 58.253c10.496 44.215 15.817 91.755 15.817 141.316 0 158.842-111.808 305.278-148.941 318.176-3.392 1.169-7.057 1.169-10.449 0-37.133-12.898-148.941-159.334-148.941-318.176 0-49.562 5.323-97.109 15.834-141.316l-71.969-58.253c-4.305-3.486-6.484-8.969-5.76-14.455l29.36-221.094c0.827-6.263 5.275-11.443 11.338-13.193 6.087-1.754 12.588 0.23 16.646 5.077l114.682 137.054c28.19-17.212 59.887-17.212 88.081 0l114.662-137.054c3.081-3.669 7.569-5.709 12.207-5.709 1.481 0 2.965 0.209 4.437 0.631 6.063 1.758 10.505 6.929 11.341 13.193l29.359 221.094c0.742 5.478-1.438 10.97-5.743 14.455zM512 516.77c-35.153 0-63.65 28.499-63.65 63.652s28.497 63.654 63.65 63.654c35.153 0 63.654-28.501 63.654-63.654s-28.501-63.652-63.654-63.652z" />
<glyph unicode="&#xe919;" glyph-name="Search" d="M1012.335 3.964l-249.903 249.899c62.118 74.701 99.541 170.62 99.541 275.136 0 237.656-193.34 431.002-430.985 431.002-237.649 0-430.989-193.346-430.989-431.002 0-237.636 193.34-430.967 430.989-430.967 104.512 0 200.439 37.419 275.136 99.537l249.911-249.907c7.77-7.774 17.963-11.661 28.151-11.661 10.185 0 20.378 3.887 28.156 11.661 15.548 15.548 15.548 40.755-0.009 56.303zM79.625 528.998c0 193.751 157.62 351.377 351.364 351.377 193.737 0 351.356-157.626 351.356-351.377 0-193.732-157.619-351.343-351.356-351.343-193.743 0-351.364 157.611-351.364 351.343z" />
<glyph unicode="&#xe91a;" glyph-name="Setting" d="M1000.324 313.344l-108.032 84.736c2.048 16.384 3.584 33.024 3.584 49.92s-1.536 33.536-3.584 49.92l108.288 84.738c9.728 7.68 12.548 21.504 6.144 32.767l-102.4 177.408c-6.4 11.009-19.712 15.617-31.232 11.009l-127.488-51.456c-26.368 20.225-55.296 37.375-86.524 50.431l-19.2 135.679c-2.308 12.031-12.804 21.504-25.604 21.504h-204.797c-12.799 0-23.297-9.473-25.344-21.504l-19.2-135.679c-31.231-13.056-60.161-29.952-86.527-50.431l-127.488 51.456c-11.52 4.351-24.833 0-31.231-11.009l-102.403-177.408c-6.401-11.009-3.583-24.833 6.144-32.767l108.031-84.738c-2.047-16.384-3.583-33.024-3.583-49.92s1.536-33.536 3.583-49.92l-108.031-84.736c-9.727-7.68-12.545-21.504-6.144-32.768l102.401-177.408c6.401-11.008 19.711-15.616 31.231-11.008l127.488 51.456c26.369-20.224 55.296-37.376 86.527-50.432l19.2-135.676c2.047-12.032 12.545-21.504 25.344-21.504h204.8c12.8 0 23.296 9.472 25.344 21.504l19.2 135.676c31.232 13.056 60.16 29.952 86.528 50.432l127.488-51.456c11.52-4.352 24.832 0 31.228 11.008l102.404 177.408c6.4 11.008 3.584 24.832-6.144 32.768zM511.876 268.8c-99.071 0-179.2 80.128-179.2 179.2s80.129 179.2 179.2 179.2c99.072 0 179.2-80.129 179.2-179.2 0-99.072-80.128-179.2-179.2-179.2z" />
<glyph unicode="&#xe91b;" glyph-name="Signal" d="M139.636-64c-76.996 0-139.636 62.639-139.636 139.635s62.64 139.635 139.636 139.635c76.996 0 139.636-62.639 139.636-139.635s-62.64-139.635-139.636-139.635zM581.811 5.815c-38.558 0-69.815 31.262-69.815 69.82 0 205.321-167.041 372.365-372.365 372.365-38.558 0-69.818 31.258-69.818 69.815 0 38.56 31.26 69.82 69.818 69.82 136.762 0 265.334-53.258 362.040-149.961 96.704-96.704 149.961-225.28 149.961-362.039 0-38.558-31.262-69.82-69.82-69.82zM954.176 5.82c-38.558 0-69.815 31.258-69.815 69.815 0 410.645-334.084 744.729-744.73 744.729-38.558 0-69.818 31.26-69.818 69.818s31.26 69.818 69.818 69.818c119.356 0 235.182-23.392 344.252-69.528 105.318-44.546 199.893-108.302 281.084-189.498 81.199-81.196 144.956-175.764 189.5-281.083 46.135-109.073 69.53-224.896 69.53-344.256 0-38.558-31.262-69.815-69.82-69.815z" />
<glyph unicode="&#xe91c;" glyph-name="Tick-Outline" d="M660.348 555.621l-199.578-190.172-95.085 98.223c-12.539 12.535-32.392 12.535-43.886 1.041-12.539-12.535-12.538-32.388-1.045-43.883l117.027-120.162c6.272-6.272 14.63-9.404 21.943-9.404 7.317 0 15.676 3.132 21.943 8.358l222.566 211.068c12.535 11.494 13.581 31.347 1.041 43.886-12.535 12.538-32.388 12.538-44.928 1.045zM511.983 813.708c-213.16 0-386.613-173.453-386.613-386.611 0-213.163 173.453-386.615 386.613-386.615 213.158 0 386.611 173.453 386.611 386.615 0 213.158-173.453 386.611-386.611 386.611zM511.983 103.177c-178.679 0-323.919 145.242-323.919 323.921 0 178.676 145.241 323.917 323.919 323.917 178.675 0 323.917-145.241 323.917-323.917 0-178.679-145.242-323.921-323.917-323.921z" />
<glyph unicode="&#xe91d;" glyph-name="Tick" d="M0 415.326l350.662-351.33 673.338 672.672-96.67 95.332-576.668-576-255.333 255.33-95.33-96.004z" />
<glyph unicode="&#xe91e;" glyph-name="Upload" d="M760.973 582.72c-3.145-0.683-6.315-1.371-9.523-2.039-0.073 0.186-0.158 0.386-0.247 0.598-0.239 0.573-0.516 1.225-0.717 1.878-17.673 49.038-45.666 91.336-84.386 126.205-52.203 47.043-113.485 73.385-183.565 79.025-27.307 2.201-54.473 0.55-81.296-4.815-56.328-11.211-105.847-36.108-148.352-74.761-41.954-38.24-71.184-84.664-88.103-138.86-0.688-2.269-1.651-3.37-4.058-3.852-19.464-3.852-37.965-10.729-55.296-20.358-39.134-21.804-68.158-52.959-86.865-93.603-16.438-35.627-21.733-73.041-16.782-111.902 3.095-24.141 10.317-47.044 21.733-68.365 19.464-36.382 47.181-64.58 83.564-84.181 28.336-15.339 58.735-23.386 90.923-23.727 27.069-0.294 54.138-0.239 81.207-0.183 10.827 0.021 21.654 0.043 32.481 0.043 21.871 0 37.965 16.439 37.484 38.31-0.413 17.399-15.2 33.357-32.6 34.458-7.243 0.431-14.528 0.397-21.789 0.363-1.978-0.009-3.954-0.021-5.928-0.021-9.265 0.026-18.537 0.034-27.814 0.038-18.547 0.017-37.114 0.034-55.681 0.171-7.221 0-14.512 0.205-21.664 1.237-31.156 4.403-57.36 18.569-77.856 42.227-28.13 32.465-37.896 70.221-29.987 112.384 10.66 56.602 59.354 100.070 116.439 103.714 22.49 1.446 33.839 15.68 36.864 29.781 12.105 56.259 40.166 102.958 85.352 138.585 54.746 43.123 117.059 58.942 185.765 47.456 45.461-7.566 85.146-27.855 118.916-59.354 38.033-35.42 61.901-78.818 72.009-129.784 5.022-25.31 32.256-37.892 54.677-25.101 18.091 10.317 37.555 16.367 58.394 17.745 27.785 1.856 53.713-4.198 77.649-18.227 49.933-29.299 76.548-86.383 67.127-143.398-6.605-40.030-26.688-71.599-60.113-94.43-21.047-14.374-44.565-22.012-70.084-22.767-10.159-0.311-20.279-0.273-30.421-0.23-3.379 0.013-6.767 0.026-10.155 0.026-17.749-0.030-35.482-0.021-53.214-0.013-23.637 0.009-47.275 0.021-70.929-0.060-22.421-0.068-39.27-19.529-36.314-41.609 2.338-17.95 17.882-31.569 36.245-31.569 14.592 0 29.188-0.013 43.785-0.030 38.912-0.043 77.824-0.081 116.74 0.166 11.759 0.073 23.727 1.033 35.281 3.098 49.519 8.87 91.059 32.461 123.319 71.044 41.95 50.142 57.907 108.186 47.936 172.838-7.633 49.314-30.537 90.854-67.541 124.417-33.562 30.468-73.178 48.075-118.293 52.958-17.95 1.995-35.972 1.719-53.786-1.376-6.848-1.181-13.632-2.653-20.531-4.151zM522.078 321.463v19.806c1.169-1.101 1.788-1.651 2.27-2.061 4.348-4.322 8.67-8.661 12.996-13.005 6.485-6.511 12.975-13.022 19.533-19.46 11.076-10.867 24.486-15.061 39.616-11.209 30.605 7.77 40.853 45.53 18.364 68.224-35.49 35.836-71.253 71.39-107.017 106.88-15.612 15.475-41.126 15.612-56.742 0.068-27.361-27.213-54.618-54.498-81.87-81.779-10.902-10.914-21.804-21.824-32.71-32.734-1.169-1.169-1.376-2.061-0.619-3.575 0.55-1.237 0.826-2.889 0.482-4.126-1.513-5.986-1.926-12.036-0.688-18.018 3.439-16.166 12.861-27.307 28.611-32.119 15.819-4.885 29.849-0.964 41.541 10.726 10.454 10.526 20.908 21.047 31.361 31.501 0.405 0.448 0.862 0.845 1.404 1.323 0.38 0.333 0.802 0.704 1.28 1.152v-4.194c0-24.738-0.009-49.472-0.017-74.202-0.013-49.451-0.030-98.889 0.017-148.361 0-3.025 0.205-6.191 0.823-9.148 4.471-21.321 23.731-34.799 46.012-32.324 19.81 2.202 35.354 20.083 35.354 40.785v205.85z" />
<glyph unicode="&#xe91f;" glyph-name="rightarrowblack" horiz-adv-x="717" d="M182.319 908.8l-108.669-108.673 352.127-352.127-352.127-352.127 108.669-108.673 460.8 460.8-460.8 460.8z" />
<glyph unicode="&#xea0d;" glyph-name="cancel-circle" d="M512 960c-282.77 0-512-229.23-512-512s229.23-512 512-512 512 229.23 512 512-229.23 512-512 512zM512 32c-229.75 0-416 186.25-416 416s186.25 416 416 416 416-186.25 416-416-186.25-416-416-416zM672 704l-160-160-160 160-96-96 160-160-160-160 96-96 160 160 160-160 96 96-160 160 160 160z" />
</font>
</defs>
</svg>
