<svg width="20" height="20" viewBox="0 0 20 20" fill="none" xmlns="http://www.w3.org/2000/svg">
<path fill-rule="evenodd" clip-rule="evenodd" d="M5.7142 3.33331H14.2856C14.9169 3.33407 15.522 3.58516 15.9684 4.03151C16.4147 4.47786 16.6658 5.08303 16.6666 5.71427V14.2857C16.6658 14.9169 16.4147 15.5221 15.9684 15.9684C15.522 16.4148 14.9169 16.6659 14.2856 16.6666H5.7142C5.08297 16.6659 4.4778 16.4148 4.03145 15.9684C3.5851 15.5221 3.33401 14.9169 3.33325 14.2857V5.71427C3.33401 5.08303 3.5851 4.47786 4.03145 4.03151C4.4778 3.58516 5.08297 3.33407 5.7142 3.33331ZM15.2958 15.2958C15.5637 15.0279 15.7142 14.6646 15.7142 14.2857V5.71427C15.7142 5.33538 15.5637 4.97202 15.2958 4.70411C15.0279 4.4362 14.6645 4.28569 14.2856 4.28569H5.7142C5.33532 4.28569 4.97196 4.4362 4.70405 4.70411C4.43614 4.97202 4.28563 5.33538 4.28563 5.71427V14.2857C4.28563 14.6646 4.43614 15.0279 4.70405 15.2958C4.97196 15.5638 5.33532 15.7143 5.7142 15.7143H14.2856C14.6645 15.7143 15.0279 15.5638 15.2958 15.2958ZM10.4443 9.55551H12.2221C12.34 9.55551 12.453 9.60234 12.5364 9.68569C12.6197 9.76904 12.6666 9.88208 12.6666 9.99996C12.6666 10.1178 12.6197 10.2309 12.5364 10.3142C12.453 10.3976 12.34 10.4444 12.2221 10.4444H10.4443V12.2222C10.4443 12.3401 10.3975 12.4531 10.3142 12.5365C10.2308 12.6198 10.1178 12.6666 9.9999 12.6666C9.88202 12.6666 9.76898 12.6198 9.68563 12.5365C9.60228 12.4531 9.55545 12.3401 9.55545 12.2222V10.4444H7.77768C7.6598 10.4444 7.54676 10.3976 7.46341 10.3142C7.38006 10.2309 7.33323 10.1178 7.33323 9.99996C7.33323 9.88208 7.38006 9.76904 7.46341 9.68569C7.54676 9.60234 7.6598 9.55551 7.77768 9.55551H9.55545V7.77774C9.55545 7.65986 9.60228 7.54682 9.68563 7.46347C9.76898 7.38012 9.88202 7.33329 9.9999 7.33329C10.1178 7.33329 10.2308 7.38012 10.3142 7.46347C10.3975 7.54682 10.4443 7.65986 10.4443 7.77774V9.55551Z" fill="#1F3B52"/>
</svg>
