<svg width="20" height="20" viewBox="0 0 20 20" fill="none" xmlns="http://www.w3.org/2000/svg">
<path fill-rule="evenodd" clip-rule="evenodd" d="M11.9687 5.73438C11.9687 7 13 8.03125 14.2656 8.03125C15.5312 8.03125 16.5625 7 16.5625 5.73438C16.5625 4.46875 15.5312 3.4375 14.2656 3.4375C13 3.4375 11.9687 4.46875 11.9687 5.73438ZM12.6719 5.73438C12.6719 4.84375 13.375 4.14062 14.2656 4.14062C15.1562 4.14062 15.8594 4.84375 15.8594 5.73438C15.8594 6.625 15.1562 7.32812 14.2656 7.32812C13.375 7.32812 12.6719 6.625 12.6719 5.73438ZM5.59375 16.5625H12.8125C13.9844 16.5625 14.9219 15.625 15.0156 14.4063V10C15.0156 9.76564 14.875 9.62501 14.6406 9.62501C14.4062 9.62501 14.2656 9.81251 14.2656 10V14.4063C14.2656 15.2031 13.6094 15.8594 12.8125 15.8594H5.59375C4.79688 15.8594 4.14063 15.2031 4.14063 14.4063V7.18751C4.14063 6.39064 4.79688 5.78126 5.59375 5.78126H10C10.1875 5.78126 10.375 5.64064 10.375 5.40626C10.375 5.17189 10.1875 5.03126 10 5.03126H5.59375C4.375 5.03126 3.4375 6.01564 3.4375 7.18751V14.4063C3.4375 15.625 4.375 16.5625 5.59375 16.5625Z" fill="#1F3B52"/>
</svg>
