<svg width="32" height="32" viewBox="0 0 32 32" fill="none" xmlns="http://www.w3.org/2000/svg">
<path d="M26.56 21.812H5.44C4.64596 21.812 4 21.1661 4 20.372V10.772C4 9.97799 4.64596 9.33203 5.44 9.33203H26.56C27.354 9.33203 28 9.97799 28 10.772V20.372C28 21.1661 27.354 21.812 26.56 21.812ZM5.44 10.292C5.17534 10.292 4.96 10.5074 4.96 10.772V20.372C4.96 20.6367 5.17534 20.852 5.44 20.852H26.56C26.8247 20.852 27.04 20.6367 27.04 20.372V10.772C27.04 10.5074 26.8247 10.292 26.56 10.292H5.44Z" fill="#C0C0C0"/>
<path d="M16.4795 9.8125H15.5195V21.3325H16.4795V9.8125Z" fill="#C0C0C0"/>
<path d="M21.7594 17.2117L19.5 14.9523L20.1788 14.2734L21.7594 15.854L23.34 14.2734L24.0188 14.9523L21.7594 17.2117Z" fill="#C0C0C0"/>
</svg>
