<svg width="32" height="32" viewBox="0 0 32 32" fill="none" xmlns="http://www.w3.org/2000/svg">
<path fill-rule="evenodd" clip-rule="evenodd" d="M5 4C4.44772 4 4 4.44771 4 5V9.31579C4 9.86807 4.44772 10.3158 5 10.3158H25.7368C26.2891 10.3158 26.7368 9.86807 26.7368 9.31579V5C26.7368 4.44772 26.2891 4 25.7368 4H5ZM5.76377 5.26377C5.48763 5.26377 5.26377 5.48763 5.26377 5.76377V8.55325C5.26377 8.82939 5.48763 9.05325 5.76378 9.05325H24.9743C25.2504 9.05325 25.4743 8.82939 25.4743 8.55325V5.76377C25.4743 5.48763 25.2504 5.26377 24.9743 5.26377H5.76377ZM4 22.6837C4 22.1314 4.44772 21.6837 5 21.6837H14.3684C14.9207 21.6837 15.3684 22.1314 15.3684 22.6837V26.9995C15.3684 27.5518 14.9207 27.9995 14.3684 27.9995H5C4.44772 27.9995 4 27.5518 4 26.9995V22.6837ZM4 13.8425C4 13.2902 4.44772 12.8425 5 12.8425H25.7368C26.2891 12.8425 26.7368 13.2902 26.7368 13.8425V18.1583C26.7368 18.7106 26.2891 19.1583 25.7368 19.1583H5C4.44772 19.1583 4 18.7106 4 18.1583V13.8425ZM5.26377 14.6063C5.26377 14.3301 5.48763 14.1063 5.76377 14.1063H24.9743C25.2504 14.1063 25.4743 14.3301 25.4743 14.6063V17.3958C25.4743 17.6719 25.2504 17.8958 24.9743 17.8958H5.76378C5.48763 17.8958 5.26377 17.6719 5.26377 17.3958V14.6063Z" fill="#C0C0C0"/>
</svg>
