<svg width="32" height="32" viewBox="0 0 32 32" fill="none" xmlns="http://www.w3.org/2000/svg">
<path fill-rule="evenodd" clip-rule="evenodd" d="M16 10.0448C19.2889 10.0448 21.9552 12.7111 21.9552 16C21.9552 19.2889 19.2889 21.9552 16 21.9552C12.7111 21.9552 10.0448 19.2889 10.0448 16C10.0448 12.7111 12.7111 10.0448 16 10.0448ZM16 4C19.3133 4 22.3137 5.34306 24.4851 7.51488C26.6569 9.68631 28 12.6867 28 16C28 19.3133 26.6569 22.3137 24.4851 24.4851C22.3139 26.6564 19.3133 28 16 28C12.6867 28 9.68613 26.6564 7.51488 24.4851C5.34306 22.3137 4 19.3133 4 16C4 12.6867 5.34306 9.68631 7.51488 7.51488C9.68631 5.34306 12.6867 4 16 4ZM23.1606 8.83938C21.3284 7.00675 18.7964 5.87331 16 5.87331C13.2036 5.87331 10.6716 7.00675 8.83938 8.83938C7.00675 10.6716 5.87331 13.2036 5.87331 16C5.87331 18.7964 7.00675 21.3284 8.83938 23.1606C10.6716 24.9931 13.2036 26.1267 16 26.1267C18.7964 26.1267 21.3284 24.9931 23.1606 23.1606C24.9933 21.3284 26.1267 18.7964 26.1267 16C26.1267 13.2036 24.9933 10.6716 23.1606 8.83938Z" fill="#C0C0C0"/>
</svg>
