<svg width="22" height="22" viewBox="0 0 22 22" fill="none" xmlns="http://www.w3.org/2000/svg">
<path d="M18.3332 13.4679C18.3332 14.402 17.5736 15.1603 16.6381 15.1603H5.3616C4.42548 15.1603 3.6665 14.403 3.6665 13.4679C3.6665 12.5342 4.42484 11.7756 5.3594 11.7756C5.3583 11.7756 5.35881 8.39081 5.35881 8.39081C5.35881 5.27467 7.884 2.75 10.9998 2.75C14.1157 2.75 16.6409 5.27527 16.6409 8.39081V11.7751C17.5734 11.7756 18.3332 12.5339 18.3332 13.4679ZM16.6403 12.9038C16.0169 12.9038 15.5127 12.3999 15.5127 11.7751V8.39081C15.5127 5.89835 13.4926 3.87821 10.9998 3.87821C8.50704 3.87821 6.48702 5.89781 6.48702 8.39081V11.7751C6.48702 12.3981 5.98155 12.9038 5.3594 12.9038C5.048 12.9038 4.79471 13.1572 4.79471 13.4679C4.79471 13.7793 5.048 14.0321 5.3616 14.0321H16.6381C16.9509 14.0321 17.205 13.7785 17.205 13.4679C17.205 13.1575 16.9508 12.9038 16.6403 12.9038ZM8.46138 16.0064H9.58958C9.58958 16.7853 10.221 17.4167 10.9998 17.4167C11.7787 17.4167 12.4101 16.7853 12.4101 16.0064H13.5383C13.5383 17.4084 12.4018 18.5449 10.9998 18.5449C9.59788 18.5449 8.46138 17.4084 8.46138 16.0064Z" fill="#C0C0C0"/>
<ellipse cx="15.5832" cy="5.50016" rx="3.66667" ry="3.66667" fill="#EB5757"/>
</svg>
