<svg width="20" height="20" viewBox="0 0 20 20" fill="none" xmlns="http://www.w3.org/2000/svg">
<path d="M10.0567 14.237C10.3261 14.237 10.5866 14.1324 10.7722 13.9494L16.3763 8.4297C16.7634 8.04627 16.7634 7.42406 16.3763 7.04062L12.9061 3.6141C12.7259 3.43633 12.4672 3.3335 12.1977 3.3335C11.9283 3.3335 11.6696 3.43633 11.4894 3.6141L5.88535 9.13383C5.63199 9.38481 5.53565 9.74733 5.62843 10.0872L3.68546 12.0044C3.21623 12.4645 3.21623 13.2104 3.68368 13.6706L5.52316 15.4849C5.74618 15.7063 6.05484 15.8335 6.37242 15.8335H14.4975C14.5279 15.8335 14.5511 15.8108 14.5511 15.7812V15.2636C14.5511 15.2339 14.5279 15.2113 14.4975 15.2113H8.79176L9.81231 14.2074C9.89081 14.2266 9.97288 14.237 10.0567 14.237ZM7.66595 15.2113H6.37242C6.22434 15.2113 6.08161 15.152 5.97634 15.0475L4.13508 13.2314C3.91384 13.0135 3.91384 12.6597 4.13686 12.4436L5.98348 10.6205L9.26635 13.8623L8.06025 15.0492C7.95677 15.152 7.81225 15.2113 7.66595 15.2113ZM15.9231 7.99224L10.3208 13.512C10.2548 13.5765 10.162 13.6131 10.0639 13.6131C9.96575 13.6131 9.87297 13.5765 9.80695 13.512L6.33674 10.0872C6.19222 9.94427 6.19222 9.71421 6.33674 9.5713L11.9408 4.05157C12.0104 3.98359 12.1014 3.94699 12.196 3.94699C12.2923 3.94699 12.3833 3.98359 12.4529 4.05157L15.9231 7.47634C16.0676 7.61926 16.0676 7.84932 15.9231 7.99224Z" fill="#C0C0C0"/>
</svg>
