<svg width="24" height="24" viewBox="0 0 24 24" fill="none" xmlns="http://www.w3.org/2000/svg">
<path d="M12.0681 17.0842C12.3914 17.0842 12.704 16.9587 12.9267 16.7391L19.6516 10.1154C20.1162 9.65533 20.1162 8.90867 19.6516 8.44855L15.4873 4.33673C15.2711 4.1234 14.9606 4 14.6373 4C14.314 4 14.0036 4.1234 13.7873 4.33673L7.06244 10.9604C6.75842 11.2616 6.6428 11.6966 6.75414 12.1044L4.42258 14.405C3.8595 14.9572 3.8595 15.8523 4.42044 16.4045L6.62782 18.5817C6.89544 18.8473 7.26584 19 7.64693 19H17.3971C17.4335 19 17.4613 18.9728 17.4613 18.9373V18.3161C17.4613 18.2805 17.4335 18.2533 17.3971 18.2533H10.5501L11.7748 17.0487C11.869 17.0717 11.9675 17.0842 12.0681 17.0842ZM9.19916 18.2533H7.64693C7.46923 18.2533 7.29795 18.1822 7.17163 18.0567L4.96211 15.8774C4.69663 15.616 4.69663 15.1914 4.96426 14.9321L7.1802 12.7444L11.1196 16.6346L9.67233 18.0588C9.54815 18.1822 9.37473 18.2533 9.19916 18.2533ZM19.1077 9.59049L12.385 16.2142C12.3058 16.2916 12.1944 16.3355 12.0767 16.3355C11.9589 16.3355 11.8476 16.2916 11.7684 16.2142L7.60411 12.1044C7.43069 11.9329 7.43069 11.6569 7.60411 11.4854L14.329 4.86168C14.4125 4.78012 14.5217 4.7362 14.6352 4.7362C14.7508 4.7362 14.86 4.78012 14.9435 4.86168L19.1077 8.97142C19.2812 9.14292 19.2812 9.41899 19.1077 9.59049Z" fill="black"/>
</svg>
