<svg width="24" height="24" viewBox="0 0 24 24" fill="none" xmlns="http://www.w3.org/2000/svg">
<path fill-rule="evenodd" clip-rule="evenodd" d="M5 17C4.44772 17 4 16.5523 4 16V6C4 5.44772 4.44771 5 5 5H19C19.5523 5 20 5.44772 20 6V16C20 16.5523 19.5523 17 19 17L5 17ZM5.5 16C5.22386 16 5 15.7761 5 15.5L5 6.5C5 6.22386 5.22386 6 5.5 6L18.5 6C18.7761 6 19 6.22386 19 6.5V15.5C19 15.7761 18.7761 16 18.5 16L5.5 16ZM21 18H3C3 18.5523 3.44772 19 4 19H20C20.5523 19 21 18.5523 21 18Z" fill="#C0C0C0"/>
</svg>
