<svg width="24" height="24" viewBox="0 0 24 24" fill="none" xmlns="http://www.w3.org/2000/svg">
<path fill-rule="evenodd" clip-rule="evenodd" d="M5 4C5 3.44772 5.44769 3 6 3H18C18.5523 3 19 3.44772 19 4V20C19 20.5523 18.5523 21 18 21H6C5.44769 21 5 20.5523 5 20V4ZM6 4.5C6 4.22385 6.22388 4 6.5 4H17.5C17.7761 4 18 4.22385 18 4.5V19.5C18 19.7762 17.7761 20 17.5 20H6.5C6.22388 20 6 19.7762 6 19.5V4.5ZM12 19C12.5523 19 13 18.5523 13 18C13 17.4477 12.5523 17 12 17C11.4477 17 11 17.4477 11 18C11 18.5523 11.4477 19 12 19Z" fill="#C0C0C0"/>
</svg>
