<svg width="20" height="20" viewBox="0 0 20 20" fill="none" xmlns="http://www.w3.org/2000/svg">
<path fill-rule="evenodd" clip-rule="evenodd" d="M5.83333 3.5C5.83333 2.94772 6.28105 2.5 6.83333 2.5H13.1667C13.719 2.5 14.1667 2.94772 14.1667 3.5V16.5C14.1667 17.0523 13.719 17.5 13.1667 17.5H6.83333C6.28105 17.5 5.83333 17.0523 5.83333 16.5V3.5ZM6.66667 3.83333C6.66667 3.55719 6.89052 3.33333 7.16667 3.33333H12.8333C13.1095 3.33333 13.3333 3.55719 13.3333 3.83333V16.1667C13.3333 16.4428 13.1095 16.6667 12.8333 16.6667H7.16667C6.89052 16.6667 6.66667 16.4428 6.66667 16.1667V3.83333ZM10 15.8333C10.4602 15.8333 10.8333 15.4602 10.8333 15C10.8333 14.5398 10.4602 14.1667 10 14.1667C9.53976 14.1667 9.16667 14.5398 9.16667 15C9.16667 15.4602 9.53976 15.8333 10 15.8333Z" fill="#C0C0C0"/>
</svg>
