<svg width="24" height="24" viewBox="0 0 24 24" fill="none" xmlns="http://www.w3.org/2000/svg">
<path fill-rule="evenodd" clip-rule="evenodd" d="M7 4C7 3.44772 7.44769 3 8 3H16C16.5523 3 17 3.44772 17 4V20C17 20.5523 16.5523 21 16 21H8C7.44769 21 7 20.5523 7 20V4ZM8 4.5C8 4.22385 8.22388 4 8.5 4H15.5C15.7761 4 16 4.22385 16 4.5V19.5C16 19.7762 15.7761 20 15.5 20H8.5C8.22388 20 8 19.7762 8 19.5V4.5ZM12 19C12.5523 19 13 18.5523 13 18C13 17.4477 12.5523 17 12 17C11.4477 17 11 17.4477 11 18C11 18.5523 11.4477 19 12 19Z" fill="black"/>
</svg>
