<svg width="253" height="63" viewBox="0 0 253 63" fill="none" xmlns="http://www.w3.org/2000/svg">
<g clip-path="url(#clip0_202_66)">
<path d="M70.454 22.9608V52.8598H63.7104L63.6825 23.7358H51.8324L48.5304 19.8656L50.8418 17.0487H64.8359C68.1147 17.0487 70.454 19.5082 70.454 22.9608ZM38.7406 7.84655C40.9404 7.84655 42.7496 6.10635 42.7496 3.92065C42.7496 1.73959 40.973 -0.00524902 38.7406 -0.00524902C36.5408 -0.00524902 34.7317 1.73495 34.7317 3.92065C34.7363 6.10635 36.5129 7.84655 38.7406 7.84655ZM46.2469 22.7659C45.54 21.9352 44.4982 20.8029 43.3402 19.5314L51.665 10.3014C51.7208 10.2457 51.7208 10.19 51.665 10.1343L50.5907 9.19695C48.4188 7.31753 44.861 7.73054 42.6891 10.1622L38.7406 14.5568C36.285 11.9581 34.3689 9.6378 34.3689 9.6378C32.2528 7.4289 28.7834 7.20615 26.6673 9.14126L25.6256 10.1065C25.5697 10.1343 25.5697 10.2179 25.6256 10.2736C25.6256 10.2736 30.8158 15.6055 33.2714 18.3713C40.2103 26.1906 46.3074 31.9681 46.8143 37.6017C47.2375 42.4093 43.4286 46.1681 38.8011 46.2517C34.4852 46.3352 30.3088 42.3026 30.76 37.908C31.2669 32.7941 35.4712 26.3855 35.4712 26.3855L35.2758 26.1906L26.951 17.0441H12.6407C9.33868 17.0441 6.99936 19.5314 6.99936 22.9562V52.8552H13.7429L13.7708 23.7311H23.8164L27.2022 27.4621C25.5372 30.8312 23.8164 34.2884 23.8164 38.3767C23.8164 46.7204 31.1227 53.1058 38.7732 52.883C47.8607 52.6603 53.5858 45.6995 53.5858 38.2375C53.5811 31.801 48.8978 25.8333 46.2469 22.7659ZM77.2859 56.3124H0.111618C0.0558088 56.3124 0 56.3681 0 56.4237V57.8345C0 60.6791 2.48349 62.9994 5.55763 62.9994H71.8399C74.914 62.9994 77.3975 60.6791 77.3975 57.8345V56.4237C77.3975 56.3681 77.3696 56.3124 77.2859 56.3124Z" fill="#4A4F54"/>
<path d="M196.815 38.0524C196.815 36.238 194.88 34.8365 192.503 34.8365C190.076 34.8365 188.304 36.0152 187.825 39.2126C190.22 39.2126 194.326 39.2126 195.354 39.2126C196.182 39.2311 196.815 38.9806 196.815 38.0524Z" fill="#3BD4AE"/>
<path d="M218.994 38.0524C218.994 36.238 217.059 34.8365 214.683 34.8365C212.255 34.8365 210.483 36.0152 210.004 39.2126C212.399 39.2126 216.506 39.2126 217.534 39.2126C218.348 39.2311 218.994 38.9806 218.994 38.0524Z" fill="#3BD4AE"/>
<path d="M153.377 38.173C153.377 36.3586 151.442 34.9572 149.065 34.9572C146.638 34.9572 144.866 36.1359 144.387 39.3332C146.782 39.3332 150.888 39.3332 151.916 39.3332C152.725 39.3378 153.377 39.1058 153.377 38.173Z" fill="#3BD4AE"/>
<path d="M236.099 35.1799C233.769 35.1799 232.249 37.3981 232.249 40.3356C232.249 44.1083 234.248 46.5632 236.895 46.5632C239.48 46.5632 240.606 44.6838 240.606 41.3797C240.62 36.8227 238.592 35.1799 236.099 35.1799Z" fill="#3BD4AE"/>
<path d="M82.4111 16.7662V58.0624H253V16.7662H82.4111ZM112.441 24.3721C113.678 24.3721 114.692 25.3652 114.692 26.5763C114.692 27.7875 113.678 28.7806 112.441 28.7806C111.204 28.7806 110.19 27.7875 110.19 26.5763C110.19 25.3652 111.185 24.3721 112.441 24.3721ZM96.647 50.503C93.2241 50.503 90.6522 48.7813 90.6522 46.9019V44.8369H90.829C91.8289 45.7511 94.224 46.5585 96.4424 46.5585C98.7259 46.5585 99.8374 45.9042 99.8374 44.5538C99.8374 43.4958 99.1724 42.9992 95.9541 42.5491C92.0056 42.0061 90.1035 40.484 90.1035 37.7044C90.1035 34.275 93.2566 31.3561 98.0283 31.3561C102.26 31.3561 103.991 33.5 103.991 35.2542V36.9758H103.818C102.851 36.0291 100.693 35.282 98.4934 35.282C95.6564 35.282 94.7542 36.1359 94.7542 37.3146C94.7542 38.2287 95.3076 38.6046 98.4934 39.1151C102.377 39.7184 104.456 41.3797 104.456 44.2986C104.446 48.1873 101.674 50.503 96.647 50.503ZM115.608 50.4891H114.817C112.376 50.4891 110.06 48.4565 110.19 44.5909L110.143 31.5046H110.906C112.966 31.5046 114.408 32.5766 114.408 34.8736L114.441 42.8229C114.441 46.1316 115.124 46.7024 117.994 46.7024H118.85C118.826 49.1201 117.878 50.4891 115.608 50.4891ZM130.118 50.4566C125.761 50.4566 124.031 47.7233 124.031 43.4679V30.7064C124.031 28.3629 125.854 26.7016 128.598 26.7016V27.7086V31.4211H134.165V31.8109C134.197 34.8087 133.072 35.4305 130.453 35.4305H128.598L128.612 43.4586C128.612 45.8207 129.244 46.5307 131.467 46.5307C133.434 46.5307 135.318 45.8624 135.318 45.8624C135.299 47.7233 133.318 50.4566 130.118 50.4566ZM149.377 46.837C151.851 47.0551 156.576 46.3543 156.576 46.3543C156.576 46.3543 155.786 49.8301 152.437 50.3266C148.777 50.8835 145.526 50.5911 143.085 48.6978C139.787 46.1362 139.359 40.0525 141.452 35.5651C142.434 33.4536 144.354 31.3886 149.112 31.3886C153.344 31.3886 157.279 33.1891 157.279 38.4979C157.279 42.3959 155.502 43.1106 152.251 43.1106C151.647 43.1106 146.559 43.1106 144.466 43.1106C145.164 46.3729 147.666 46.6977 149.377 46.837ZM169.896 50.3777C166.473 50.3777 163.901 48.656 163.901 46.7766V44.7116H164.073C165.073 45.6258 167.468 46.4332 169.687 46.4332C171.97 46.4332 173.082 45.7789 173.082 44.4285C173.082 43.3751 172.417 42.8739 169.199 42.4238C165.25 41.8808 163.348 40.3588 163.348 37.5791C163.348 34.1497 166.501 31.2308 171.273 31.2308C175.505 31.2308 177.235 33.3747 177.235 35.1289V36.8505H177.063C176.096 35.9038 173.938 35.1567 171.738 35.1567C168.901 35.1567 167.994 36.0106 167.994 37.1893C167.994 38.1034 168.547 38.4793 171.738 38.9898C175.621 39.5931 177.7 41.2544 177.7 44.1733C177.695 48.0667 174.919 50.3777 169.896 50.3777ZM192.82 46.7302C195.294 46.9483 200.019 46.2476 200.019 46.2476C200.019 46.2476 199.224 49.7234 195.88 50.2199C192.22 50.7768 188.969 50.4844 186.527 48.5911C183.23 46.0295 182.802 39.9457 184.895 35.4583C185.876 33.3469 187.797 31.2819 192.554 31.2819C196.787 31.2819 200.721 33.0824 200.721 38.3912C200.721 42.2892 198.945 43.0039 195.694 43.0039C195.089 43.0039 190.001 43.0039 187.908 43.0039C188.601 46.2476 191.108 46.5724 192.82 46.7302ZM214.999 46.7302C217.473 46.9483 222.198 46.2476 222.198 46.2476C222.198 46.2476 221.408 49.7234 218.059 50.2199C214.399 50.7768 211.148 50.4844 208.706 48.5911C205.409 46.0295 204.981 39.9457 207.074 35.4583C208.055 33.3469 209.976 31.2819 214.734 31.2819C218.966 31.2819 222.901 33.0824 222.901 38.3912C222.901 42.2892 221.124 43.0039 217.873 43.0039C217.273 43.0039 212.181 43.0039 210.088 43.0039C210.781 46.2476 213.287 46.5724 214.999 46.7302ZM245.247 41.5746C245.247 46.8694 242.713 50.3638 236.337 50.3638C231.453 50.3638 227.714 46.1873 227.714 41.2033C227.714 35.2402 230.677 31.3747 236.067 31.3747C237.922 31.3747 239.95 31.732 240.68 33.3144V25.7086H242.094C244.299 25.7086 245.247 26.9522 245.247 28.7667V41.5746Z" fill="#3BD4AE"/>
</g>
<defs>
<clipPath id="clip0_202_66">
<rect width="253" height="63" fill="white"/>
</clipPath>
</defs>
</svg>
