<svg width="24" height="24" viewBox="0 0 24 24" fill="none" xmlns="http://www.w3.org/2000/svg">
<path d="M8.74446 16.7737C8.9808 16.9201 9.22895 17 9.47711 17C9.73708 17 9.99705 16.9201 10.2334 16.7604L15.2674 13.4332C15.7282 13.1271 16 12.5948 16 11.9959C16 11.397 15.7282 10.8646 15.2674 10.5585L10.2334 7.23127C9.77253 6.92517 9.21713 6.92517 8.74446 7.21796C8.27179 7.52407 8 8.05642 8 8.66863V15.3231C8 15.9353 8.2836 16.481 8.74446 16.7737ZM8.94535 8.66863C8.94535 8.34922 9.13442 8.18951 9.21713 8.13627C9.2644 8.10966 9.35894 8.05642 9.48892 8.05642C9.57164 8.05642 9.66617 8.08304 9.76071 8.13627L14.7947 11.4635C15.031 11.6232 15.0547 11.8761 15.0547 11.9825C15.0547 12.089 15.031 12.3419 14.7947 12.5016L9.76071 15.8554C9.51256 16.0151 9.29985 15.9087 9.21713 15.8554C9.13442 15.8022 8.94535 15.6425 8.94535 15.3231V8.66863Z" fill="#C0C0C0"/>
</svg>
