<svg width="24" height="24" viewBox="0 0 24 24" fill="none" xmlns="http://www.w3.org/2000/svg">
<path fill-rule="evenodd" clip-rule="evenodd" d="M12.8815 14.4715H11.2112C11.2067 14.2315 11.2045 14.086 11.2045 14.0328C11.2045 13.4935 11.2938 13.0503 11.4738 12.7015C11.6515 12.3542 12.0078 11.962 12.5448 11.5255C13.0818 11.0913 13.4028 10.8063 13.5063 10.6705C13.6698 10.4567 13.7493 10.2205 13.7493 9.96475C13.7493 9.61075 13.6068 9.3055 13.3195 9.05425C13.0345 8.8 12.649 8.67325 12.1637 8.67325C11.6958 8.67325 11.3058 8.80675 10.99 9.07225C10.6765 9.33925 10.4598 9.74425 10.342 10.2902L8.659 10.0757C8.70775 9.29425 9.04 8.63275 9.6565 8.08675C10.2737 7.54075 11.0845 7.26925 12.0865 7.26925C13.1425 7.26925 13.9817 7.546 14.6058 8.09575C15.229 8.6455 15.541 9.2845 15.541 10.018C15.541 10.4208 15.4277 10.8062 15.1975 11.167C14.968 11.5278 14.4812 12.0205 13.7305 12.6438C13.3427 12.9648 13.102 13.2242 13.0083 13.4207C12.9153 13.6165 12.8725 13.966 12.8815 14.4715ZM12.1 4C9.8635 4 7.83775 4.90675 6.37225 6.373C4.90675 7.83775 4 9.8635 4 12.1C4 14.3365 4.90675 16.3622 6.373 17.8277C7.83775 19.2932 9.8635 20.2 12.1 20.2C14.3365 20.2 16.3622 19.2932 17.8277 17.8277C19.2932 16.3622 20.2 14.3365 20.2 12.1C20.2 9.8635 19.2932 7.83775 17.8277 6.37225C16.3622 4.90675 14.3365 4 12.1 4ZM17.2405 6.9595C15.925 5.64475 14.1077 4.831 12.1 4.831C10.093 4.831 8.275 5.64475 6.9595 6.96025C5.64475 8.275 4.831 10.0922 4.831 12.1C4.831 14.107 5.64475 15.925 6.96025 17.2405C8.275 18.5552 10.093 19.369 12.1 19.369C14.1077 19.369 15.925 18.5553 17.2405 17.2397C18.556 15.9242 19.3698 14.1062 19.3698 12.0992C19.369 10.0922 18.5552 8.275 17.2405 6.9595ZM11.2112 16.93V15.1H12.8815V16.93H11.2112Z" fill="black"/>
</svg>
