<svg width="22" height="22" viewBox="0 0 22 22" fill="none" xmlns="http://www.w3.org/2000/svg">
<path d="M17.7066 11.9303C17.7117 11.8215 17.7147 11.7123 17.7147 11.6042C17.7138 10.2673 17.3165 8.96062 16.573 7.84946C15.8295 6.73829 14.7733 5.8725 13.5379 5.36153C13.5379 5.34873 13.5379 5.33627 13.5379 5.32313C13.5379 4.64069 13.2668 3.98621 12.7842 3.50365C12.3017 3.0211 11.6472 2.75 10.9648 2.75C10.2823 2.75 9.62784 3.0211 9.14528 3.50365C8.66273 3.98621 8.39163 4.64069 8.39163 5.32313C8.39163 5.33458 8.39163 5.34603 8.39163 5.35681C7.15451 5.86729 6.09674 6.73348 5.35234 7.84564C4.60794 8.95781 4.2104 10.2659 4.21008 11.6042C4.21008 11.7214 4.21311 11.84 4.21918 11.9579C3.91396 12.1028 3.64028 12.3065 3.41377 12.5572C3.18725 12.808 3.01234 13.1008 2.89902 13.4192C2.7857 13.7375 2.73618 14.075 2.75331 14.4125C2.77043 14.7499 2.85385 15.0807 2.9988 15.3859C3.14376 15.6911 3.34741 15.9648 3.59814 16.1913C3.84886 16.4178 4.14175 16.5928 4.46007 16.7061C4.77839 16.8194 5.11592 16.8689 5.45338 16.8518C5.79083 16.8347 6.12162 16.7513 6.42683 16.6063C7.67271 17.7368 9.2958 18.3613 10.9781 18.3576C12.6604 18.3538 14.2807 17.7221 15.5215 16.5861C15.8286 16.7405 16.1634 16.8319 16.5063 16.8547C16.8492 16.8776 17.1932 16.8316 17.518 16.7193C17.8428 16.607 18.1418 16.4308 18.3974 16.2011C18.6529 15.9713 18.8599 15.6927 19.006 15.3816C19.1521 15.0706 19.2344 14.7334 19.248 14.39C19.2616 14.0466 19.2063 13.704 19.0853 13.3823C18.9643 13.0607 18.7801 12.7665 18.5435 12.5172C18.307 12.268 18.0229 12.0686 17.708 11.9309L17.7066 11.9303ZM10.9664 3.69316C11.2888 3.69316 11.604 3.78875 11.872 3.96786C12.1401 4.14696 12.349 4.40153 12.4723 4.69937C12.5957 4.9972 12.628 5.32494 12.5651 5.64112C12.5022 5.95731 12.347 6.24774 12.119 6.4757C11.8911 6.70365 11.6006 6.85889 11.2844 6.92178C10.9683 6.98468 10.6405 6.9524 10.3427 6.82903C10.0448 6.70566 9.79027 6.49674 9.61117 6.22869C9.43207 5.96065 9.33647 5.64551 9.33647 5.32313C9.337 4.891 9.5089 4.47672 9.81447 4.17115C10.12 3.86559 10.5343 3.69369 10.9664 3.69316ZM3.68394 14.2861C3.68394 13.9638 3.77953 13.6486 3.95864 13.3806C4.13774 13.1125 4.39231 12.9036 4.69015 12.7802C4.98799 12.6569 5.31572 12.6246 5.6319 12.6875C5.94809 12.7504 6.23852 12.9056 6.46648 13.1336C6.69443 13.3615 6.84967 13.652 6.91257 13.9681C6.97546 14.2843 6.94318 14.6121 6.81981 14.9099C6.69644 15.2077 6.48752 15.4623 6.21948 15.6414C5.95143 15.8205 5.63629 15.9161 5.31391 15.9161C4.88178 15.9156 4.4675 15.7437 4.16194 15.4381C3.85637 15.1325 3.68447 14.7183 3.68394 14.2861ZM7.20224 16.032C7.5423 15.6649 7.76787 15.2066 7.85131 14.7132C7.93474 14.2198 7.8724 13.7128 7.67195 13.2543C7.47149 12.7958 7.14162 12.4058 6.72277 12.132C6.30393 11.8583 5.8143 11.7126 5.31391 11.713C5.26035 11.713 5.20747 11.715 5.15459 11.7184C5.15459 11.6803 5.15459 11.6423 5.15459 11.6042C5.15515 10.4836 5.47939 9.3871 6.0883 8.44641C6.69722 7.50573 7.56489 6.76096 8.587 6.30165C8.78071 6.77315 9.11013 7.17647 9.53345 7.46042C9.95677 7.74437 10.4549 7.89616 10.9646 7.89652C11.4744 7.89688 11.9727 7.7458 12.3965 7.46245C12.8202 7.17909 13.1502 6.77624 13.3445 6.30502C14.365 6.76497 15.2311 7.50959 15.8389 8.44954C16.4468 9.3895 16.7705 10.4849 16.7712 11.6042C16.7712 11.6413 16.7712 11.6783 16.7712 11.7154C16.7375 11.7154 16.7069 11.713 16.6742 11.713C16.1773 11.7126 15.6909 11.8563 15.2739 12.1265C14.8569 12.3968 14.5271 12.7821 14.3244 13.2358C14.1218 13.6895 14.0549 14.1923 14.132 14.6832C14.209 15.1741 14.4267 15.6322 14.7586 16.002C13.7098 16.9074 12.372 17.408 10.9865 17.4135C9.60098 17.419 8.25917 16.929 7.20325 16.032H7.20224ZM16.6729 15.9164C16.3505 15.9164 16.0354 15.8209 15.7673 15.6418C15.4993 15.4627 15.2904 15.2081 15.167 14.9103C15.0436 14.6125 15.0113 14.2848 15.0742 13.9686C15.1371 13.6524 15.2923 13.362 15.5202 13.134C15.7481 12.9061 16.0385 12.7508 16.3547 12.6879C16.6708 12.6249 16.9986 12.6572 17.2964 12.7805C17.5942 12.9038 17.8488 13.1127 18.028 13.3807C18.2071 13.6487 18.3028 13.9638 18.3028 14.2861C18.3023 14.7183 18.1304 15.1325 17.8248 15.4381C17.5193 15.7437 17.105 15.9156 16.6729 15.9161V15.9164Z" fill="#C0C0C0"/>
</svg>
