<svg width="22" height="22" viewBox="0 0 22 22" fill="none" xmlns="http://www.w3.org/2000/svg">
<path d="M16.1562 2.75H5.84375C4.09062 2.75 2.75 4.09062 2.75 5.84375V16.1562C2.75 17.9094 4.09062 19.25 5.84375 19.25H16.1562C17.9094 19.25 19.25 17.9094 19.25 16.1562V5.84375C19.25 4.09062 17.9094 2.75 16.1562 2.75ZM18.2188 5.84375V13.0625H11.5156V3.78125H16.1562C17.2906 3.78125 18.2188 4.70938 18.2188 5.84375ZM5.84375 3.78125H10.4844V7.90625H3.78125V5.84375C3.78125 4.70938 4.70938 3.78125 5.84375 3.78125ZM3.78125 16.1562V8.9375H10.4844V18.2188H5.84375C4.70938 18.2188 3.78125 17.2906 3.78125 16.1562ZM16.1562 18.2188H11.5156V14.0938H18.2188V16.1562C18.2188 17.2906 17.2906 18.2188 16.1562 18.2188Z" fill="#C0C0C0"/>
</svg>
