<svg width="32" height="32" viewBox="0 0 32 32" fill="none" xmlns="http://www.w3.org/2000/svg">
<path d="M12.1533 13.3171H9.58814V19.8916H7.86269V13.3171H5.33203V12H12.1533V13.3171Z" fill="#C0C0C0"/>
<path d="M15.3799 20C14.4673 20 13.7235 19.7362 13.1483 19.2087C12.577 18.6811 12.2913 17.9783 12.2913 17.1003V16.9485C12.2913 16.3595 12.4121 15.8338 12.6537 15.3713C12.8953 14.9051 13.2365 14.5474 13.6775 14.2981C14.1222 14.0452 14.6284 13.9187 15.1959 13.9187C16.0471 13.9187 16.7162 14.1716 17.2031 14.6775C17.6939 15.1834 17.9393 15.9006 17.9393 16.8293V17.4688H13.9765C14.0302 17.8519 14.1913 18.159 14.4597 18.3902C14.7319 18.6215 15.0751 18.7371 15.4892 18.7371C16.1295 18.7371 16.6299 18.5185 16.9903 18.0813L17.807 18.9431C17.5578 19.2755 17.2204 19.5357 16.7948 19.7236C16.3692 19.9079 15.8975 20 15.3799 20ZM15.1901 15.187C14.8604 15.187 14.5919 15.2918 14.3849 15.5014C14.1817 15.7109 14.0513 16.0108 13.9938 16.4011H16.3059V16.2764C16.2982 15.9295 16.1985 15.6621 16.0068 15.4743C15.8151 15.2827 15.5429 15.187 15.1901 15.187Z" fill="#C0C0C0"/>
<path d="M21.2579 15.7778L22.3047 14.0271H24.0819L22.3105 16.8997L24.1567 19.8916H22.3737L21.2637 18.0488L20.1594 19.8916H18.3707L20.2169 16.8997L18.4512 14.0271H20.2342L21.2579 15.7778Z" fill="#C0C0C0"/>
<path d="M26.8714 12.5854V14.0271H27.9354V15.1762H26.8714V18.103C26.8714 18.3198 26.9155 18.4752 27.0037 18.5691C27.0919 18.6631 27.2606 18.71 27.5098 18.71C27.6939 18.71 27.8568 18.6974 27.9987 18.6721V19.8591C27.6728 19.953 27.3373 20 26.9922 20C25.8265 20 25.2322 19.4453 25.2092 18.336V15.1762H24.3005V14.0271H25.2092V12.5854H26.8714Z" fill="#C0C0C0"/>
</svg>
