<svg width="16" height="16" viewBox="0 0 16 16" fill="none" xmlns="http://www.w3.org/2000/svg">
<path d="M12.8982 13.9993C12.7513 13.9993 12.6166 13.9381 12.5064 13.8279L9.59212 10.8401C9.38396 10.6197 9.38396 10.2769 9.60437 10.0687C9.82478 9.86052 10.1676 9.86052 10.3758 10.0809L13.2901 13.0809C13.4982 13.3013 13.4982 13.6442 13.2778 13.8524C13.1799 13.9503 13.0329 13.9993 12.8982 13.9993Z" fill="#C0C0C0"/>
<path d="M6.98372 11.8694C4.22862 11.8694 2.00005 9.65305 2.00005 6.93469C1.98781 4.21632 4.22862 2 6.98372 2C9.73882 2 11.9674 4.21632 11.9674 6.93469C11.9674 9.65305 9.72657 11.8694 6.98372 11.8694ZM6.98372 3.08979C4.82862 3.08979 3.0776 4.81632 3.0776 6.93469C3.0776 9.05305 4.82862 10.7796 6.98372 10.7796C9.12657 10.7796 10.8776 9.05305 10.8776 6.93469C10.8776 4.81632 9.12657 3.08979 6.98372 3.08979Z" fill="#C0C0C0"/>
</svg>
