<svg width="40" height="40" viewBox="0 0 40 40" fill="none" xmlns="http://www.w3.org/2000/svg">
<path d="M16.7637 17.7655C17.6464 18.3884 18.5734 18.7159 19.5853 18.7614C20.5604 18.8045 21.5243 18.8698 22.4501 19.2108C24.2204 19.862 25.5475 21.0266 26.4549 22.6726C26.5078 22.7686 26.509 22.9472 26.4549 23.042C25.028 25.5349 22.8822 26.9076 20.0027 26.9101C17.1231 26.9125 14.9749 25.5435 13.5443 23.0518C13.4865 22.9509 13.4963 22.765 13.5493 22.6554C13.6859 22.3796 13.8644 22.1248 14.038 21.8429C13.6256 21.5129 13.2132 21.1818 12.7737 20.8297C12.3132 21.4169 11.9624 22.0792 11.6866 22.7822C11.6546 22.8634 11.7002 22.9902 11.742 23.0813C13.0987 26.0778 15.3824 27.9233 18.6337 28.4465C22.6951 29.1002 26.6432 26.8707 28.2338 23.1244C28.3163 22.9287 28.3126 22.7723 28.2313 22.5815C26.7171 19.0594 23.1678 16.8951 19.3268 17.1696C18.4638 17.2336 17.6217 17.4158 16.7637 17.7655Z" fill="white"/>
<path d="M25.9564 17.353C26.3774 17.6903 26.791 18.0215 27.2786 18.4117C27.6245 17.7433 27.9717 17.0871 28.2979 16.4223C28.3373 16.341 28.2856 16.1945 28.24 16.0948C26.9252 13.1771 24.7006 11.3699 21.5613 10.7703C17.4975 9.9935 13.3524 12.2661 11.7618 16.0899C11.7015 16.2352 11.7039 16.4494 11.7643 16.5934C13.2564 20.1267 16.8573 22.3192 20.6823 22.0164C21.2019 21.9758 21.7165 21.8662 22.2274 21.7579C22.5487 21.6902 22.8577 21.567 23.2467 21.4439C23.0682 21.3233 22.9488 21.2297 22.8195 21.1546C21.9491 20.6536 21.0061 20.427 20.0052 20.4024C17.1515 20.3335 15.0193 19.0384 13.5666 16.5922C13.4533 16.4001 13.457 16.261 13.5691 16.0727C15.1424 13.4406 17.4593 12.1061 20.5198 12.2993C23.1913 12.468 25.1672 13.8505 26.4734 16.1847C26.519 16.2647 26.5103 16.4137 26.466 16.4986C26.3134 16.7892 26.1312 17.0649 25.9564 17.353Z" fill="white"/>
</svg>
