<svg width="24" height="24" viewBox="0 0 24 24" fill="none" xmlns="http://www.w3.org/2000/svg">
<path fill-rule="evenodd" clip-rule="evenodd" d="M12.3434 11.1304L12.6627 11.2969H21V12.7031H3V11.2969H9.90135C9.60291 11.0743 9.31737 10.8289 9.05946 10.5534C8.19936 9.63416 7.78125 8.5434 7.78125 7.21875C7.78125 4.89253 9.67378 3 12 3C14.3262 3 16.2188 4.89253 16.2188 7.21875V7.92188H14.8125V7.21875C14.8125 5.66794 13.5508 4.40625 12 4.40625C10.4492 4.40625 9.1875 5.66794 9.1875 7.21875C9.1875 9.31487 10.6167 10.2304 12.3434 11.1304ZM14.7401 14.1094H16.3664C16.6549 14.7297 16.8164 15.4205 16.8164 16.1484C16.8164 18.8236 14.64 21 11.9648 21C9.2897 21 7.11328 18.8236 7.11328 16.1484V15.4453H8.51953V16.1484C8.51953 18.0482 10.0651 19.5938 11.9648 19.5938C13.8646 19.5938 15.4102 18.0482 15.4102 16.1484C15.4102 15.386 15.161 14.6807 14.7401 14.1094Z" fill="black"/>
</svg>
