<svg width="10" height="16" viewBox="0 0 10 16" fill="none" xmlns="http://www.w3.org/2000/svg">
<path d="M5.28352 0.5C3.08442 0.5 1.28883 1.95175 0.853501 3.69444C0.768557 3.98105 0.961501 4.31892 1.25156 4.39139C1.54158 4.46384 1.87081 4.25643 1.93061 3.96354C2.22028 2.80379 3.58925 1.61111 5.28352 1.61111C6.12227 1.61111 6.98735 1.91304 7.61144 2.4184C8.23549 2.92382 8.61038 3.60186 8.61038 4.38888C8.61038 5.34413 8.40224 5.82538 8.11524 6.19444C7.82816 6.56349 7.41535 6.83888 6.90786 7.20138C6.40033 7.56387 5.82425 8.02901 5.40511 8.80728C4.986 9.58556 4.72758 10.6466 4.72758 12.1667C4.72758 12.4577 4.99241 12.7226 5.28352 12.7226C5.57461 12.7226 5.83944 12.4577 5.83944 12.1667C5.83944 10.77 6.06788 9.91266 6.37799 9.3368C6.68808 8.76093 7.08588 8.43609 7.5506 8.10418C8.01538 7.7722 8.5591 7.44863 9.00124 6.8802C9.44338 6.31176 9.72221 5.51697 9.72221 4.38888C9.72221 3.23147 9.13138 2.23422 8.29766 1.55903C7.46383 0.883833 6.38711 0.5 5.28352 0.5ZM5.28352 13.8333C4.82294 13.8333 4.44961 14.2064 4.44961 14.6667C4.44961 15.1269 4.82294 15.5 5.28352 15.5C5.74408 15.5 6.11738 15.1269 6.11738 14.6667C6.11738 14.2064 5.74408 13.8333 5.28352 13.8333Z" fill="white"/>
</svg>
