<svg width="36" height="36" viewBox="0 0 36 36" fill="none" xmlns="http://www.w3.org/2000/svg">
<g clip-path="url(#clip0)">
<path d="M35.067 0.933845C34.3976 0.264329 33.4724 -0.0711316 32.5294 0.0133137C30.1204 0.228962 25.7848 0.868454 21.4937 1.96076C16.3754 3.26358 12.9129 4.79154 11.2022 6.50231C8.76747 8.93702 7.05634 12.6057 6.6249 16.316C6.40159 18.2364 6.51936 20.0591 6.97492 21.7333C7.24021 22.7083 7.61476 23.6054 8.09282 24.4199C7.43083 25.1366 6.81524 25.8262 6.25281 26.4735C2.5221 30.7673 0.282926 34.1111 0.189411 34.2514C-0.155191 34.7683 -0.0155504 35.4668 0.501457 35.8114C0.69327 35.9393 0.910043 36.0005 1.12443 36.0005C1.48794 36.0005 1.84478 35.8246 2.06155 35.4995C2.08363 35.4664 4.3138 32.1357 7.95128 27.9492C8.42125 27.4084 8.92982 26.8368 9.47129 26.245C9.51777 26.2934 9.56368 26.3422 9.61122 26.3898C10.8595 27.638 12.4261 28.525 14.2676 29.0261C15.3929 29.3323 16.585 29.4858 17.8292 29.4858C18.4359 29.4858 19.0553 29.4493 19.6849 29.3761C23.3952 28.9447 27.0639 27.2335 29.4986 24.7988C31.2093 23.0881 32.7374 19.6256 34.0402 14.5073C35.1325 10.2161 35.772 5.88054 35.9876 3.47163C36.072 2.52825 35.7365 1.60329 35.067 0.933845ZM33.7465 3.27082C33.2631 8.67012 31.0541 20.0611 27.9076 23.2076C23.7639 27.3512 15.3884 28.9848 11.2022 24.7987C11.1379 24.7344 11.0751 24.6691 11.0135 24.6029C14.1516 21.3485 18.1428 17.7354 22.5301 15.0194C23.0584 14.6924 23.2215 13.999 22.8945 13.4707C22.5676 12.9425 21.8742 12.7792 21.3458 13.1063C16.927 15.8418 12.9137 19.4301 9.72189 22.7032C7.55246 18.237 9.25972 11.6267 12.7931 8.09327C15.9396 4.94679 27.3307 2.73778 32.73 2.25438C32.7607 2.25164 32.7904 2.25031 32.8193 2.25031C33.1493 2.25031 33.3698 2.41856 33.4761 2.52481C33.5916 2.6404 33.7805 2.89106 33.7465 3.27082Z" fill="white"/>
</g>
<defs>
<clipPath id="clip0">
<rect width="36" height="36" fill="white"/>
</clipPath>
</defs>
</svg>
