<svg width="24" height="24" viewBox="0 0 24 24" fill="none" xmlns="http://www.w3.org/2000/svg">
<g clip-path="url(#clip0)">
<path d="M12.2362 24.0003C12.1567 24.0003 12.0773 24.0003 11.9973 23.9999C10.116 24.0045 8.37781 23.9567 6.68738 23.8538C5.13757 23.7595 3.7229 23.2239 2.59607 22.3051C1.50879 21.4185 0.766296 20.2197 0.389282 18.7424C0.0611573 17.4563 0.0437622 16.1938 0.0270996 14.9727C0.0150146 14.0965 0.00256348 13.0583 0 12.0025C0.00256348 10.9423 0.0150146 9.90411 0.0270996 9.02795C0.0437622 7.807 0.0611573 6.54449 0.389282 5.25817C0.766296 3.78088 1.50879 2.58209 2.59607 1.69549C3.7229 0.776666 5.13757 0.241083 6.68756 0.146783C8.37799 0.0440611 10.1166 -0.00391255 12.0018 0.000665092C13.8836 -0.00336323 15.6213 0.0440611 17.3117 0.146783C18.8615 0.241083 20.2762 0.776666 21.403 1.69549C22.4905 2.58209 23.2328 3.78088 23.6098 5.25817C23.9379 6.54431 23.9553 7.807 23.972 9.02795C23.9841 9.90411 23.9967 10.9423 23.9991 11.9981V12.0025C23.9967 13.0583 23.9841 14.0965 23.972 14.9727C23.9553 16.1936 23.9381 17.4561 23.6098 18.7424C23.2328 20.2197 22.4905 21.4185 21.403 22.3051C20.2762 23.2239 18.8615 23.7595 17.3117 23.8538C15.6929 23.9523 14.0299 24.0003 12.2362 24.0003V24.0003ZM11.9973 22.1249C13.8479 22.1293 15.5471 22.0826 17.1978 21.9823C18.3697 21.9111 19.3857 21.5308 20.2181 20.852C20.9875 20.2245 21.5175 19.3588 21.793 18.2788C22.0662 17.2082 22.082 16.0586 22.0972 14.947C22.1091 14.0767 22.1215 13.0458 22.1241 12.0003C22.1215 10.9546 22.1091 9.92388 22.0972 9.05358C22.082 7.94195 22.0662 6.79241 21.793 5.72161C21.5175 4.64166 20.9875 3.77593 20.2181 3.14843C19.3857 2.46984 18.3697 2.08953 17.1978 2.0183C15.5471 1.91778 13.8479 1.87145 12.0016 1.87548C10.1514 1.87109 8.45197 1.91778 6.80127 2.0183C5.62939 2.08953 4.61334 2.46984 3.78094 3.14843C3.01154 3.77593 2.48163 4.64166 2.20605 5.72161C1.93286 6.79241 1.91711 7.94177 1.90192 9.05358C1.89001 9.92462 1.87756 10.956 1.875 12.0025C1.87756 13.0444 1.89001 14.076 1.90192 14.947C1.91711 16.0586 1.93286 17.2082 2.20605 18.2788C2.48163 19.3588 3.01154 20.2245 3.78094 20.852C4.61334 21.5306 5.62939 21.9109 6.80127 21.9821C8.45197 22.0826 10.1517 22.1295 11.9973 22.1249V22.1249ZM11.9526 17.8597C8.72186 17.8597 6.0932 15.2312 6.0932 12.0003C6.0932 8.7694 8.72186 6.14092 11.9526 6.14092C15.1835 6.14092 17.812 8.7694 17.812 12.0003C17.812 15.2312 15.1835 17.8597 11.9526 17.8597V17.8597ZM11.9526 8.01592C9.75568 8.01592 7.9682 9.8034 7.9682 12.0003C7.9682 14.1972 9.75568 15.9847 11.9526 15.9847C14.1497 15.9847 15.937 14.1972 15.937 12.0003C15.937 9.8034 14.1497 8.01592 11.9526 8.01592V8.01592ZM18.4682 4.26592C17.6917 4.26592 17.062 4.89544 17.062 5.67217C17.062 6.44891 17.6917 7.07842 18.4682 7.07842C19.2449 7.07842 19.8745 6.44891 19.8745 5.67217C19.8745 4.89544 19.2449 4.26592 18.4682 4.26592Z" fill="black"/>
</g>
<defs>
<clipPath id="clip0">
<rect width="24" height="24" fill="white"/>
</clipPath>
</defs>
</svg>
