<svg width="146" height="30" viewBox="0 0 146 30" fill="none" xmlns="http://www.w3.org/2000/svg">
<path d="M15.1139 30C23.461 30 30.2278 23.2843 30.2278 15C30.2278 6.71573 23.461 0 15.1139 0C6.76671 0 0 6.71573 0 15C0 23.2843 6.76671 30 15.1139 30Z" fill="#1B1B1B"/>
<path d="M11.0377 12.6832C12.1494 13.4619 13.317 13.8712 14.5916 13.9282C15.8196 13.982 17.0337 14.0636 18.1997 14.4898C20.4294 15.3039 22.1009 16.7597 23.2437 18.8172C23.3103 18.9372 23.3119 19.1603 23.2437 19.2788C21.4466 22.395 18.7439 24.1109 15.1172 24.114C11.4904 24.117 8.78473 22.4058 6.98299 19.2911C6.91011 19.1649 6.92252 18.9326 6.98919 18.7956C7.1613 18.4509 7.38614 18.1324 7.60476 17.78C7.08533 17.3675 6.56589 16.9536 6.01235 16.5135C5.43244 17.2475 4.99053 18.0754 4.6432 18.9541C4.60289 19.0557 4.66026 19.2142 4.71298 19.3281C6.42169 23.0737 9.29797 25.3804 13.393 26.0345C18.5083 26.8516 23.4809 24.0647 25.4842 19.3819C25.5881 19.1372 25.5834 18.9418 25.4811 18.7033C23.5739 14.3006 19.1037 11.5952 14.2659 11.9384C13.179 12.0184 12.1184 12.2462 11.0377 12.6832Z" fill="white"/>
<path d="M22.6161 12.1679C23.1464 12.5896 23.6674 13.0035 24.2814 13.4914C24.7171 12.6558 25.1543 11.8355 25.5652 11.0045C25.6148 10.903 25.5497 10.7199 25.4923 10.5952C23.8364 6.94808 21.0345 4.68902 17.0806 3.93959C11.9622 2.96856 6.74151 5.80932 4.7382 10.5891C4.66222 10.7706 4.66532 11.0384 4.7413 11.2184C6.62057 15.635 11.1559 18.3757 15.9735 17.9972C16.6278 17.9464 17.276 17.8094 17.9194 17.674C18.3241 17.5894 18.7133 17.4355 19.2033 17.2816C18.9785 17.1308 18.8281 17.0138 18.6653 16.92C17.569 16.2936 16.3813 16.0105 15.1207 15.9797C11.5265 15.8935 8.84096 14.2747 7.01131 11.2169C6.86866 10.9769 6.87331 10.803 7.01441 10.5675C8.99601 7.2774 11.9142 5.60926 15.7688 5.85086C19.1335 6.06169 21.6222 7.78984 23.2673 10.7075C23.3247 10.8076 23.3138 10.9938 23.258 11.1C23.0657 11.4631 22.8363 11.8078 22.6161 12.1679Z" fill="white"/>
<path d="M47.9321 20.678C47.9321 21.9847 47.4431 23.0113 46.465 23.758C45.487 24.486 44.0575 24.85 42.1767 24.85C41.4056 24.85 40.7003 24.794 40.0608 24.682C39.4401 24.57 38.8946 24.4113 38.4244 24.206C37.973 23.982 37.6157 23.7207 37.3524 23.422C37.1079 23.1047 36.9856 22.7593 36.9856 22.386C36.9856 22.0313 37.0608 21.7233 37.2113 21.462C37.3806 21.2007 37.5969 20.986 37.8602 20.818C38.3868 21.154 38.9887 21.4527 39.6658 21.714C40.3617 21.9753 41.1611 22.106 42.0639 22.106C42.835 22.106 43.4181 21.9847 43.813 21.742C44.208 21.4807 44.4055 21.126 44.4055 20.678C44.4055 19.9127 43.8412 19.4087 42.7127 19.166L41.1328 18.802C39.741 18.4847 38.7066 18.0087 38.0295 17.374C37.3712 16.7393 37.042 15.89 37.042 14.826C37.042 13.6127 37.531 12.6327 38.5091 11.886C39.4871 11.1207 40.8601 10.738 42.6281 10.738C43.3052 10.738 43.9259 10.794 44.4901 10.906C45.0732 10.9993 45.5716 11.1487 45.9854 11.354C46.418 11.5407 46.7471 11.774 46.9728 12.054C47.2174 12.3153 47.3396 12.6233 47.3396 12.978C47.3396 13.314 47.2644 13.6127 47.1139 13.874C46.9634 14.1167 46.7848 14.3127 46.5779 14.462C46.4086 14.35 46.1829 14.238 45.9008 14.126C45.6374 14.014 45.3365 13.9113 44.998 13.818C44.6782 13.7247 44.3303 13.65 43.9541 13.594C43.5967 13.5193 43.2394 13.482 42.882 13.482C42.1485 13.482 41.5748 13.6033 41.1611 13.846C40.7473 14.07 40.5404 14.3967 40.5404 14.826C40.5404 15.1433 40.6532 15.4047 40.8789 15.61C41.1234 15.8153 41.5372 15.9833 42.1203 16.114L43.5027 16.45C45.0638 16.8047 46.1923 17.3273 46.8882 18.018C47.5841 18.69 47.9321 19.5767 47.9321 20.678Z" fill="#1B1B1B"/>
<path d="M50.9149 11.27C51.0654 11.2327 51.2817 11.186 51.5638 11.13C51.8647 11.074 52.1845 11.046 52.523 11.046C53.2001 11.046 53.6891 11.1673 53.9901 11.41C54.3098 11.6527 54.4697 12.082 54.4697 12.698V24.402C54.3192 24.4393 54.0935 24.486 53.7926 24.542C53.5104 24.598 53.2001 24.626 52.8616 24.626C52.1845 24.626 51.686 24.5047 51.3663 24.262C51.0654 24.0193 50.9149 23.59 50.9149 22.974V11.27ZM50.6328 7.21C50.6328 6.66867 50.8208 6.21133 51.197 5.838C51.592 5.446 52.0904 5.25 52.6923 5.25C53.2941 5.25 53.7832 5.446 54.1593 5.838C54.5355 6.21133 54.7236 6.66867 54.7236 7.21C54.7236 7.77 54.5355 8.246 54.1593 8.638C53.7832 9.01133 53.2941 9.198 52.6923 9.198C52.0904 9.198 51.592 9.01133 51.197 8.638C50.8208 8.246 50.6328 7.77 50.6328 7.21Z" fill="#1B1B1B"/>
<path d="M61.7406 20.314C61.7406 20.9113 61.9193 21.3407 62.2766 21.602C62.6528 21.8633 63.17 21.994 63.8283 21.994C64.1481 21.994 64.4678 21.9567 64.7875 21.882C65.1261 21.8073 65.427 21.714 65.6903 21.602C65.8408 21.7513 65.9631 21.938 66.0571 22.162C66.17 22.3673 66.2264 22.61 66.2264 22.89C66.2264 23.45 65.9725 23.9167 65.4646 24.29C64.9568 24.6447 64.1386 24.822 63.0101 24.822C61.5243 24.822 60.3488 24.4953 59.4836 23.842C58.6372 23.17 58.214 22.0687 58.214 20.538V7.686C58.3645 7.64867 58.5808 7.602 58.8629 7.546C59.1638 7.49 59.4836 7.462 59.8221 7.462C60.4804 7.462 60.96 7.58333 61.261 7.826C61.5807 8.06867 61.7406 8.498 61.7406 9.114V11.438H65.8878C65.9819 11.5873 66.0665 11.7833 66.1417 12.026C66.217 12.2687 66.2546 12.53 66.2546 12.81C66.2546 13.2953 66.1417 13.65 65.916 13.874C65.6903 14.098 65.3894 14.21 65.0132 14.21H61.7406V20.314Z" fill="#1B1B1B"/>
<path d="M71.6707 19.39C71.9341 20.342 72.4231 21.0327 73.1378 21.462C73.8525 21.8913 74.7365 22.106 75.7898 22.106C76.5797 22.106 77.3038 21.994 77.9621 21.77C78.6392 21.5273 79.1847 21.2753 79.5985 21.014C79.8618 21.1633 80.0781 21.3687 80.2474 21.63C80.4166 21.8913 80.5013 22.1713 80.5013 22.47C80.5013 22.8433 80.3696 23.1793 80.1063 23.478C79.8618 23.758 79.5138 24.0007 79.0624 24.206C78.6298 24.4113 78.1126 24.57 77.5107 24.682C76.9089 24.794 76.26 24.85 75.5641 24.85C74.4544 24.85 73.4387 24.7007 72.5171 24.402C71.6143 24.1033 70.8338 23.6553 70.1755 23.058C69.536 22.442 69.0282 21.686 68.652 20.79C68.2946 19.894 68.116 18.8487 68.116 17.654C68.116 16.4967 68.2946 15.4887 68.652 14.63C69.0094 13.7713 69.489 13.0527 70.0908 12.474C70.7115 11.8953 71.4262 11.466 72.235 11.186C73.0438 10.906 73.8995 10.766 74.8023 10.766C75.7239 10.766 76.5703 10.9153 77.3415 11.214C78.1126 11.494 78.7709 11.8953 79.3163 12.418C79.8618 12.922 80.285 13.538 80.5859 14.266C80.9057 14.9753 81.0655 15.75 81.0655 16.59C81.0655 17.1127 80.9245 17.5047 80.6423 17.766C80.379 18.0273 80.0028 18.1953 79.5138 18.27L71.6707 19.39ZM74.8023 13.426C73.8807 13.426 73.1096 13.734 72.4889 14.35C71.8682 14.9473 71.5203 15.806 71.445 16.926L77.7082 16.002C77.633 15.3113 77.3603 14.714 76.8901 14.21C76.4199 13.6873 75.7239 13.426 74.8023 13.426Z" fill="#1B1B1B"/>
<path d="M94.3285 20.678C94.3285 21.9847 93.8395 23.0113 92.8615 23.758C91.8834 24.486 90.454 24.85 88.5732 24.85C87.802 24.85 87.0967 24.794 86.4572 24.682C85.8365 24.57 85.2911 24.4113 84.8209 24.206C84.3695 23.982 84.0121 23.7207 83.7488 23.422C83.5043 23.1047 83.382 22.7593 83.382 22.386C83.382 22.0313 83.4573 21.7233 83.6077 21.462C83.777 21.2007 83.9933 20.986 84.2566 20.818C84.7833 21.154 85.3851 21.4527 86.0622 21.714C86.7581 21.9753 87.5575 22.106 88.4603 22.106C89.2314 22.106 89.8145 21.9847 90.2095 21.742C90.6045 21.4807 90.8019 21.126 90.8019 20.678C90.8019 19.9127 90.2377 19.4087 89.1092 19.166L87.5293 18.802C86.1375 18.4847 85.103 18.0087 84.4259 17.374C83.7676 16.7393 83.4385 15.89 83.4385 14.826C83.4385 13.6127 83.9275 12.6327 84.9055 11.886C85.8836 11.1207 87.2566 10.738 89.0246 10.738C89.7017 10.738 90.3223 10.794 90.8866 10.906C91.4696 10.9993 91.9681 11.1487 92.3818 11.354C92.8144 11.5407 93.1436 11.774 93.3693 12.054C93.6138 12.3153 93.7361 12.6233 93.7361 12.978C93.7361 13.314 93.6608 13.6127 93.5104 13.874C93.3599 14.1167 93.1812 14.3127 92.9743 14.462C92.805 14.35 92.5793 14.238 92.2972 14.126C92.0339 14.014 91.733 13.9113 91.3944 13.818C91.0747 13.7247 90.7267 13.65 90.3505 13.594C89.9932 13.5193 89.6358 13.482 89.2785 13.482C88.5449 13.482 87.9713 13.6033 87.5575 13.846C87.1437 14.07 86.9368 14.3967 86.9368 14.826C86.9368 15.1433 87.0497 15.4047 87.2754 15.61C87.5199 15.8153 87.9337 15.9833 88.5167 16.114L89.8991 16.45C91.4602 16.8047 92.5887 17.3273 93.2846 18.018C93.9806 18.69 94.3285 19.5767 94.3285 20.678Z" fill="#1B1B1B"/>
<path d="M100.214 19.39C100.477 20.342 100.966 21.0327 101.681 21.462C102.396 21.8913 103.28 22.106 104.333 22.106C105.123 22.106 105.847 21.994 106.505 21.77C107.182 21.5273 107.728 21.2753 108.142 21.014C108.405 21.1633 108.621 21.3687 108.791 21.63C108.96 21.8913 109.044 22.1713 109.044 22.47C109.044 22.8433 108.913 23.1793 108.649 23.478C108.405 23.758 108.057 24.0007 107.606 24.206C107.173 24.4113 106.656 24.57 106.054 24.682C105.452 24.794 104.803 24.85 104.107 24.85C102.998 24.85 101.982 24.7007 101.06 24.402C100.157 24.1033 99.3769 23.6553 98.7187 23.058C98.0792 22.442 97.5713 21.686 97.1952 20.79C96.8378 19.894 96.6591 18.8487 96.6591 17.654C96.6591 16.4967 96.8378 15.4887 97.1952 14.63C97.5525 13.7713 98.0322 13.0527 98.634 12.474C99.2547 11.8953 99.9694 11.466 100.778 11.186C101.587 10.906 102.443 10.766 103.346 10.766C104.267 10.766 105.114 10.9153 105.885 11.214C106.656 11.494 107.314 11.8953 107.86 12.418C108.405 12.922 108.828 13.538 109.129 14.266C109.449 14.9753 109.609 15.75 109.609 16.59C109.609 17.1127 109.468 17.5047 109.186 17.766C108.922 18.0273 108.546 18.1953 108.057 18.27L100.214 19.39ZM103.346 13.426C102.424 13.426 101.653 13.734 101.032 14.35C100.411 14.9473 100.063 15.806 99.9882 16.926L106.251 16.002C106.176 15.3113 105.903 14.714 105.433 14.21C104.963 13.6873 104.267 13.426 103.346 13.426Z" fill="#1B1B1B"/>
<path d="M115.285 19.39C115.548 20.342 116.037 21.0327 116.752 21.462C117.466 21.8913 118.35 22.106 119.404 22.106C120.193 22.106 120.918 21.994 121.576 21.77C122.253 21.5273 122.798 21.2753 123.212 21.014C123.476 21.1633 123.692 21.3687 123.861 21.63C124.03 21.8913 124.115 22.1713 124.115 22.47C124.115 22.8433 123.983 23.1793 123.72 23.478C123.476 23.758 123.128 24.0007 122.676 24.206C122.244 24.4113 121.726 24.57 121.125 24.682C120.523 24.794 119.874 24.85 119.178 24.85C118.068 24.85 117.052 24.7007 116.131 24.402C115.228 24.1033 114.448 23.6553 113.789 23.058C113.15 22.442 112.642 21.686 112.266 20.79C111.908 19.894 111.73 18.8487 111.73 17.654C111.73 16.4967 111.908 15.4887 112.266 14.63C112.623 13.7713 113.103 13.0527 113.705 12.474C114.325 11.8953 115.04 11.466 115.849 11.186C116.658 10.906 117.513 10.766 118.416 10.766C119.338 10.766 120.184 10.9153 120.955 11.214C121.726 11.494 122.385 11.8953 122.93 12.418C123.476 12.922 123.899 13.538 124.2 14.266C124.519 14.9753 124.679 15.75 124.679 16.59C124.679 17.1127 124.538 17.5047 124.256 17.766C123.993 18.0273 123.617 18.1953 123.128 18.27L115.285 19.39ZM118.416 13.426C117.494 13.426 116.723 13.734 116.103 14.35C115.482 14.9473 115.134 15.806 115.059 16.926L121.322 16.002C121.247 15.3113 120.974 14.714 120.504 14.21C120.034 13.6873 119.338 13.426 118.416 13.426Z" fill="#1B1B1B"/>
<path d="M139.835 21.854C139.835 22.2833 139.74 22.6287 139.552 22.89C139.364 23.1513 139.082 23.4033 138.706 23.646C138.236 23.9447 137.615 24.2153 136.844 24.458C136.073 24.7193 135.179 24.85 134.164 24.85C131.907 24.85 130.111 24.2807 128.775 23.142C127.459 21.9847 126.8 20.2207 126.8 17.85C126.8 16.618 126.979 15.5633 127.336 14.686C127.694 13.79 128.173 13.0527 128.775 12.474C129.396 11.8953 130.12 11.466 130.948 11.186C131.775 10.906 132.669 10.766 133.628 10.766C134.136 10.766 134.615 10.822 135.067 10.934C135.518 11.0273 135.922 11.1487 136.28 11.298V6.23C136.43 6.174 136.646 6.12733 136.929 6.09C137.23 6.034 137.549 6.006 137.888 6.006C138.565 6.006 139.054 6.12733 139.355 6.37C139.675 6.61267 139.835 7.042 139.835 7.658V21.854ZM136.28 14.154C135.998 13.986 135.668 13.846 135.292 13.734C134.916 13.622 134.512 13.566 134.079 13.566C133.026 13.566 132.151 13.902 131.455 14.574C130.759 15.246 130.412 16.3473 130.412 17.878C130.412 19.3153 130.741 20.37 131.399 21.042C132.076 21.6953 132.988 22.022 134.136 22.022C134.625 22.022 135.038 21.966 135.377 21.854C135.734 21.742 136.035 21.6113 136.28 21.462V14.154Z" fill="#1B1B1B"/>
</svg>
