<svg width="122" height="99" viewBox="0 0 122 99" fill="none" xmlns="http://www.w3.org/2000/svg">
<g filter="url(#filter0_d)">
<path d="M29.2735 93.2635C16.2741 93.2635 1.6119 83.7406 0.100338 62.7299C-1.41123 42.1726 14.1579 14.2087 46.6565 0.906936L48.9238 0L59.0513 16.7784L56.3305 18.1388C41.366 25.6966 33.9594 38.696 31.0874 44.8934C48.0169 47.6143 54.2143 58.7998 54.2143 68.7761C54.0632 82.2291 42.8776 93.2635 29.2735 93.2635ZM5.84428 62.2764C7.05353 79.5083 18.8437 87.3684 29.2735 87.3684C39.8545 87.3684 48.4704 78.9036 48.4704 68.625C48.4704 63.6368 46.3542 51.5443 26.7039 50.0328L23.0761 49.7304L24.2854 46.2538C24.5877 45.3469 31.2386 25.8477 51.04 14.3599L46.6565 7.10435C17.9368 19.6503 4.48387 44.1377 5.84428 62.2764Z" fill="#232323"/>
<path d="M87.0153 93.2635C74.0158 93.2635 59.3537 83.7406 57.8421 62.7299C56.3305 42.1726 71.8996 14.2087 104.398 0.906936L106.666 0L116.793 16.7784L114.072 18.1388C99.1078 25.6966 91.7011 38.696 88.8292 44.8934C105.759 47.6143 111.956 58.7998 111.956 68.7761C111.956 82.2291 100.771 93.2635 87.0153 93.2635ZM63.586 62.2764C64.7953 79.5083 76.5855 87.3684 87.0153 87.3684C97.5962 87.3684 106.212 78.9036 106.212 68.625C106.212 63.6368 104.096 51.5443 84.4456 50.0328L80.8179 49.7304L82.0271 46.2538C82.3294 45.3469 88.9803 25.8477 108.782 14.3599L104.398 7.10435C75.8297 19.6503 62.3768 44.1377 63.586 62.2764Z" fill="#232323"/>
</g>
<defs>
<filter id="filter0_d" x="0" y="0" width="121.793" height="98.2635" filterUnits="userSpaceOnUse" color-interpolation-filters="sRGB">
<feFlood flood-opacity="0" result="BackgroundImageFix"/>
<feColorMatrix in="SourceAlpha" type="matrix" values="0 0 0 0 0 0 0 0 0 0 0 0 0 0 0 0 0 0 127 0"/>
<feOffset dx="5" dy="5"/>
<feColorMatrix type="matrix" values="0 0 0 0 0.588235 0 0 0 0 0.94902 0 0 0 0 0.435294 0 0 0 0.7 0"/>
<feBlend mode="normal" in2="BackgroundImageFix" result="effect1_dropShadow"/>
<feBlend mode="normal" in="SourceGraphic" in2="effect1_dropShadow" result="shape"/>
</filter>
</defs>
</svg>
