<svg width="50" height="50" viewBox="0 0 50 50" fill="none" xmlns="http://www.w3.org/2000/svg">
<g clipPath="url(#clip0)">
<path d="M25 50C38.7843 50 50 38.7853 50 25C50 22.6206 49.6679 20.2759 49.0102 18.0303C48.6862 16.9261 47.5332 16.2918 46.4259 16.6158C45.3206 16.9388 44.6884 18.0959 45.0114 19.2001C45.5561 21.0658 45.8333 23.0179 45.8333 25C45.8333 36.4873 36.4873 45.8333 25 45.8333C13.5127 45.8333 4.16667 36.4873 4.16667 25C4.16667 13.5127 13.5127 4.16667 25 4.16667C29.1748 4.16667 33.1914 5.38737 36.6155 7.69602C37.5687 8.33944 38.8646 8.08665 39.507 7.13348C40.1499 6.1793 39.8992 4.88434 38.945 4.24143C34.8302 1.46688 30.0084 0 25 0C11.2157 0 0 11.2147 0 25C0 38.7853 11.2157 50 25 50Z" fill="#31CDB9"/>
<path d="M46.442 4.77696L24.9983 26.2196L18.138 19.3603C17.3242 18.547 16.0058 18.547 15.192 19.3603C14.3787 20.1741 14.3787 21.4925 15.192 22.3063L23.5253 30.6396C23.9327 31.047 24.4648 31.2499 24.9983 31.2499C25.5319 31.2499 26.0639 31.047 26.4713 30.6396L49.388 7.72293C50.2013 6.90912 50.2013 5.59076 49.388 4.77696C48.5742 3.96367 47.2558 3.96367 46.442 4.77696Z" fill="#31CDB9"/>
</g>
<defs>
<clipPath id="clip0">
<rect width="50" height="50" fill="white"/>
</clipPath>
</defs>
</svg>
